<?xml version="1.0" encoding="UTF-8"?>
<svg xmlns="http://www.w3.org/2000/svg" xmlns:xlink="http://www.w3.org/1999/xlink" width="326.97pt" height="242.54pt" viewBox="0 0 326.97 242.54"><rect data-bg-injected="1" x="-6.5394000000000005" y="-9.7016" width="340.0488" height="261.9432" fill="#ffffff"/>
<defs>
<g>
<g id="glyph-0-0">
<path d="M 4.6875 -2.0625 C 4.6875 -2.5 4.6875 -4.203125 3.0625 -4.203125 C 2.53125 -4.203125 2.0625 -3.984375 1.734375 -3.6875 C 1.734375 -4.015625 1.609375 -4.09375 1.3125 -4.09375 L 0.96875 -4.09375 C 0.65625 -4.09375 0.546875 -4 0.546875 -3.671875 L 0.546875 1.3125 C 0.546875 1.625 0.640625 1.734375 0.96875 1.734375 L 1.328125 1.734375 C 1.671875 1.734375 1.765625 1.625 1.765625 1.3125 L 1.765625 -0.34375 C 2.171875 0.09375 2.65625 0.09375 2.78125 0.09375 C 4.6875 0.09375 4.6875 -1.625 4.6875 -2.0625 Z M 3.46875 -2.046875 C 3.46875 -1.6875 3.46875 -0.546875 2.453125 -0.546875 C 2.25 -0.546875 2.09375 -0.625 1.984375 -0.703125 C 1.765625 -0.84375 1.765625 -0.890625 1.765625 -1.0625 L 1.765625 -3.203125 C 1.859375 -3.296875 2.15625 -3.5 2.546875 -3.5 C 3.453125 -3.5 3.46875 -2.4375 3.46875 -2.046875 Z M 3.46875 -2.046875 "/>
</g>
<g id="glyph-0-1">
<path d="M 3.1875 -3.53125 L 3.1875 -3.953125 C 3.1875 -4.140625 3.1875 -4.203125 3.03125 -4.203125 C 2.78125 -4.203125 2.125 -4.109375 1.703125 -3.140625 L 1.6875 -3.140625 L 1.6875 -3.71875 C 1.6875 -4.015625 1.625 -4.15625 1.265625 -4.15625 L 0.96875 -4.15625 C 0.65625 -4.15625 0.546875 -4.0625 0.546875 -3.71875 L 0.546875 -0.4375 C 0.546875 -0.109375 0.640625 0 0.96875 0 L 1.3125 0 C 1.640625 0 1.734375 -0.109375 1.734375 -0.4375 L 1.734375 -2.0625 C 1.734375 -2.90625 2.4375 -3.265625 3.015625 -3.296875 C 3.171875 -3.296875 3.1875 -3.296875 3.1875 -3.53125 Z M 3.1875 -3.53125 "/>
</g>
<g id="glyph-0-2">
<path d="M 4.640625 -2.015625 C 4.640625 -3.484375 3.921875 -4.25 2.46875 -4.25 C 0.96875 -4.25 0.28125 -3.453125 0.28125 -2.015625 C 0.28125 -0.5625 1.046875 0.09375 2.453125 0.09375 C 3.859375 0.09375 4.640625 -0.546875 4.640625 -2.015625 Z M 3.421875 -2.125 C 3.421875 -1.421875 3.421875 -0.59375 2.46875 -0.59375 C 1.5 -0.59375 1.5 -1.40625 1.5 -2.125 C 1.5 -2.8125 1.5 -3.609375 2.453125 -3.609375 C 3.421875 -3.609375 3.421875 -2.8125 3.421875 -2.125 Z M 3.421875 -2.125 "/>
</g>
<g id="glyph-0-3">
<path d="M 3.546875 -1.265625 C 3.546875 -1.765625 3.28125 -2.078125 3.109375 -2.21875 C 2.75 -2.546875 2.4375 -2.59375 2.0625 -2.671875 C 1.578125 -2.75 1.21875 -2.828125 1.21875 -3.171875 C 1.21875 -3.546875 1.515625 -3.609375 1.859375 -3.609375 C 2.46875 -3.609375 2.78125 -3.390625 3.015625 -3.203125 C 3.109375 -3.109375 3.125 -3.109375 3.15625 -3.109375 C 3.25 -3.109375 3.265625 -3.1875 3.28125 -3.21875 C 3.296875 -3.296875 3.390625 -3.796875 3.390625 -3.84375 C 3.390625 -3.984375 2.90625 -4.109375 2.8125 -4.140625 C 2.453125 -4.25 2.171875 -4.25 1.9375 -4.25 C 1.53125 -4.25 0.328125 -4.25 0.328125 -2.96875 C 0.328125 -2.53125 0.53125 -2.265625 0.765625 -2.046875 C 1.078125 -1.765625 1.4375 -1.703125 1.9375 -1.609375 C 2.203125 -1.5625 2.65625 -1.484375 2.65625 -1.078125 C 2.65625 -0.65625 2.3125 -0.59375 1.953125 -0.59375 C 1.5625 -0.59375 1.0625 -0.71875 0.640625 -1.21875 C 0.59375 -1.265625 0.578125 -1.296875 0.515625 -1.296875 C 0.4375 -1.296875 0.40625 -1.203125 0.40625 -1.15625 C 0.390625 -1.03125 0.28125 -0.515625 0.28125 -0.4375 C 0.28125 -0.265625 0.953125 -0.046875 0.953125 -0.046875 C 1.4375 0.09375 1.8125 0.09375 1.953125 0.09375 C 2.421875 0.09375 3.546875 0.0625 3.546875 -1.265625 Z M 3.546875 -1.265625 "/>
</g>
<g id="glyph-0-4">
<path d="M 4.28125 -2.328125 C 4.28125 -3.484375 3.75 -4.25 2.421875 -4.25 C 0.984375 -4.25 0.28125 -3.453125 0.28125 -2.09375 C 0.28125 -0.625 1.125 0.09375 2.53125 0.09375 C 2.875 0.09375 3.390625 0.046875 3.96875 -0.234375 C 4.171875 -0.34375 4.234375 -0.359375 4.234375 -0.46875 C 4.234375 -0.53125 4.203125 -0.796875 4.203125 -0.875 C 4.15625 -1.140625 4.15625 -1.15625 4.078125 -1.15625 C 4.03125 -1.15625 4.015625 -1.15625 3.921875 -1.0625 C 3.390625 -0.609375 2.859375 -0.546875 2.5625 -0.546875 C 1.5625 -0.546875 1.453125 -1.34375 1.421875 -1.921875 L 3.859375 -1.921875 C 4.0625 -1.921875 4.28125 -1.921875 4.28125 -2.328125 Z M 3.296875 -2.390625 L 1.4375 -2.390625 C 1.453125 -2.9375 1.640625 -3.609375 2.421875 -3.609375 C 3.140625 -3.609375 3.265625 -3.09375 3.296875 -2.390625 Z M 3.296875 -2.390625 "/>
</g>
<g id="glyph-0-5">
<path d="M 4.234375 -3.84375 C 4.234375 -4.09375 4.015625 -4.09375 3.875 -4.09375 L 3.6875 -4.09375 C 3.3125 -4.09375 3.21875 -3.96875 3.140625 -3.71875 L 2.25 -1.015625 L 1.359375 -3.71875 C 1.296875 -3.90625 1.234375 -4.09375 0.8125 -4.09375 L 0.59375 -4.09375 C 0.453125 -4.09375 0.234375 -4.09375 0.234375 -3.84375 C 0.234375 -3.828125 0.234375 -3.8125 0.28125 -3.6875 L 1.34375 -0.375 C 1.46875 0 1.75 0 1.90625 0 L 2.5625 0 C 2.71875 0 3 0 3.125 -0.375 L 4.1875 -3.6875 C 4.234375 -3.8125 4.234375 -3.828125 4.234375 -3.84375 Z M 4.234375 -3.84375 "/>
</g>
<g id="glyph-0-6">
<path d="M 4.25 -0.4375 L 4.25 -2.828125 C 4.25 -4.25 2.890625 -4.25 2.4375 -4.25 C 2.015625 -4.25 1.5625 -4.21875 0.96875 -3.96875 C 0.78125 -3.890625 0.734375 -3.859375 0.734375 -3.765625 C 0.734375 -3.703125 0.78125 -3.171875 0.796875 -3.109375 C 0.8125 -3.046875 0.84375 -3.015625 0.90625 -3.015625 C 0.953125 -3.015625 0.984375 -3.03125 1.015625 -3.0625 C 1.390625 -3.46875 1.84375 -3.65625 2.40625 -3.65625 C 2.890625 -3.65625 3.03125 -3.359375 3.03125 -2.84375 L 3.03125 -2.53125 C 2.71875 -2.53125 0.359375 -2.5 0.359375 -1.1875 C 0.359375 -0.5625 0.875 0.09375 1.65625 0.09375 C 1.953125 0.09375 2.625 0.015625 3.046875 -0.609375 L 3.046875 -0.4375 C 3.046875 -0.140625 3.109375 0 3.484375 0 L 3.8125 0 C 4.15625 0 4.25 -0.109375 4.25 -0.4375 Z M 3.03125 -1.375 C 3.03125 -0.546875 2.171875 -0.546875 2.15625 -0.546875 C 1.765625 -0.546875 1.53125 -0.875 1.53125 -1.203125 C 1.53125 -2.09375 2.78125 -2.15625 3.03125 -2.15625 Z M 3.03125 -1.375 "/>
</g>
<g id="glyph-0-7">
<path d="M 1.734375 -0.4375 L 1.734375 -5.78125 C 1.734375 -6.0625 1.671875 -6.21875 1.3125 -6.21875 L 0.96875 -6.21875 C 0.65625 -6.21875 0.546875 -6.109375 0.546875 -5.78125 L 0.546875 -0.4375 C 0.546875 -0.109375 0.640625 0 0.96875 0 L 1.3125 0 C 1.640625 0 1.734375 -0.109375 1.734375 -0.4375 Z M 1.734375 -0.4375 "/>
</g>
<g id="glyph-0-8">
<path d="M 1.734375 -0.4375 L 1.734375 -3.671875 C 1.734375 -3.953125 1.671875 -4.09375 1.3125 -4.09375 L 0.96875 -4.09375 C 0.65625 -4.09375 0.546875 -4 0.546875 -3.671875 L 0.546875 -0.4375 C 0.546875 -0.109375 0.640625 0 0.96875 0 L 1.3125 0 C 1.640625 0 1.734375 -0.109375 1.734375 -0.4375 Z M 1.796875 -5.421875 L 1.796875 -5.59375 C 1.796875 -5.875 1.734375 -6.03125 1.375 -6.03125 L 0.90625 -6.03125 C 0.578125 -6.03125 0.484375 -5.90625 0.484375 -5.59375 L 0.484375 -5.421875 C 0.484375 -5.171875 0.53125 -5 0.90625 -5 L 1.375 -5 C 1.75 -5 1.796875 -5.15625 1.796875 -5.421875 Z M 1.796875 -5.421875 "/>
</g>
<g id="glyph-0-9">
<path d="M 4.46875 -0.4375 L 4.46875 -5.78125 C 4.46875 -6.0625 4.40625 -6.21875 4.03125 -6.21875 L 3.703125 -6.21875 C 3.359375 -6.21875 3.28125 -6.09375 3.28125 -5.78125 L 3.28125 -3.75 C 2.875 -4.140625 2.421875 -4.203125 2.15625 -4.203125 C 0.328125 -4.203125 0.328125 -2.484375 0.328125 -2.046875 C 0.328125 -1.625 0.328125 0.09375 2.109375 0.09375 C 2.484375 0.09375 2.859375 -0.015625 3.25 -0.421875 C 3.25 -0.09375 3.375 0 3.6875 0 L 4.03125 0 C 4.375 0 4.46875 -0.109375 4.46875 -0.4375 Z M 3.25 -1.125 C 3.25 -0.96875 3.25 -0.890625 2.984375 -0.703125 C 2.765625 -0.5625 2.5625 -0.546875 2.453125 -0.546875 C 1.546875 -0.546875 1.546875 -1.375 1.546875 -2.046875 C 1.546875 -2.71875 1.546875 -3.546875 2.546875 -3.546875 C 2.8125 -3.546875 3.046875 -3.46875 3.25 -3.28125 Z M 3.25 -1.125 "/>
</g>
<g id="glyph-0-10">
<path d="M 3.34375 -0.421875 C 3.34375 -0.453125 3.328125 -0.515625 3.265625 -0.703125 C 3.21875 -0.875 3.203125 -0.9375 3.125 -0.9375 C 3.078125 -0.9375 3.078125 -0.921875 3.015625 -0.875 C 2.921875 -0.796875 2.671875 -0.59375 2.296875 -0.59375 C 2.09375 -0.59375 1.953125 -0.75 1.953125 -1.34375 L 1.953125 -3.453125 L 2.75 -3.453125 C 2.859375 -3.453125 3.171875 -3.453125 3.171875 -3.78125 C 3.171875 -4.09375 2.859375 -4.09375 2.75 -4.09375 L 1.953125 -4.09375 L 1.953125 -4.84375 C 1.953125 -5.125 1.890625 -5.265625 1.515625 -5.265625 L 1.25 -5.265625 C 0.921875 -5.265625 0.8125 -5.171875 0.8125 -4.84375 L 0.8125 -4.09375 L 0.609375 -4.09375 C 0.515625 -4.09375 0.171875 -4.09375 0.171875 -3.78125 C 0.171875 -3.453125 0.5 -3.453125 0.609375 -3.453125 L 0.78125 -3.453125 L 0.78125 -1.1875 C 0.78125 -0.28125 1.109375 0.09375 1.734375 0.09375 C 1.8125 0.09375 2.203125 0.09375 2.671875 -0.046875 C 2.8125 -0.09375 3.34375 -0.25 3.34375 -0.421875 Z M 3.34375 -0.421875 "/>
</g>
<g id="glyph-0-11">
<path d="M 4.6875 -2.0625 C 4.6875 -2.5 4.6875 -4.203125 3 -4.203125 C 2.265625 -4.203125 1.8125 -3.78125 1.734375 -3.703125 L 1.734375 -5.78125 C 1.734375 -6.0625 1.671875 -6.21875 1.3125 -6.21875 L 0.96875 -6.21875 C 0.65625 -6.21875 0.546875 -6.109375 0.546875 -5.78125 L 0.546875 -0.4375 C 0.546875 -0.109375 0.640625 0 0.96875 0 L 1.328125 0 C 1.484375 0 1.75 0 1.765625 -0.34375 C 2.171875 0.09375 2.625 0.09375 2.78125 0.09375 C 4.6875 0.09375 4.6875 -1.625 4.6875 -2.0625 Z M 3.46875 -2.0625 C 3.46875 -1.390625 3.46875 -0.546875 2.46875 -0.546875 C 2.09375 -0.546875 1.859375 -0.765625 1.765625 -0.890625 L 1.765625 -3.234375 C 1.875 -3.34375 2.15625 -3.546875 2.5625 -3.546875 C 3.46875 -3.546875 3.46875 -2.734375 3.46875 -2.0625 Z M 3.46875 -2.0625 "/>
</g>
<g id="glyph-0-12">
<path d="M 4.09375 -0.453125 C 4.09375 -0.546875 4.0625 -0.953125 4.03125 -1.078125 C 4.03125 -1.09375 4.015625 -1.1875 3.9375 -1.1875 C 3.890625 -1.1875 3.875 -1.1875 3.78125 -1.09375 C 3.640625 -0.96875 3.21875 -0.59375 2.484375 -0.59375 C 1.546875 -0.59375 1.546875 -1.5 1.546875 -2.078125 C 1.546875 -2.796875 1.59375 -3.546875 2.5 -3.546875 C 3.09375 -3.546875 3.328125 -3.40625 3.65625 -3.140625 C 3.765625 -3.046875 3.78125 -3.046875 3.8125 -3.046875 C 3.90625 -3.046875 3.921875 -3.125 3.9375 -3.15625 C 3.953125 -3.234375 4.03125 -3.734375 4.03125 -3.78125 C 4.03125 -3.859375 3.96875 -3.890625 3.828125 -3.96875 C 3.390625 -4.15625 3.125 -4.25 2.5 -4.25 C 1.15625 -4.25 0.328125 -3.625 0.328125 -2.0625 C 0.328125 -0.578125 1.09375 0.09375 2.453125 0.09375 C 2.6875 0.09375 3.234375 0.09375 3.828125 -0.21875 C 4.078125 -0.34375 4.09375 -0.359375 4.09375 -0.453125 Z M 4.09375 -0.453125 "/>
</g>
<g id="glyph-1-0">
<path d="M 3.828125 -1.953125 C 3.828125 -2.234375 3.8125 -2.921875 3.46875 -3.453125 C 3.09375 -4.015625 2.515625 -4.125 2.171875 -4.125 C 1.140625 -4.125 0.3125 -3.171875 0.3125 -2.015625 C 0.3125 -0.84375 1.1875 0.09375 2.3125 0.09375 C 2.734375 0.09375 3.265625 -0.015625 3.78125 -0.34375 L 3.71875 -0.953125 C 3.15625 -0.5625 2.625 -0.484375 2.3125 -0.484375 C 1.578125 -0.484375 1 -1.140625 0.96875 -1.953125 Z M 3.28125 -2.484375 L 1.03125 -2.484375 C 1.171875 -3.0625 1.609375 -3.546875 2.171875 -3.546875 C 2.5 -3.546875 3.109375 -3.390625 3.28125 -2.484375 Z M 3.28125 -2.484375 "/>
</g>
<g id="glyph-1-1">
<path d="M 4 0 L 4 -6.21875 L 3.28125 -6.21875 L 3.28125 -3.578125 C 2.78125 -4 2.21875 -4.078125 1.921875 -4.078125 C 1.015625 -4.078125 0.328125 -3.140625 0.328125 -1.984375 C 0.328125 -0.828125 1.015625 0.09375 1.890625 0.09375 C 2.15625 0.09375 2.71875 0.03125 3.265625 -0.46875 L 3.265625 0 Z M 3.265625 -1.265625 C 3.265625 -1.09375 3.265625 -1.078125 3.15625 -0.953125 C 2.921875 -0.625 2.609375 -0.484375 2.296875 -0.484375 C 1.703125 -0.484375 1.0625 -0.90625 1.0625 -1.984375 C 1.0625 -3.125 1.828125 -3.484375 2.390625 -3.484375 C 2.796875 -3.484375 3.09375 -3.265625 3.265625 -3.03125 Z M 3.265625 -1.265625 "/>
</g>
<g id="glyph-1-2">
<path d="M 1.453125 0 L 1.453125 -3.96875 L 0.734375 -3.96875 L 0.734375 0 Z M 1.53125 -5.046875 L 1.53125 -5.90625 L 0.671875 -5.90625 L 0.671875 -5.046875 Z M 1.53125 -5.046875 "/>
</g>
<g id="glyph-1-3">
<path d="M 3.0625 -0.234375 L 2.90625 -0.796875 C 2.671875 -0.625 2.359375 -0.515625 2.09375 -0.515625 C 1.734375 -0.515625 1.625 -0.828125 1.625 -1.296875 L 1.625 -3.421875 L 2.90625 -3.421875 L 2.90625 -3.96875 L 1.625 -3.96875 L 1.625 -5.109375 L 0.953125 -5.109375 L 0.953125 -3.96875 L 0.171875 -3.96875 L 0.171875 -3.421875 L 0.9375 -3.421875 L 0.9375 -1.125 C 0.9375 -0.59375 1.046875 0.09375 1.703125 0.09375 C 2.09375 0.09375 2.5625 0.015625 3.0625 -0.234375 Z M 3.0625 -0.234375 "/>
</g>
<g id="glyph-1-4">
<path d="M 3.78125 0 L 3.78125 -2.59375 C 3.78125 -3.46875 3.125 -4.125 2.234375 -4.125 C 1.65625 -4.125 1.234375 -3.96875 0.796875 -3.734375 L 0.84375 -3.09375 C 1.296875 -3.421875 1.734375 -3.5625 2.234375 -3.5625 C 2.734375 -3.5625 3.03125 -3.15625 3.03125 -2.578125 L 3.03125 -2.203125 C 1.5 -2.171875 0.484375 -1.765625 0.484375 -1.03125 C 0.484375 -0.625 0.765625 0.09375 1.546875 0.09375 C 1.71875 0.09375 2.5 0.078125 3.0625 -0.34375 L 3.0625 0 Z M 3.03125 -1.25 C 3.03125 -1.0625 3.03125 -0.84375 2.71875 -0.65625 C 2.484375 -0.515625 2.1875 -0.484375 2.015625 -0.484375 C 1.5625 -0.484375 1.171875 -0.703125 1.171875 -1.0625 C 1.171875 -1.6875 2.921875 -1.71875 3.03125 -1.71875 Z M 3.03125 -1.25 "/>
</g>
<g id="glyph-1-5">
<path d="M 4.109375 -3.96875 L 3.40625 -3.96875 C 3.015625 -2.984375 3.015625 -2.984375 2.6875 -2.15625 C 2.515625 -1.6875 2.1875 -0.828125 2.140625 -0.5 L 2.125 -0.5 C 2.109375 -0.640625 2.078125 -0.8125 1.578125 -2.109375 L 0.859375 -3.96875 L 0.125 -3.96875 L 1.703125 0 L 2.53125 0 Z M 4.109375 -3.96875 "/>
</g>
<g id="glyph-1-6">
<path d="M 1.453125 0 L 1.453125 -6.21875 L 0.734375 -6.21875 L 0.734375 0 Z M 1.453125 0 "/>
</g>
<g id="glyph-1-7">
<path d="M 4.015625 0 L 4.015625 -3.96875 L 3.28125 -3.96875 L 3.28125 -1.390625 C 3.28125 -0.671875 2.71875 -0.4375 2.171875 -0.4375 C 1.53125 -0.4375 1.46875 -0.640625 1.46875 -1.015625 L 1.46875 -3.96875 L 0.71875 -3.96875 L 0.71875 -0.96875 C 0.71875 -0.21875 1.03125 0.09375 1.671875 0.09375 C 2.1875 0.09375 2.890625 -0.046875 3.296875 -0.4375 L 3.296875 0 Z M 4.015625 0 "/>
</g>
<g id="glyph-1-8">
<path d="M 3.3125 -1.15625 C 3.3125 -1.46875 3.1875 -1.78125 2.875 -2.046875 C 2.5625 -2.3125 2.296875 -2.359375 1.75 -2.46875 C 1.421875 -2.53125 0.96875 -2.609375 0.96875 -3.03125 C 0.96875 -3.5625 1.609375 -3.5625 1.75 -3.5625 C 2.40625 -3.5625 2.78125 -3.359375 3.046875 -3.21875 L 3.15625 -3.84375 C 2.609375 -4.09375 2.1875 -4.125 1.828125 -4.125 C 1.625 -4.125 0.296875 -4.125 0.296875 -2.953125 C 0.296875 -2.515625 0.5625 -2.25 0.65625 -2.15625 C 1 -1.859375 1.234375 -1.8125 1.84375 -1.6875 C 2.125 -1.640625 2.640625 -1.546875 2.640625 -1.078125 C 2.640625 -0.5 1.921875 -0.5 1.796875 -0.5 C 1.265625 -0.5 0.765625 -0.6875 0.375 -0.953125 L 0.265625 -0.296875 C 0.796875 -0.015625 1.34375 0.09375 1.796875 0.09375 C 2.375 0.09375 3.3125 -0.09375 3.3125 -1.15625 Z M 3.3125 -1.15625 "/>
</g>
<g id="glyph-1-9">
<path d="M 4.203125 -5.453125 L 4.203125 -6.21875 L 3.4375 -6.21875 L 3.4375 -5.453125 Z M 4.1875 0 L 4.1875 -3.96875 L 3.46875 -3.96875 L 3.46875 0 Z M 2.71875 -3.421875 L 2.71875 -3.96875 L 1.609375 -3.96875 L 1.609375 -5.03125 C 1.609375 -5.609375 1.9375 -5.734375 2.15625 -5.734375 C 2.3125 -5.734375 2.53125 -5.6875 2.71875 -5.5625 L 2.71875 -6.21875 C 2.640625 -6.234375 2.421875 -6.3125 2.15625 -6.3125 C 1.484375 -6.3125 0.921875 -5.671875 0.921875 -4.765625 L 0.921875 -3.96875 L 0.25 -3.96875 L 0.25 -3.421875 L 0.921875 -3.421875 L 0.921875 0 L 1.640625 0 L 1.640625 -3.421875 Z M 2.71875 -3.421875 "/>
</g>
<g id="glyph-1-10">
<path d="M 1.65625 -0.015625 L 1.65625 -0.765625 L 0.890625 -0.765625 L 0.890625 0 L 1.125 0 L 0.875 1.140625 L 1.265625 1.140625 Z M 1.65625 -0.015625 "/>
</g>
<g id="glyph-1-11">
<path d="M 4.328125 -1.96875 C 4.328125 -3.140625 3.421875 -4.125 2.296875 -4.125 C 1.1875 -4.125 0.265625 -3.15625 0.265625 -1.96875 C 0.265625 -0.78125 1.203125 0.09375 2.296875 0.09375 C 3.40625 0.09375 4.328125 -0.8125 4.328125 -1.96875 Z M 3.578125 -2.0625 C 3.578125 -1.015625 2.953125 -0.515625 2.296875 -0.515625 C 1.609375 -0.515625 1.015625 -1.046875 1.015625 -2.0625 C 1.015625 -3.109375 1.6875 -3.546875 2.296875 -3.546875 C 2.9375 -3.546875 3.578125 -3.09375 3.578125 -2.0625 Z M 3.578125 -2.0625 "/>
</g>
<g id="glyph-1-12">
<path d="M 4.421875 -2 C 4.421875 -3.078125 3.859375 -4.078125 2.984375 -4.078125 C 2.734375 -4.078125 2.078125 -4.03125 1.453125 -3.546875 L 1.453125 -3.96875 L 0.75 -3.96875 L 0.75 1.734375 L 1.484375 1.734375 L 1.484375 -0.40625 C 1.8125 -0.09375 2.265625 0.09375 2.734375 0.09375 C 3.640625 0.09375 4.421875 -0.78125 4.421875 -2 Z M 3.6875 -1.984375 C 3.6875 -1.125 3.046875 -0.484375 2.359375 -0.484375 C 2.0625 -0.484375 1.75 -0.59375 1.484375 -1.03125 L 1.484375 -2.96875 C 1.609375 -3.140625 1.9375 -3.46875 2.4375 -3.46875 C 3.109375 -3.46875 3.6875 -2.828125 3.6875 -1.984375 Z M 3.6875 -1.984375 "/>
</g>
<g id="glyph-1-13">
<path d="M 4.015625 0 L 4.015625 -2.65625 C 4.015625 -3.328125 3.84375 -4.078125 2.75 -4.078125 C 2.046875 -4.078125 1.625 -3.65625 1.421875 -3.390625 L 1.421875 -4.03125 L 0.71875 -4.03125 L 0.71875 0 L 1.46875 0 L 1.46875 -2.1875 C 1.46875 -2.78125 1.703125 -3.484375 2.375 -3.484375 C 3.28125 -3.484375 3.28125 -2.859375 3.28125 -2.59375 L 3.28125 0 Z M 4.015625 0 "/>
</g>
<g id="glyph-1-14">
<path d="M 5.359375 -4.390625 C 5.359375 -5.34375 4.453125 -6.21875 3.1875 -6.21875 L 0.875 -6.21875 L 0.875 0 L 1.734375 0 L 1.734375 -2.546875 L 3.1875 -2.546875 C 4.453125 -2.546875 5.359375 -3.421875 5.359375 -4.390625 Z M 4.578125 -4.390625 C 4.578125 -3.6875 4.015625 -3.109375 2.96875 -3.109375 L 1.703125 -3.109375 L 1.703125 -5.6875 L 2.96875 -5.6875 C 4 -5.6875 4.578125 -5.109375 4.578125 -4.390625 Z M 4.578125 -4.390625 "/>
</g>
<g id="glyph-1-15">
<path d="M 5.6875 0 L 3.890625 -2.90625 C 4.796875 -3.15625 5.4375 -3.8125 5.4375 -4.546875 C 5.4375 -5.46875 4.40625 -6.21875 3.125 -6.21875 L 0.875 -6.21875 L 0.875 0 L 1.703125 0 L 1.703125 -2.8125 L 3.140625 -2.8125 L 4.828125 0 Z M 4.671875 -4.546875 C 4.671875 -3.953125 4.125 -3.40625 3.015625 -3.40625 L 1.703125 -3.40625 L 1.703125 -5.6875 L 3.015625 -5.6875 C 4.0625 -5.6875 4.671875 -5.1875 4.671875 -4.546875 Z M 4.671875 -4.546875 "/>
</g>
<g id="glyph-1-16">
<path d="M 4.015625 0 L 4.015625 -2.65625 C 4.015625 -3.328125 3.84375 -4.078125 2.75 -4.078125 C 2.25 -4.078125 1.765625 -3.828125 1.4375 -3.421875 L 1.4375 -6.21875 L 0.71875 -6.21875 L 0.71875 0 L 1.46875 0 L 1.46875 -2.1875 C 1.46875 -2.78125 1.703125 -3.484375 2.375 -3.484375 C 3.28125 -3.484375 3.28125 -2.859375 3.28125 -2.59375 L 3.28125 0 Z M 4.015625 0 "/>
</g>
<g id="glyph-1-17">
<path d="M 6.578125 0 L 6.578125 -2.65625 C 6.578125 -3.328125 6.390625 -4.078125 5.3125 -4.078125 C 4.5625 -4.078125 4.140625 -3.609375 3.921875 -3.34375 C 3.859375 -3.515625 3.671875 -4.078125 2.75 -4.078125 C 2.046875 -4.078125 1.625 -3.65625 1.421875 -3.390625 L 1.421875 -4.03125 L 0.71875 -4.03125 L 0.71875 0 L 1.46875 0 L 1.46875 -2.1875 C 1.46875 -2.78125 1.703125 -3.484375 2.375 -3.484375 C 3.28125 -3.484375 3.28125 -2.859375 3.28125 -2.59375 L 3.28125 0 L 4.015625 0 L 4.015625 -2.1875 C 4.015625 -2.78125 4.25 -3.484375 4.9375 -3.484375 C 5.828125 -3.484375 5.828125 -2.859375 5.828125 -2.59375 L 5.828125 0 Z M 6.578125 0 "/>
</g>
<g id="glyph-1-18">
<path d="M 3.015625 -3.421875 L 3.015625 -4.078125 C 2.359375 -4.0625 1.765625 -3.75 1.40625 -3.21875 L 1.40625 -4.03125 L 0.75 -4.03125 L 0.75 0 L 1.453125 0 L 1.453125 -1.90625 C 1.453125 -2.84375 2.1875 -3.421875 3.015625 -3.421875 Z M 3.015625 -3.421875 "/>
</g>
<g id="glyph-1-19">
<path d="M 1.65625 -3.203125 L 1.65625 -3.96875 L 0.890625 -3.96875 L 0.890625 -3.203125 Z M 1.65625 0 L 1.65625 -0.765625 L 0.890625 -0.765625 L 0.890625 0 Z M 1.65625 0 "/>
</g>
<g id="glyph-1-20">
<path d="M 4.078125 -6.515625 C 4.078125 -6.65625 3.96875 -6.71875 3.890625 -6.71875 C 3.75 -6.71875 3.71875 -6.609375 3.6875 -6.515625 L 0.5625 1.890625 C 0.53125 1.96875 0.515625 2 0.515625 2.046875 C 0.515625 2.171875 0.625 2.234375 0.703125 2.234375 C 0.84375 2.234375 0.875 2.140625 0.90625 2.03125 L 4.03125 -6.359375 C 4.0625 -6.453125 4.078125 -6.484375 4.078125 -6.515625 Z M 4.078125 -6.515625 "/>
</g>
<g id="glyph-1-21">
<path d="M 3.1875 -5.578125 L 3.1875 -6.21875 C 3.078125 -6.234375 2.796875 -6.3125 2.453125 -6.3125 C 1.578125 -6.3125 0.921875 -5.65625 0.921875 -4.765625 L 0.921875 -3.96875 L 0.25 -3.96875 L 0.25 -3.421875 L 0.921875 -3.421875 L 0.921875 0 L 1.640625 0 L 1.640625 -3.421875 L 2.625 -3.421875 L 2.625 -3.96875 L 1.609375 -3.96875 L 1.609375 -5.015625 C 1.609375 -5.65625 2.1875 -5.734375 2.4375 -5.734375 C 2.53125 -5.734375 2.8125 -5.734375 3.1875 -5.578125 Z M 3.1875 -5.578125 "/>
</g>
<g id="glyph-1-22">
<path d="M 6.640625 -2.234375 C 6.640625 -2.4375 6.46875 -2.4375 6.328125 -2.4375 L 3.765625 -2.4375 L 3.765625 -5 C 3.765625 -5.140625 3.765625 -5.3125 3.578125 -5.3125 C 3.390625 -5.3125 3.390625 -5.125 3.390625 -5 L 3.390625 -2.4375 L 0.828125 -2.4375 C 0.703125 -2.4375 0.515625 -2.4375 0.515625 -2.25 C 0.515625 -2.046875 0.6875 -2.046875 0.828125 -2.046875 L 3.390625 -2.046875 L 3.390625 0.515625 C 3.390625 0.65625 3.390625 0.828125 3.578125 0.828125 C 3.765625 0.828125 3.765625 0.640625 3.765625 0.515625 L 3.765625 -2.046875 L 6.328125 -2.046875 C 6.453125 -2.046875 6.640625 -2.046875 6.640625 -2.234375 Z M 6.640625 -2.234375 "/>
</g>
<g id="glyph-1-23">
<path d="M 4.59375 -1.703125 C 4.59375 -2.71875 3.765625 -3.390625 3.09375 -3.546875 L 2.1875 -3.765625 C 1.734375 -3.875 1.265625 -4.21875 1.265625 -4.75 C 1.265625 -5.25 1.765625 -5.78125 2.578125 -5.78125 C 3.21875 -5.78125 3.671875 -5.59375 4.140625 -5.1875 L 4.28125 -5.96875 C 3.828125 -6.203125 3.40625 -6.40625 2.59375 -6.40625 C 1.3125 -6.40625 0.515625 -5.53125 0.515625 -4.625 C 0.515625 -4.40625 0.5625 -4.046875 0.859375 -3.640625 C 1.265625 -3.09375 1.859375 -2.96875 2.21875 -2.875 L 2.96875 -2.6875 C 3.390625 -2.5625 3.828125 -2.171875 3.828125 -1.609375 C 3.828125 -1.015625 3.328125 -0.46875 2.53125 -0.46875 C 1.796875 -0.46875 1.125 -0.75 0.5625 -1.203125 L 0.40625 -0.421875 C 1.296875 0.125 2.109375 0.203125 2.53125 0.203125 C 3.75 0.203125 4.59375 -0.71875 4.59375 -1.703125 Z M 4.59375 -1.703125 "/>
</g>
<g id="glyph-1-24">
<path d="M 4.625 0 L 4.625 -0.625 L 4.21875 -0.625 L 2.046875 -0.609375 L 1.703125 -0.609375 L 1.703125 -6.21875 L 0.84375 -6.21875 L 0.84375 0 Z M 4.625 0 "/>
</g>
<g id="glyph-1-25">
<path d="M 6.28125 -3.078125 C 6.28125 -4.96875 4.9375 -6.40625 3.390625 -6.40625 C 1.84375 -6.40625 0.515625 -4.96875 0.515625 -3.078125 C 0.515625 -1.21875 1.859375 0.203125 3.390625 0.203125 C 4.9375 0.203125 6.28125 -1.21875 6.28125 -3.078125 Z M 5.421875 -3.21875 C 5.421875 -1.53125 4.453125 -0.4375 3.390625 -0.4375 C 2.328125 -0.4375 1.375 -1.53125 1.375 -3.21875 C 1.375 -4.859375 2.375 -5.796875 3.390625 -5.796875 C 4.40625 -5.796875 5.421875 -4.84375 5.421875 -3.21875 Z M 5.421875 -3.21875 "/>
</g>
<g id="glyph-1-26">
<path d="M 2.546875 -1.703125 L 2.546875 -2.265625 L 0.09375 -2.265625 L 0.09375 -1.703125 Z M 2.546875 -1.703125 "/>
</g>
<g id="glyph-1-27">
<path d="M 5.875 0 L 3.484375 -6.21875 L 2.65625 -6.21875 L 0.265625 0 L 0.96875 0 L 1.640625 -1.78125 L 4.3125 -1.78125 L 5 0 Z M 4.09375 -2.3125 L 1.859375 -2.3125 L 2.96875 -5.546875 Z M 4.09375 -2.3125 "/>
</g>
<g id="glyph-1-28">
<path d="M 1.703125 0 L 1.703125 -6.21875 L 0.84375 -6.21875 L 0.84375 0 Z M 1.703125 0 "/>
</g>
<g id="glyph-1-29">
<path d="M 3.0625 2.234375 C 2.578125 1.734375 1.46875 0.59375 1.46875 -2.234375 C 1.46875 -5.078125 2.578125 -6.21875 3.0625 -6.71875 L 2.484375 -6.71875 C 1.421875 -5.828125 0.71875 -4.296875 0.71875 -2.25 C 0.71875 -0.109375 1.46875 1.375 2.484375 2.234375 Z M 3.0625 2.234375 "/>
</g>
<g id="glyph-1-30">
<path d="M 1.65625 0 L 1.65625 -0.765625 L 0.890625 -0.765625 L 0.890625 0 Z M 1.65625 0 "/>
</g>
<g id="glyph-1-31">
<path d="M 4.109375 -3.96875 L 3.40625 -3.96875 C 2.71875 -2.34375 2.234375 -1.15625 2.1875 -0.53125 C 2.15625 -0.9375 1.78125 -1.859375 1.671875 -2.125 C 1.3125 -3.03125 1.15625 -3.34375 0.875 -3.96875 L 0.125 -3.96875 L 1.921875 0 L 1.578125 0.796875 C 1.359375 1.296875 1.1875 1.296875 1.0625 1.296875 C 0.90625 1.296875 0.59375 1.265625 0.328125 1.140625 L 0.390625 1.765625 C 0.40625 1.765625 0.75 1.828125 1.046875 1.828125 C 1.296875 1.828125 1.671875 1.828125 2.125 0.765625 Z M 4.109375 -3.96875 "/>
</g>
<g id="glyph-1-32">
<path d="M 2.84375 -2.234375 C 2.84375 -4.375 2.109375 -5.859375 1.09375 -6.71875 L 0.515625 -6.71875 C 1 -6.21875 2.109375 -5.078125 2.109375 -2.25 C 2.109375 0.59375 1 1.734375 0.515625 2.234375 L 1.09375 2.234375 C 2.15625 1.34375 2.84375 -0.1875 2.84375 -2.234375 Z M 2.84375 -2.234375 "/>
</g>
<g id="glyph-1-33">
<path d="M 4.46875 -3.46875 L 4.359375 -4.078125 C 4.1875 -4.078125 3.59375 -4.078125 2.921875 -3.78125 C 2.796875 -3.890625 2.46875 -4.078125 2.046875 -4.078125 C 1.21875 -4.078125 0.5625 -3.40625 0.5625 -2.609375 C 0.5625 -2.390625 0.625 -2.0625 0.875 -1.703125 C 0.703125 -1.484375 0.609375 -1.21875 0.609375 -0.96875 C 0.609375 -0.71875 0.703125 -0.46875 0.828125 -0.296875 C 0.359375 0 0.265625 0.390625 0.265625 0.640625 C 0.265625 1.296875 1.140625 1.84375 2.296875 1.84375 C 3.453125 1.84375 4.328125 1.296875 4.328125 0.625 C 4.328125 -0.625 2.84375 -0.640625 2.453125 -0.640625 L 1.625 -0.640625 C 1.515625 -0.640625 1.109375 -0.640625 1.109375 -1.09375 C 1.109375 -1.28125 1.140625 -1.328125 1.1875 -1.40625 C 1.4375 -1.25 1.734375 -1.140625 2.046875 -1.140625 C 2.859375 -1.140625 3.515625 -1.8125 3.515625 -2.609375 C 3.515625 -2.90625 3.421875 -3.15625 3.28125 -3.40625 C 3.25 -3.453125 3.25 -3.46875 3.25 -3.46875 C 3.25 -3.515625 3.6875 -3.515625 3.8125 -3.515625 C 3.875 -3.515625 4.203125 -3.515625 4.46875 -3.46875 Z M 2.859375 -2.609375 C 2.859375 -1.890625 2.40625 -1.6875 2.046875 -1.6875 C 1.625 -1.6875 1.234375 -1.9375 1.234375 -2.609375 C 1.234375 -3.328125 1.6875 -3.53125 2.046875 -3.53125 C 2.453125 -3.53125 2.859375 -3.28125 2.859375 -2.609375 Z M 3.671875 0.640625 C 3.671875 1.03125 3.015625 1.3125 2.296875 1.3125 C 1.609375 1.3125 0.921875 1.046875 0.921875 0.625 C 0.921875 0.625 0.921875 0.046875 1.609375 0.046875 L 2.453125 0.046875 C 2.640625 0.046875 3.671875 0.046875 3.671875 0.640625 Z M 3.671875 0.640625 "/>
</g>
<g id="glyph-1-34">
<path d="M 4.234375 0 L 2.40625 -2.046875 L 4.078125 -3.96875 L 3.296875 -3.96875 L 2.09375 -2.515625 L 0.828125 -3.96875 L 0.046875 -3.96875 L 1.78125 -2.046875 L 0 0 L 0.78125 0 L 2.09375 -1.671875 L 3.453125 0 Z M 4.234375 0 "/>
</g>
<g id="glyph-2-0">
<path d="M 4.625 -0.28125 C 4.625 -0.578125 4.421875 -0.578125 4.109375 -0.578125 L 4.109375 -2.703125 C 4.109375 -2.90625 4.109375 -3.90625 3.3125 -3.90625 C 3.21875 -3.90625 2.796875 -3.90625 2.421875 -3.453125 C 2.40625 -3.484375 2.234375 -3.90625 1.75 -3.90625 C 1.546875 -3.90625 1.25 -3.828125 1 -3.59375 C 0.953125 -3.859375 0.78125 -3.859375 0.625 -3.859375 L 0.328125 -3.859375 C 0.1875 -3.859375 -0.046875 -3.859375 -0.046875 -3.578125 C -0.046875 -3.28125 0.140625 -3.28125 0.453125 -3.28125 L 0.453125 -0.578125 C 0.140625 -0.578125 -0.046875 -0.578125 -0.046875 -0.28125 C -0.046875 0 0.1875 0 0.328125 0 L 1.125 0 C 1.265625 0 1.5 0 1.5 -0.28125 C 1.5 -0.578125 1.3125 -0.578125 1 -0.578125 L 1 -2.15625 C 1 -2.90625 1.359375 -3.328125 1.71875 -3.328125 C 1.890625 -3.328125 2.015625 -3.203125 2.015625 -2.640625 L 2.015625 -0.578125 C 1.9375 -0.578125 1.671875 -0.578125 1.671875 -0.296875 C 1.671875 0 1.921875 0 2.046875 0 L 2.6875 0 C 2.8125 0 3.0625 0 3.0625 -0.28125 C 3.0625 -0.578125 2.859375 -0.578125 2.546875 -0.578125 L 2.546875 -2.15625 C 2.546875 -2.90625 2.921875 -3.328125 3.28125 -3.328125 C 3.453125 -3.328125 3.578125 -3.203125 3.578125 -2.640625 L 3.578125 -0.578125 C 3.484375 -0.578125 3.234375 -0.578125 3.234375 -0.296875 C 3.234375 0 3.46875 0 3.609375 0 L 4.25 0 C 4.375 0 4.625 0 4.625 -0.28125 Z M 4.625 -0.28125 "/>
</g>
<g id="glyph-2-1">
<path d="M 4.640625 -0.296875 C 4.640625 -0.578125 4.40625 -0.578125 4.265625 -0.578125 C 4.125 -0.578125 3.9375 -0.578125 3.765625 -0.640625 L 3.765625 -2.53125 C 3.765625 -3.234375 3.234375 -3.9375 1.984375 -3.9375 C 1.5625 -3.9375 0.65625 -3.9375 0.65625 -3.265625 C 0.65625 -3 0.859375 -2.84375 1.078125 -2.84375 C 1.21875 -2.84375 1.5 -2.890625 1.5 -3.328125 C 1.75 -3.34375 1.90625 -3.34375 1.984375 -3.34375 C 2.6875 -3.34375 3.109375 -3.046875 3.109375 -2.5 C 1.609375 -2.484375 0.4375 -2.0625 0.4375 -1.1875 C 0.4375 -0.515625 1.046875 0.046875 1.921875 0.046875 C 2.015625 0.046875 2.703125 0.046875 3.1875 -0.296875 C 3.40625 0 3.890625 0 4.1875 0 C 4.4375 0 4.640625 0 4.640625 -0.296875 Z M 3.109375 -1.265625 C 3.109375 -1.0625 3.109375 -0.875 2.75 -0.6875 C 2.421875 -0.53125 2.015625 -0.53125 1.984375 -0.53125 C 1.453125 -0.53125 1.09375 -0.828125 1.09375 -1.1875 C 1.09375 -1.625 2 -1.9375 3.109375 -1.9375 Z M 3.109375 -1.265625 "/>
</g>
<g id="glyph-2-2">
<path d="M 4.546875 -0.28125 C 4.546875 -0.578125 4.3125 -0.578125 4.15625 -0.578125 L 3.890625 -0.578125 L 2.59375 -2.28125 L 3.65625 -3.28125 L 3.96875 -3.28125 C 4.09375 -3.28125 4.34375 -3.28125 4.34375 -3.5625 C 4.34375 -3.859375 4.109375 -3.859375 3.96875 -3.859375 L 2.5625 -3.859375 C 2.4375 -3.859375 2.1875 -3.859375 2.1875 -3.578125 C 2.1875 -3.28125 2.421875 -3.28125 2.5625 -3.28125 L 2.859375 -3.28125 L 1.5 -2 L 1.5 -5.09375 C 1.5 -5.390625 1.4375 -5.46875 1.125 -5.46875 L 0.53125 -5.46875 C 0.40625 -5.46875 0.15625 -5.46875 0.15625 -5.1875 C 0.15625 -4.890625 0.40625 -4.890625 0.53125 -4.890625 L 0.96875 -4.890625 L 0.96875 -0.578125 L 0.53125 -0.578125 C 0.40625 -0.578125 0.15625 -0.578125 0.15625 -0.296875 C 0.15625 0 0.40625 0 0.53125 0 L 1.9375 0 C 2.0625 0 2.3125 0 2.3125 -0.28125 C 2.3125 -0.578125 2.0625 -0.578125 1.9375 -0.578125 L 1.5 -0.578125 L 1.5 -1.25 L 2.1875 -1.90625 L 3.203125 -0.578125 C 2.921875 -0.578125 2.703125 -0.578125 2.703125 -0.28125 C 2.703125 0 2.96875 0 3.09375 0 L 4.15625 0 C 4.296875 0 4.546875 0 4.546875 -0.28125 Z M 4.546875 -0.28125 "/>
</g>
<g id="glyph-2-3">
<path d="M 4.15625 -0.96875 C 4.15625 -1.15625 4.015625 -1.25 3.828125 -1.25 C 3.703125 -1.25 3.578125 -1.25 3.5 -1.046875 C 3.28125 -0.53125 2.71875 -0.53125 2.609375 -0.53125 C 2.09375 -0.53125 1.34375 -0.84375 1.15625 -1.6875 L 3.78125 -1.6875 C 3.953125 -1.6875 4.15625 -1.6875 4.15625 -2.03125 C 4.15625 -3.078125 3.578125 -3.9375 2.421875 -3.9375 C 1.328125 -3.9375 0.46875 -3.015625 0.46875 -1.953125 C 0.46875 -0.84375 1.40625 0.046875 2.546875 0.046875 C 3.75 0.046875 4.15625 -0.765625 4.15625 -0.96875 Z M 3.46875 -2.265625 L 1.171875 -2.265625 C 1.34375 -3 1.90625 -3.34375 2.421875 -3.34375 C 3.046875 -3.34375 3.40625 -2.9375 3.46875 -2.265625 Z M 3.46875 -2.265625 "/>
</g>
<g id="glyph-2-4">
<path d="M 4.46875 -3.5625 C 4.46875 -3.859375 4.234375 -3.859375 4.09375 -3.859375 L 3.03125 -3.859375 C 2.90625 -3.859375 2.65625 -3.859375 2.65625 -3.578125 C 2.65625 -3.28125 2.90625 -3.28125 3.03125 -3.28125 L 3.265625 -3.28125 L 2.34375 -0.484375 L 1.421875 -3.28125 L 1.65625 -3.28125 C 1.78125 -3.28125 2.046875 -3.28125 2.046875 -3.5625 C 2.046875 -3.859375 1.796875 -3.859375 1.65625 -3.859375 L 0.59375 -3.859375 C 0.46875 -3.859375 0.21875 -3.859375 0.21875 -3.578125 C 0.21875 -3.28125 0.453125 -3.28125 0.59375 -3.28125 L 0.859375 -3.28125 L 1.84375 -0.28125 C 1.953125 0.046875 2.15625 0.046875 2.34375 0.046875 C 2.515625 0.046875 2.734375 0.046875 2.84375 -0.28125 L 3.828125 -3.28125 L 4.09375 -3.28125 C 4.21875 -3.28125 4.46875 -3.28125 4.46875 -3.5625 Z M 4.46875 -3.5625 "/>
</g>
<g id="glyph-2-5">
<path d="M 4.21875 -0.28125 C 4.21875 -0.578125 3.984375 -0.578125 3.84375 -0.578125 L 2.671875 -0.578125 L 2.671875 -5.09375 C 2.671875 -5.390625 2.609375 -5.46875 2.296875 -5.46875 L 0.84375 -5.46875 C 0.71875 -5.46875 0.46875 -5.46875 0.46875 -5.1875 C 0.46875 -4.890625 0.703125 -4.890625 0.84375 -4.890625 L 2.015625 -4.890625 L 2.015625 -0.578125 L 0.84375 -0.578125 C 0.71875 -0.578125 0.46875 -0.578125 0.46875 -0.296875 C 0.46875 0 0.703125 0 0.84375 0 L 3.84375 0 C 3.96875 0 4.21875 0 4.21875 -0.28125 Z M 4.21875 -0.28125 "/>
</g>
<g id="glyph-2-6">
<path d="M 4.125 -0.28125 C 4.125 -0.578125 3.875 -0.578125 3.734375 -0.578125 L 2.796875 -0.578125 L 2.796875 -3.484375 C 2.796875 -3.78125 2.71875 -3.859375 2.421875 -3.859375 L 1.125 -3.859375 C 0.984375 -3.859375 0.734375 -3.859375 0.734375 -3.578125 C 0.734375 -3.28125 0.96875 -3.28125 1.125 -3.28125 L 2.125 -3.28125 L 2.125 -0.578125 L 1.03125 -0.578125 C 0.90625 -0.578125 0.65625 -0.578125 0.65625 -0.296875 C 0.65625 0 0.90625 0 1.03125 0 L 3.734375 0 C 3.859375 0 4.125 0 4.125 -0.28125 Z M 2.8125 -4.984375 C 2.8125 -5.234375 2.609375 -5.4375 2.359375 -5.4375 C 2.109375 -5.4375 1.890625 -5.234375 1.890625 -4.984375 C 1.890625 -4.734375 2.109375 -4.515625 2.359375 -4.515625 C 2.609375 -4.515625 2.8125 -4.734375 2.8125 -4.984375 Z M 2.8125 -4.984375 "/>
</g>
<g id="glyph-2-7">
<path d="M 4.625 -0.28125 C 4.625 -0.578125 4.375 -0.578125 4.25 -0.578125 L 3.84375 -0.578125 L 3.84375 -5.09375 C 3.84375 -5.390625 3.78125 -5.46875 3.46875 -5.46875 L 2.796875 -5.46875 C 2.671875 -5.46875 2.421875 -5.46875 2.421875 -5.1875 C 2.421875 -4.890625 2.65625 -4.890625 2.796875 -4.890625 L 3.1875 -4.890625 L 3.1875 -3.53125 C 2.984375 -3.703125 2.625 -3.90625 2.15625 -3.90625 C 1.15625 -3.90625 0.296875 -3.046875 0.296875 -1.921875 C 0.296875 -0.828125 1.109375 0.046875 2.078125 0.046875 C 2.484375 0.046875 2.859375 -0.109375 3.1875 -0.4375 C 3.1875 -0.15625 3.1875 0 3.5625 0 L 4.25 0 C 4.375 0 4.625 0 4.625 -0.28125 Z M 3.1875 -1.75 C 3.1875 -1.265625 2.78125 -0.53125 2.109375 -0.53125 C 1.5 -0.53125 0.96875 -1.140625 0.96875 -1.921875 C 0.96875 -2.71875 1.546875 -3.328125 2.203125 -3.328125 C 2.734375 -3.328125 3.1875 -2.859375 3.1875 -2.375 Z M 3.1875 -1.75 "/>
</g>
<g id="glyph-2-8">
<path d="M 4.015625 -1.15625 C 4.015625 -1.46875 3.78125 -1.46875 3.6875 -1.46875 C 3.546875 -1.46875 3.359375 -1.453125 3.359375 -1.15625 C 3.34375 -0.734375 2.984375 -0.53125 2.671875 -0.53125 C 2.015625 -0.53125 2.015625 -1.015625 2.015625 -1.234375 L 2.015625 -3.28125 L 3.4375 -3.28125 C 3.5625 -3.28125 3.8125 -3.28125 3.8125 -3.5625 C 3.8125 -3.859375 3.578125 -3.859375 3.4375 -3.859375 L 2.015625 -3.859375 L 2.015625 -4.578125 C 2.015625 -4.75 2.015625 -4.953125 1.6875 -4.953125 C 1.359375 -4.953125 1.359375 -4.75 1.359375 -4.578125 L 1.359375 -3.859375 L 0.609375 -3.859375 C 0.46875 -3.859375 0.21875 -3.859375 0.21875 -3.5625 C 0.21875 -3.28125 0.46875 -3.28125 0.59375 -3.28125 L 1.359375 -3.28125 L 1.359375 -1.203125 C 1.359375 -0.265625 2 0.046875 2.625 0.046875 C 3.40625 0.046875 4.015625 -0.5 4.015625 -1.15625 Z M 4.015625 -1.15625 "/>
</g>
<g id="glyph-3-0">
<path d="M 7.625 -2.046875 C 6.546875 -1.296875 6.34375 -0.109375 6.34375 -0.015625 C 6.34375 0.109375 6.453125 0.109375 6.53125 0.109375 C 6.640625 0.109375 6.703125 0.109375 6.71875 -0.015625 C 6.96875 -1.0625 7.578125 -1.765625 8.5625 -2.125 C 8.609375 -2.140625 8.6875 -2.171875 8.6875 -2.234375 C 8.6875 -2.3125 8.625 -2.34375 8.5625 -2.359375 C 7.4375 -2.78125 6.9375 -3.578125 6.71875 -4.453125 C 6.703125 -4.578125 6.65625 -4.59375 6.53125 -4.59375 C 6.453125 -4.59375 6.34375 -4.59375 6.34375 -4.46875 C 6.34375 -4.375 6.546875 -3.1875 7.625 -2.4375 L 0.84375 -2.4375 C 0.6875 -2.4375 0.515625 -2.4375 0.515625 -2.25 C 0.515625 -2.046875 0.6875 -2.046875 0.84375 -2.046875 Z M 7.625 -2.046875 "/>
</g>
<g id="glyph-4-0">
<path d="M 4.5 -1.140625 C 4.5 -1.234375 4.375 -1.234375 4.34375 -1.234375 C 4.203125 -1.234375 4.203125 -1.21875 4.15625 -1.015625 C 4.015625 -0.40625 3.84375 -0.140625 3.625 -0.140625 C 3.40625 -0.140625 3.40625 -0.390625 3.40625 -0.5 C 3.40625 -0.546875 3.40625 -0.625 3.421875 -0.71875 L 3.984375 -2.96875 C 4 -3 4.015625 -3.09375 4.015625 -3.140625 C 4.015625 -3.265625 3.90625 -3.359375 3.78125 -3.359375 C 3.671875 -3.359375 3.484375 -3.28125 3.453125 -3.0625 C 3.28125 -3.34375 3.046875 -3.5 2.71875 -3.5 C 1.78125 -3.5 0.8125 -2.328125 0.8125 -1.1875 C 0.8125 -0.421875 1.265625 0.078125 1.875 0.078125 C 2.34375 0.078125 2.734375 -0.265625 2.890625 -0.46875 C 2.96875 -0.171875 3.234375 0.078125 3.609375 0.078125 C 3.890625 0.078125 4.09375 -0.09375 4.21875 -0.34375 C 4.390625 -0.65625 4.5 -1.140625 4.5 -1.140625 Z M 2.953125 -1.0625 C 2.890625 -0.78125 2.359375 -0.140625 1.890625 -0.140625 C 1.515625 -0.140625 1.40625 -0.546875 1.40625 -0.859375 C 1.40625 -1.234375 1.625 -2.171875 1.828125 -2.546875 C 2.140625 -3.125 2.5 -3.28125 2.71875 -3.28125 C 3.21875 -3.28125 3.3125 -2.609375 3.3125 -2.53125 L 3.28125 -2.421875 Z M 2.953125 -1.0625 "/>
</g>
<g id="glyph-4-1">
<path d="M 4.0625 -2.96875 C 4.078125 -3 4.09375 -3.09375 4.09375 -3.140625 C 4.09375 -3.265625 4 -3.359375 3.859375 -3.359375 C 3.703125 -3.359375 3.5625 -3.234375 3.515625 -3.078125 C 3.4375 -3.234375 3.21875 -3.5 2.796875 -3.5 C 1.875 -3.5 0.921875 -2.390625 0.921875 -1.25 C 0.921875 -0.46875 1.40625 0 1.96875 0 C 2.265625 0 2.5625 -0.140625 2.859375 -0.390625 L 2.703125 0.265625 C 2.609375 0.609375 2.5625 0.796875 2.328125 1.046875 C 2 1.40625 1.640625 1.40625 1.5 1.40625 C 1.390625 1.40625 1.171875 1.40625 0.96875 1.34375 C 1.140625 1.21875 1.15625 1 1.15625 1 C 1.15625 0.84375 1.046875 0.734375 0.875 0.734375 C 0.671875 0.734375 0.484375 0.90625 0.484375 1.15625 C 0.484375 1.578125 1 1.625 1.484375 1.625 C 2.5 1.625 3.0625 1.046875 3.1875 0.53125 Z M 3.046875 -1.125 C 2.96875 -0.828125 2.453125 -0.21875 1.984375 -0.21875 C 1.640625 -0.21875 1.5 -0.578125 1.5 -0.9375 C 1.5 -1.28125 1.703125 -2.125 1.875 -2.5 C 2.125 -3 2.5 -3.28125 2.796875 -3.28125 C 3.296875 -3.28125 3.390625 -2.640625 3.390625 -2.546875 C 3.390625 -2.515625 3.390625 -2.5 3.375 -2.4375 Z M 3.046875 -1.125 "/>
</g>
<g id="glyph-4-2">
<path d="M 4 -0.796875 C 4 -0.859375 3.890625 -0.96875 3.828125 -0.96875 C 3.78125 -0.96875 3.78125 -0.953125 3.703125 -0.859375 C 3.28125 -0.34375 2.640625 -0.140625 2.21875 -0.140625 C 1.65625 -0.140625 1.53125 -0.6875 1.53125 -1.046875 C 1.53125 -1.234375 1.59375 -1.578125 1.640625 -1.8125 L 2.09375 -1.8125 C 2.421875 -1.8125 3.90625 -1.8125 3.90625 -2.8125 C 3.90625 -3.21875 3.5625 -3.5 3.015625 -3.5 C 2.15625 -3.5 0.953125 -2.765625 0.953125 -1.359375 C 0.953125 -0.625 1.359375 0.078125 2.203125 0.078125 C 3.34375 0.078125 4 -0.6875 4 -0.796875 Z M 3.5625 -2.8125 C 3.5625 -2.03125 2.328125 -2.03125 2.03125 -2.03125 L 1.703125 -2.03125 C 1.96875 -3.015625 2.671875 -3.28125 3.015625 -3.28125 C 3.296875 -3.28125 3.5625 -3.140625 3.5625 -2.8125 Z M 3.5625 -2.8125 "/>
</g>
<g id="glyph-4-3">
<path d="M 5 -1.140625 C 5 -1.234375 4.890625 -1.234375 4.84375 -1.234375 C 4.71875 -1.234375 4.71875 -1.203125 4.671875 -1.078125 C 4.53125 -0.5625 4.265625 -0.140625 3.921875 -0.140625 C 3.78125 -0.140625 3.75 -0.25 3.75 -0.390625 C 3.75 -0.578125 3.8125 -0.75 3.875 -0.90625 C 4.03125 -1.328125 4.359375 -2.1875 4.359375 -2.640625 C 4.359375 -3.328125 3.890625 -3.5 3.453125 -3.5 C 2.78125 -3.5 2.40625 -3.046875 2.25 -2.875 C 2.203125 -3.234375 1.90625 -3.5 1.515625 -3.5 C 1.25 -3.5 1.0625 -3.359375 0.90625 -3.078125 C 0.75 -2.8125 0.640625 -2.328125 0.640625 -2.296875 C 0.640625 -2.1875 0.734375 -2.1875 0.78125 -2.1875 C 0.921875 -2.1875 0.921875 -2.21875 0.96875 -2.40625 C 1.09375 -2.875 1.234375 -3.28125 1.5 -3.28125 C 1.71875 -3.28125 1.71875 -3 1.71875 -2.9375 C 1.71875 -2.828125 1.703125 -2.703125 1.671875 -2.578125 L 1.09375 -0.265625 C 1.078125 -0.1875 1.078125 -0.171875 1.078125 -0.140625 C 1.078125 -0.015625 1.171875 0.078125 1.3125 0.078125 C 1.5625 0.078125 1.609375 -0.109375 1.6875 -0.40625 L 1.859375 -1.09375 C 1.90625 -1.265625 1.90625 -1.28125 1.984375 -1.609375 L 2.109375 -2.125 C 2.15625 -2.265625 2.40625 -2.734375 2.640625 -2.953125 C 2.890625 -3.171875 3.15625 -3.28125 3.421875 -3.28125 C 3.734375 -3.28125 3.828125 -3.0625 3.828125 -2.765625 C 3.828125 -2.296875 3.5 -1.390625 3.34375 -1 C 3.296875 -0.84375 3.25 -0.71875 3.25 -0.578125 C 3.25 -0.21875 3.5 0.078125 3.90625 0.078125 C 4.671875 0.078125 5 -1.03125 5 -1.140625 Z M 5 -1.140625 "/>
</g>
<g id="glyph-4-4">
<path d="M 3.03125 -1.140625 C 3.03125 -1.234375 2.921875 -1.234375 2.890625 -1.234375 C 2.78125 -1.234375 2.765625 -1.21875 2.734375 -1.109375 C 2.375 -0.296875 2 -0.140625 1.75 -0.140625 C 1.5625 -0.140625 1.53125 -0.3125 1.53125 -0.5 C 1.53125 -0.546875 1.53125 -0.625 1.546875 -0.71875 L 2.15625 -3.171875 L 2.875 -3.171875 C 3.015625 -3.171875 3.109375 -3.171875 3.109375 -3.3125 C 3.109375 -3.421875 3.015625 -3.421875 2.890625 -3.421875 L 2.21875 -3.421875 L 2.5 -4.578125 C 2.53125 -4.6875 2.53125 -4.703125 2.53125 -4.75 C 2.53125 -4.9375 2.375 -4.96875 2.3125 -4.96875 C 2.046875 -4.96875 1.984375 -4.734375 1.96875 -4.65625 L 1.65625 -3.421875 L 0.953125 -3.421875 C 0.796875 -3.421875 0.703125 -3.421875 0.703125 -3.28125 C 0.703125 -3.171875 0.8125 -3.171875 0.9375 -3.171875 L 1.59375 -3.171875 L 1.046875 -0.9375 C 1 -0.78125 1 -0.734375 1 -0.65625 C 1 -0.1875 1.359375 0.078125 1.734375 0.078125 C 2.578125 0.078125 3.03125 -1.03125 3.03125 -1.140625 Z M 3.03125 -1.140625 "/>
</g>
<g id="glyph-4-5">
<path d="M 2.390625 -1.140625 C 2.390625 -1.234375 2.28125 -1.234375 2.234375 -1.234375 C 2.109375 -1.234375 2.09375 -1.203125 2.0625 -1.078125 C 1.953125 -0.671875 1.828125 -0.140625 1.53125 -0.140625 C 1.3125 -0.140625 1.3125 -0.390625 1.3125 -0.5 C 1.3125 -0.546875 1.3125 -0.625 1.34375 -0.71875 L 2.46875 -5.28125 C 2.484375 -5.328125 2.5 -5.375 2.5 -5.40625 C 2.5 -5.53125 2.375 -5.515625 2.28125 -5.515625 L 1.453125 -5.4375 C 1.34375 -5.4375 1.25 -5.421875 1.25 -5.28125 C 1.25 -5.171875 1.359375 -5.171875 1.46875 -5.171875 C 1.84375 -5.171875 1.84375 -5.125 1.84375 -5.046875 C 1.84375 -5.015625 1.828125 -4.921875 1.8125 -4.875 L 0.828125 -0.9375 C 0.78125 -0.78125 0.78125 -0.734375 0.78125 -0.65625 C 0.78125 -0.171875 1.15625 0.078125 1.515625 0.078125 C 1.6875 0.078125 1.9375 0.03125 2.125 -0.359375 C 2.28125 -0.640625 2.390625 -1.109375 2.390625 -1.140625 Z M 2.390625 -1.140625 "/>
</g>
<g id="glyph-4-6">
<path d="M 4.296875 -2.15625 C 4.296875 -2.984375 3.734375 -3.5 3.015625 -3.5 C 2 -3.5 0.921875 -2.4375 0.921875 -1.265625 C 0.921875 -0.390625 1.515625 0.078125 2.171875 0.078125 C 3.234375 0.078125 4.296875 -1.015625 4.296875 -2.15625 Z M 3.703125 -2.4375 C 3.703125 -2.1875 3.578125 -1.421875 3.25 -0.875 C 3 -0.4375 2.5625 -0.140625 2.1875 -0.140625 C 1.890625 -0.140625 1.515625 -0.34375 1.515625 -0.984375 C 1.515625 -1.34375 1.671875 -2.09375 1.9375 -2.53125 C 2.28125 -3.109375 2.75 -3.28125 3.015625 -3.28125 C 3.390625 -3.28125 3.703125 -3 3.703125 -2.4375 Z M 3.703125 -2.4375 "/>
</g>
<g id="glyph-4-7">
<path d="M 4.296875 -2.234375 C 4.296875 -3.09375 3.78125 -3.5 3.25 -3.5 C 2.8125 -3.5 2.4375 -3.1875 2.234375 -2.96875 C 2.125 -3.34375 1.8125 -3.5 1.515625 -3.5 C 1.25 -3.5 1.0625 -3.359375 0.90625 -3.078125 C 0.75 -2.8125 0.640625 -2.328125 0.640625 -2.296875 C 0.640625 -2.1875 0.734375 -2.1875 0.78125 -2.1875 C 0.921875 -2.1875 0.921875 -2.21875 0.96875 -2.40625 C 1.09375 -2.875 1.234375 -3.28125 1.5 -3.28125 C 1.71875 -3.28125 1.71875 -3 1.71875 -2.9375 C 1.71875 -2.8125 1.703125 -2.765625 1.703125 -2.71875 L 0.78125 0.984375 C 0.71875 1.234375 0.671875 1.28125 0.375 1.28125 C 0.28125 1.28125 0.1875 1.28125 0.1875 1.4375 C 0.1875 1.46875 0.203125 1.546875 0.296875 1.546875 C 0.359375 1.546875 0.40625 1.515625 0.984375 1.515625 C 1.546875 1.515625 1.671875 1.546875 1.734375 1.546875 C 1.78125 1.546875 1.890625 1.546875 1.890625 1.390625 C 1.890625 1.28125 1.796875 1.28125 1.6875 1.28125 C 1.46875 1.28125 1.296875 1.28125 1.296875 1.171875 C 1.296875 1.125 1.359375 0.921875 1.390625 0.78125 L 1.671875 -0.359375 C 1.859375 -0.0625 2.109375 0.078125 2.40625 0.078125 C 3.3125 0.078125 4.296875 -1.03125 4.296875 -2.234375 Z M 3.328125 -0.953125 C 3.078125 -0.421875 2.703125 -0.140625 2.40625 -0.140625 C 1.890625 -0.140625 1.8125 -0.84375 1.8125 -0.90625 C 1.8125 -0.921875 1.828125 -0.96875 1.84375 -1 L 2.171875 -2.359375 C 2.21875 -2.5 2.21875 -2.515625 2.328125 -2.671875 C 2.6875 -3.140625 3.015625 -3.28125 3.234375 -3.28125 C 3.46875 -3.28125 3.71875 -3.09375 3.71875 -2.546875 C 3.71875 -2.125 3.484375 -1.28125 3.328125 -0.953125 Z M 3.328125 -0.953125 "/>
</g>
<g id="glyph-4-8">
<path d="M 2.34375 1.890625 C 2.34375 1.859375 2.34375 1.859375 2.28125 1.78125 C 1.9375 1.296875 1.703125 0.671875 1.703125 -0.21875 C 1.703125 -1.484375 2.28125 -4.21875 4.125 -5.6875 C 4.25 -5.796875 4.265625 -5.8125 4.265625 -5.828125 C 4.28125 -5.828125 4.28125 -5.875 4.28125 -5.875 C 4.28125 -5.9375 4.234375 -5.96875 4.171875 -5.96875 C 4.09375 -5.96875 2.984375 -5.25 2.21875 -3.890625 C 1.453125 -2.546875 1.265625 -1.21875 1.265625 -0.484375 C 1.265625 0.09375 1.375 0.59375 1.515625 0.96875 C 1.71875 1.5 2.109375 1.984375 2.234375 1.984375 C 2.296875 1.984375 2.34375 1.96875 2.34375 1.890625 Z M 2.34375 1.890625 "/>
</g>
<g id="glyph-4-9">
<path d="M 4.578125 -1.140625 C 4.578125 -1.234375 4.46875 -1.234375 4.421875 -1.234375 C 4.296875 -1.234375 4.28125 -1.203125 4.25 -1.078125 C 4.109375 -0.5625 3.84375 -0.140625 3.5 -0.140625 C 3.34375 -0.140625 3.328125 -0.25 3.328125 -0.390625 C 3.328125 -0.578125 3.390625 -0.75 3.4375 -0.90625 C 3.609375 -1.328125 3.921875 -2.1875 3.921875 -2.640625 C 3.921875 -3.328125 3.453125 -3.5 3.015625 -3.5 C 2.4375 -3.5 2.078125 -3.171875 1.890625 -2.96875 L 2.46875 -5.28125 C 2.484375 -5.328125 2.5 -5.375 2.5 -5.40625 C 2.5 -5.53125 2.375 -5.515625 2.28125 -5.515625 L 1.453125 -5.4375 C 1.34375 -5.4375 1.25 -5.421875 1.25 -5.28125 C 1.25 -5.171875 1.359375 -5.171875 1.46875 -5.171875 C 1.84375 -5.171875 1.84375 -5.125 1.84375 -5.046875 C 1.84375 -5.015625 1.828125 -4.921875 1.8125 -4.875 L 0.65625 -0.265625 C 0.65625 -0.234375 0.640625 -0.1875 0.640625 -0.15625 C 0.640625 -0.046875 0.71875 0.078125 0.875 0.078125 C 1.015625 0.078125 1.125 -0.015625 1.171875 -0.125 C 1.1875 -0.15625 1.390625 -0.984375 1.53125 -1.546875 C 1.578125 -1.71875 1.625 -1.890625 1.65625 -2.0625 C 1.703125 -2.25 2.140625 -3.28125 3 -3.28125 C 3.328125 -3.28125 3.40625 -3.03125 3.40625 -2.765625 C 3.40625 -2.296875 3.0625 -1.40625 2.921875 -1 C 2.859375 -0.84375 2.8125 -0.71875 2.8125 -0.578125 C 2.8125 -0.21875 3.078125 0.078125 3.484375 0.078125 C 4.234375 0.078125 4.578125 -1.03125 4.578125 -1.140625 Z M 4.578125 -1.140625 "/>
</g>
<g id="glyph-4-10">
<path d="M 4.78125 -1.140625 C 4.78125 -1.234375 4.671875 -1.234375 4.640625 -1.234375 C 4.5 -1.234375 4.5 -1.21875 4.453125 -1.015625 C 4.296875 -0.40625 4.140625 -0.140625 3.921875 -0.140625 C 3.703125 -0.140625 3.703125 -0.390625 3.703125 -0.5 C 3.703125 -0.546875 3.703125 -0.625 3.71875 -0.71875 L 4.296875 -3.046875 C 4.328125 -3.15625 4.328125 -3.171875 4.328125 -3.203125 C 4.328125 -3.34375 4.21875 -3.421875 4.09375 -3.421875 C 3.828125 -3.421875 3.765625 -3.1875 3.75 -3.109375 L 3.21875 -0.921875 C 3.171875 -0.765625 2.84375 -0.140625 2.3125 -0.140625 C 1.84375 -0.140625 1.84375 -0.625 1.84375 -0.765625 C 1.84375 -1.203125 2.03125 -1.75 2.296875 -2.453125 C 2.359375 -2.609375 2.390625 -2.6875 2.390625 -2.84375 C 2.390625 -3.28125 2.0625 -3.5 1.71875 -3.5 C 0.96875 -3.5 0.640625 -2.390625 0.640625 -2.296875 C 0.640625 -2.1875 0.734375 -2.1875 0.78125 -2.1875 C 0.921875 -2.1875 0.921875 -2.21875 0.953125 -2.359375 C 1.09375 -2.84375 1.359375 -3.28125 1.703125 -3.28125 C 1.859375 -3.28125 1.890625 -3.1875 1.890625 -3.03125 C 1.890625 -2.859375 1.828125 -2.6875 1.75 -2.5 C 1.53125 -1.890625 1.296875 -1.3125 1.296875 -0.875 C 1.296875 -0.15625 1.828125 0.078125 2.28125 0.078125 C 2.453125 0.078125 2.8125 0.0625 3.21875 -0.40625 C 3.328125 -0.015625 3.703125 0.078125 3.90625 0.078125 C 4.1875 0.078125 4.375 -0.09375 4.515625 -0.34375 C 4.6875 -0.65625 4.78125 -1.140625 4.78125 -1.140625 Z M 4.78125 -1.140625 "/>
</g>
<g id="glyph-4-11">
<path d="M 7.1875 -1.140625 C 7.1875 -1.234375 7.078125 -1.234375 7.03125 -1.234375 C 6.90625 -1.234375 6.90625 -1.203125 6.859375 -1.078125 C 6.71875 -0.5625 6.453125 -0.140625 6.109375 -0.140625 C 5.96875 -0.140625 5.9375 -0.25 5.9375 -0.390625 C 5.9375 -0.578125 6 -0.75 6.0625 -0.90625 C 6.21875 -1.328125 6.546875 -2.1875 6.546875 -2.640625 C 6.546875 -3.328125 6.0625 -3.5 5.640625 -3.5 C 5.078125 -3.5 4.671875 -3.203125 4.359375 -2.796875 C 4.296875 -3.359375 3.84375 -3.5 3.46875 -3.5 C 2.78125 -3.5 2.40625 -3.046875 2.25 -2.875 C 2.203125 -3.234375 1.90625 -3.5 1.515625 -3.5 C 1.25 -3.5 1.0625 -3.359375 0.90625 -3.078125 C 0.75 -2.8125 0.640625 -2.328125 0.640625 -2.296875 C 0.640625 -2.1875 0.734375 -2.1875 0.78125 -2.1875 C 0.921875 -2.1875 0.921875 -2.21875 0.96875 -2.40625 C 1.09375 -2.875 1.234375 -3.28125 1.5 -3.28125 C 1.71875 -3.28125 1.71875 -3 1.71875 -2.9375 C 1.71875 -2.828125 1.703125 -2.703125 1.671875 -2.578125 L 1.09375 -0.265625 C 1.078125 -0.1875 1.078125 -0.171875 1.078125 -0.140625 C 1.078125 -0.015625 1.171875 0.078125 1.3125 0.078125 C 1.5625 0.078125 1.609375 -0.109375 1.6875 -0.40625 L 1.859375 -1.09375 L 2.125 -2.171875 C 2.125 -2.171875 2.5625 -3.28125 3.4375 -3.28125 C 3.734375 -3.28125 3.84375 -3.078125 3.84375 -2.765625 C 3.84375 -2.703125 3.84375 -2.546875 3.78125 -2.3125 L 3.28125 -0.3125 C 3.28125 -0.265625 3.25 -0.1875 3.25 -0.140625 C 3.25 -0.015625 3.359375 0.078125 3.484375 0.078125 C 3.75 0.078125 3.796875 -0.109375 3.859375 -0.40625 L 4.046875 -1.09375 C 4.078125 -1.265625 4.078125 -1.28125 4.171875 -1.609375 L 4.296875 -2.125 C 4.3125 -2.203125 4.53125 -2.703125 4.890625 -3 C 5.03125 -3.125 5.28125 -3.28125 5.609375 -3.28125 C 5.9375 -3.28125 6.015625 -3.03125 6.015625 -2.765625 C 6.015625 -2.296875 5.6875 -1.40625 5.53125 -1 C 5.484375 -0.84375 5.4375 -0.71875 5.4375 -0.578125 C 5.4375 -0.21875 5.6875 0.078125 6.09375 0.078125 C 6.859375 0.078125 7.1875 -1.03125 7.1875 -1.140625 Z M 7.1875 -1.140625 "/>
</g>
<g id="glyph-4-12">
<path d="M 4.09375 -2.953125 C 4.09375 -3.421875 3.515625 -3.5 3.25 -3.5 C 2.796875 -3.5 2.453125 -3.25 2.234375 -2.953125 C 2.15625 -3.265625 1.90625 -3.5 1.515625 -3.5 C 1.25 -3.5 1.0625 -3.359375 0.90625 -3.078125 C 0.75 -2.8125 0.640625 -2.328125 0.640625 -2.296875 C 0.640625 -2.1875 0.734375 -2.1875 0.78125 -2.1875 C 0.921875 -2.1875 0.921875 -2.21875 0.96875 -2.40625 C 1.09375 -2.875 1.234375 -3.28125 1.5 -3.28125 C 1.71875 -3.28125 1.71875 -3 1.71875 -2.9375 C 1.71875 -2.828125 1.703125 -2.703125 1.671875 -2.578125 L 1.09375 -0.265625 C 1.078125 -0.1875 1.078125 -0.171875 1.078125 -0.140625 C 1.078125 -0.015625 1.171875 0.078125 1.3125 0.078125 C 1.53125 0.078125 1.609375 -0.109375 1.640625 -0.234375 L 2.125 -2.171875 C 2.15625 -2.296875 2.53125 -3.28125 3.25 -3.28125 C 3.3125 -3.28125 3.546875 -3.28125 3.6875 -3.15625 C 3.4375 -3.0625 3.421875 -2.859375 3.421875 -2.796875 C 3.421875 -2.5625 3.59375 -2.515625 3.703125 -2.515625 C 3.84375 -2.515625 4.09375 -2.625 4.09375 -2.953125 Z M 4.09375 -2.953125 "/>
</g>
<g id="glyph-4-13">
<path d="M 3.328125 -1.234375 C 3.328125 -1.953125 2.625 -2.09375 2.375 -2.140625 C 2.015625 -2.21875 1.75 -2.28125 1.75 -2.59375 C 1.75 -2.828125 1.953125 -3.28125 2.5625 -3.28125 C 2.828125 -3.28125 3.09375 -3.203125 3.1875 -2.953125 C 2.90625 -2.875 2.90625 -2.625 2.90625 -2.625 C 2.90625 -2.484375 3.015625 -2.390625 3.15625 -2.390625 C 3.1875 -2.390625 3.5 -2.390625 3.5 -2.828125 C 3.5 -3.296875 3.03125 -3.5 2.578125 -3.5 C 1.515625 -3.5 1.25 -2.640625 1.25 -2.34375 C 1.25 -2.125 1.34375 -1.90625 1.515625 -1.78125 C 1.6875 -1.625 1.78125 -1.609375 2.25 -1.5 C 2.421875 -1.46875 2.84375 -1.390625 2.84375 -0.984375 C 2.84375 -0.734375 2.625 -0.140625 1.75 -0.140625 C 1.59375 -0.140625 1.125 -0.171875 0.953125 -0.53125 C 1.3125 -0.59375 1.3125 -0.90625 1.3125 -0.921875 C 1.3125 -1.078125 1.203125 -1.1875 1.03125 -1.1875 C 0.8125 -1.1875 0.625 -1.03125 0.625 -0.6875 C 0.625 -0.25 1.0625 0.078125 1.75 0.078125 C 3 0.078125 3.328125 -0.859375 3.328125 -1.234375 Z M 3.328125 -1.234375 "/>
</g>
<g id="glyph-4-14">
<path d="M 3.203125 -3.5 C 3.203125 -4.0625 3.109375 -4.578125 2.953125 -4.953125 C 2.75 -5.484375 2.359375 -5.96875 2.234375 -5.96875 C 2.15625 -5.96875 2.125 -5.9375 2.125 -5.875 C 2.125 -5.828125 2.125 -5.828125 2.15625 -5.78125 C 2.359375 -5.515625 2.765625 -4.953125 2.765625 -3.765625 C 2.765625 -2.5 2.1875 0.234375 0.34375 1.71875 L 0.203125 1.84375 C 0.1875 1.859375 0.1875 1.890625 0.1875 1.890625 C 0.1875 1.953125 0.21875 1.984375 0.296875 1.984375 C 0.375 1.984375 1.484375 1.28125 2.25 -0.09375 C 3.015625 -1.4375 3.203125 -2.765625 3.203125 -3.5 Z M 3.203125 -3.5 "/>
</g>
</g>
<clipPath id="clip-0">
<path clip-rule="nonzero" d="M 203 94 L 326.644531 94 L 326.644531 152 L 203 152 Z M 203 94 "/>
</clipPath>
<clipPath id="clip-1">
<path clip-rule="nonzero" d="M 101 185 L 225 185 L 225 242.082031 L 101 242.082031 Z M 101 185 "/>
</clipPath>
<clipPath id="clip-2">
<path clip-rule="nonzero" d="M 0.292969 95 L 124 95 L 124 151 L 0.292969 151 Z M 0.292969 95 "/>
</clipPath>
</defs>
<path fill-rule="nonzero" fill="rgb(87.841797%, 94.900513%, 94.509888%)" fill-opacity="1" stroke-width="0.59776" stroke-linecap="butt" stroke-linejoin="miter" stroke="rgb(0%, 53.72467%, 48.234558%)" stroke-opacity="1" stroke-miterlimit="10" d="M 51.179906 115.128973 L -51.17792 115.128973 C -52.277658 115.128973 -53.169973 114.236659 -53.169973 113.136921 L -53.169973 68.28248 C -53.169973 67.182742 -52.277658 66.290428 -51.17792 66.290428 L 51.179906 66.290428 C 52.279644 66.290428 53.171958 67.182742 53.171958 68.28248 L 53.171958 113.136921 C 53.171958 114.236659 52.279644 115.128973 51.179906 115.128973 Z M 51.179906 115.128973 " transform="matrix(0.998107, 0, 0, -0.998107, 163.471665, 123.161033)"/>
<g fill="rgb(0%, 0%, 0%)" fill-opacity="1">
<use xlink:href="#glyph-0-0" x="147.688789" y="17.473021"/>
</g>
<g fill="rgb(0%, 0%, 0%)" fill-opacity="1">
<use xlink:href="#glyph-0-1" x="152.440922" y="17.473021"/>
</g>
<g fill="rgb(0%, 0%, 0%)" fill-opacity="1">
<use xlink:href="#glyph-0-2" x="155.76115" y="17.473021"/>
<use xlink:href="#glyph-0-0" x="160.683322" y="17.473021"/>
</g>
<g fill="rgb(0%, 0%, 0%)" fill-opacity="1">
<use xlink:href="#glyph-0-2" x="165.972419" y="17.473021"/>
</g>
<g fill="rgb(0%, 0%, 0%)" fill-opacity="1">
<use xlink:href="#glyph-0-3" x="170.903539" y="17.473021"/>
<use xlink:href="#glyph-0-4" x="174.680187" y="17.473021"/>
</g>
<g fill="rgb(0%, 0%, 0%)" fill-opacity="1">
<use xlink:href="#glyph-1-0" x="131.110501" y="28.411176"/>
<use xlink:href="#glyph-1-1" x="135.200378" y="28.411176"/>
<use xlink:href="#glyph-1-2" x="139.952511" y="28.411176"/>
<use xlink:href="#glyph-1-3" x="142.145115" y="28.411176"/>
</g>
<g fill="rgb(0%, 0%, 0%)" fill-opacity="1">
<use xlink:href="#glyph-1-4" x="148.445494" y="28.411176"/>
</g>
<g fill="rgb(0%, 0%, 0%)" fill-opacity="1">
<use xlink:href="#glyph-1-5" x="155.84665" y="28.411176"/>
<use xlink:href="#glyph-1-4" x="160.088667" y="28.411176"/>
<use xlink:href="#glyph-1-6" x="164.509672" y="28.411176"/>
<use xlink:href="#glyph-1-7" x="166.702275" y="28.411176"/>
<use xlink:href="#glyph-1-0" x="171.454408" y="28.411176"/>
<use xlink:href="#glyph-1-8" x="175.544285" y="28.411176"/>
</g>
<g fill="rgb(0%, 0%, 0%)" fill-opacity="1">
<use xlink:href="#glyph-1-9" x="182.050501" y="28.411176"/>
<use xlink:href="#glyph-1-6" x="186.981622" y="28.411176"/>
<use xlink:href="#glyph-1-0" x="189.174225" y="28.411176"/>
<use xlink:href="#glyph-1-10" x="193.264102" y="28.411176"/>
</g>
<g fill="rgb(0%, 0%, 0%)" fill-opacity="1">
<use xlink:href="#glyph-1-11" x="137.679363" y="39.34933"/>
<use xlink:href="#glyph-1-12" x="142.279356" y="39.34933"/>
</g>
<g fill="rgb(0%, 0%, 0%)" fill-opacity="1">
<use xlink:href="#glyph-1-0" x="147.291021" y="39.34933"/>
<use xlink:href="#glyph-1-13" x="151.380898" y="39.34933"/>
</g>
<g fill="rgb(0%, 0%, 0%)" fill-opacity="1">
<use xlink:href="#glyph-1-4" x="159.113182" y="39.34933"/>
</g>
<g fill="rgb(0%, 0%, 0%)" fill-opacity="1">
<use xlink:href="#glyph-1-14" x="166.514338" y="39.34933"/>
<use xlink:href="#glyph-1-15" x="172.394096" y="39.34933"/>
</g>
<g fill="rgb(0%, 0%, 0%)" fill-opacity="1">
<use xlink:href="#glyph-1-3" x="181.334549" y="39.34933"/>
<use xlink:href="#glyph-1-11" x="184.654777" y="39.34933"/>
</g>
<g fill="rgb(0%, 0%, 0%)" fill-opacity="1">
<use xlink:href="#glyph-1-3" x="136.97949" y="50.287485"/>
<use xlink:href="#glyph-1-16" x="140.299719" y="50.287485"/>
<use xlink:href="#glyph-1-0" x="145.051851" y="50.287485"/>
</g>
<g fill="rgb(0%, 0%, 0%)" fill-opacity="1">
<use xlink:href="#glyph-1-17" x="152.121879" y="50.287485"/>
<use xlink:href="#glyph-1-11" x="159.424592" y="50.287485"/>
<use xlink:href="#glyph-1-13" x="164.024585" y="50.287485"/>
<use xlink:href="#glyph-1-11" x="168.776718" y="50.287485"/>
</g>
<g fill="rgb(0%, 0%, 0%)" fill-opacity="1">
<use xlink:href="#glyph-1-18" x="173.126127" y="50.287485"/>
<use xlink:href="#glyph-1-0" x="176.267368" y="50.287485"/>
<use xlink:href="#glyph-1-12" x="180.357245" y="50.287485"/>
</g>
<g fill="rgb(0%, 0%, 0%)" fill-opacity="1">
<use xlink:href="#glyph-1-11" x="185.359961" y="50.287485"/>
</g>
<path fill-rule="nonzero" fill="rgb(87.841797%, 94.900513%, 94.509888%)" fill-opacity="1" d="M 316.410156 103.027344 L 214.246094 103.027344 C 213.148438 103.027344 212.257812 103.917969 212.257812 105.015625 L 212.257812 141.308594 C 212.257812 142.40625 213.148438 143.296875 214.246094 143.296875 L 316.410156 143.296875 C 317.507812 143.296875 318.398438 142.40625 318.398438 141.308594 L 318.398438 105.015625 C 318.398438 103.917969 317.507812 103.027344 316.410156 103.027344 Z M 316.410156 103.027344 "/>
<g clip-path="url(#clip-0)">
<path fill="none" stroke-width="0.59776" stroke-linecap="butt" stroke-linejoin="miter" stroke="rgb(0%, 53.72467%, 48.234558%)" stroke-opacity="1" stroke-miterlimit="10" d="M 153.228553 20.171875 L 50.870727 20.171875 C 49.770989 20.171875 48.878675 19.279561 48.878675 18.179823 L 48.878675 -18.181979 C 48.878675 -19.281717 49.770989 -20.174031 50.870727 -20.174031 L 153.228553 -20.174031 C 154.328291 -20.174031 155.220605 -19.281717 155.220605 -18.181979 L 155.220605 18.179823 C 155.220605 19.279561 154.328291 20.171875 153.228553 20.171875 Z M 153.228553 20.171875 " transform="matrix(0.998107, 0, 0, -0.998107, 163.471665, 123.161033)"/>
</g>
<g fill="rgb(0%, 0%, 0%)" fill-opacity="1">
<use xlink:href="#glyph-0-5" x="249.495054" y="114.209551"/>
<use xlink:href="#glyph-0-6" x="253.969755" y="114.209551"/>
<use xlink:href="#glyph-0-7" x="258.668191" y="114.209551"/>
<use xlink:href="#glyph-0-8" x="260.959239" y="114.209551"/>
<use xlink:href="#glyph-0-9" x="263.250286" y="114.209551"/>
<use xlink:href="#glyph-0-6" x="268.2709" y="114.209551"/>
<use xlink:href="#glyph-0-10" x="272.969337" y="114.209551"/>
<use xlink:href="#glyph-0-4" x="276.584896" y="114.209551"/>
</g>
<g fill="rgb(0%, 0%, 0%)" fill-opacity="1">
<use xlink:href="#glyph-2-0" x="234.36476" y="125.147706"/>
<use xlink:href="#glyph-2-1" x="239.063196" y="125.147706"/>
<use xlink:href="#glyph-2-2" x="243.761633" y="125.147706"/>
<use xlink:href="#glyph-2-3" x="248.460069" y="125.147706"/>
</g>
<g fill="rgb(0%, 0%, 0%)" fill-opacity="1">
<use xlink:href="#glyph-2-4" x="256.138656" y="125.147706"/>
<use xlink:href="#glyph-2-1" x="260.837093" y="125.147706"/>
<use xlink:href="#glyph-2-5" x="265.535529" y="125.147706"/>
<use xlink:href="#glyph-2-6" x="270.233966" y="125.147706"/>
<use xlink:href="#glyph-2-7" x="274.932402" y="125.147706"/>
<use xlink:href="#glyph-2-1" x="279.630838" y="125.147706"/>
<use xlink:href="#glyph-2-8" x="284.329275" y="125.147706"/>
<use xlink:href="#glyph-2-3" x="289.027711" y="125.147706"/>
</g>
<g fill="rgb(0%, 0%, 0%)" fill-opacity="1">
<use xlink:href="#glyph-1-19" x="293.72881" y="125.147706"/>
</g>
<g fill="rgb(0%, 0%, 0%)" fill-opacity="1">
<use xlink:href="#glyph-1-12" x="219.470289" y="136.08586"/>
<use xlink:href="#glyph-1-4" x="224.222421" y="136.08586"/>
<use xlink:href="#glyph-1-8" x="228.643426" y="136.08586"/>
<use xlink:href="#glyph-1-8" x="232.169491" y="136.08586"/>
<use xlink:href="#glyph-1-20" x="235.695556" y="136.08586"/>
<use xlink:href="#glyph-1-21" x="240.295548" y="136.08586"/>
<use xlink:href="#glyph-1-4" x="243.105661" y="136.08586"/>
<use xlink:href="#glyph-1-2" x="247.526666" y="136.08586"/>
<use xlink:href="#glyph-1-6" x="249.719269" y="136.08586"/>
</g>
<g fill="rgb(0%, 0%, 0%)" fill-opacity="1">
<use xlink:href="#glyph-1-22" x="254.892024" y="136.08586"/>
</g>
<g fill="rgb(0%, 0%, 0%)" fill-opacity="1">
<use xlink:href="#glyph-1-13" x="265.022748" y="136.08586"/>
<use xlink:href="#glyph-1-4" x="269.774881" y="136.08586"/>
<use xlink:href="#glyph-1-17" x="274.195886" y="136.08586"/>
<use xlink:href="#glyph-1-0" x="281.498598" y="136.08586"/>
<use xlink:href="#glyph-1-1" x="285.588475" y="136.08586"/>
</g>
<g fill="rgb(0%, 0%, 0%)" fill-opacity="1">
<use xlink:href="#glyph-1-0" x="293.320759" y="136.08586"/>
<use xlink:href="#glyph-1-18" x="297.410636" y="136.08586"/>
<use xlink:href="#glyph-1-18" x="300.551876" y="136.08586"/>
<use xlink:href="#glyph-1-11" x="303.693117" y="136.08586"/>
</g>
<g fill="rgb(0%, 0%, 0%)" fill-opacity="1">
<use xlink:href="#glyph-1-18" x="308.042526" y="136.08586"/>
</g>
<path fill-rule="nonzero" fill="rgb(87.841797%, 94.900513%, 94.509888%)" fill-opacity="1" d="M 214.554688 193.570312 L 112.390625 193.570312 C 111.292969 193.570312 110.402344 194.460938 110.402344 195.558594 L 110.402344 231.839844 C 110.402344 232.9375 111.292969 233.828125 112.390625 233.828125 L 214.554688 233.828125 C 215.652344 233.828125 216.542969 232.9375 216.542969 231.839844 L 216.542969 195.558594 C 216.542969 194.460938 215.652344 193.570312 214.554688 193.570312 Z M 214.554688 193.570312 "/>
<g clip-path="url(#clip-1)">
<path fill="none" stroke-width="0.59776" stroke-linecap="butt" stroke-linejoin="miter" stroke="rgb(0%, 53.72467%, 48.234558%)" stroke-opacity="1" stroke-miterlimit="10" d="M 51.179906 -70.542817 L -51.17792 -70.542817 C -52.277658 -70.542817 -53.169973 -71.435131 -53.169973 -72.534869 L -53.169973 -108.88493 C -53.169973 -109.984668 -52.277658 -110.876982 -51.17792 -110.876982 L 51.179906 -110.876982 C 52.279644 -110.876982 53.171958 -109.984668 53.171958 -108.88493 L 53.171958 -72.534869 C 53.171958 -71.435131 52.279644 -70.542817 51.179906 -70.542817 Z M 51.179906 -70.542817 " transform="matrix(0.998107, 0, 0, -0.998107, 163.471665, 123.161033)"/>
</g>
<g fill="rgb(0%, 0%, 0%)" fill-opacity="1">
<use xlink:href="#glyph-0-2" x="148.13625" y="204.751999"/>
<use xlink:href="#glyph-0-11" x="153.058422" y="204.751999"/>
<use xlink:href="#glyph-0-3" x="158.079037" y="204.751999"/>
<use xlink:href="#glyph-0-4" x="161.855685" y="204.751999"/>
<use xlink:href="#glyph-0-1" x="166.428829" y="204.751999"/>
<use xlink:href="#glyph-0-5" x="169.758007" y="204.751999"/>
<use xlink:href="#glyph-0-4" x="174.232708" y="204.751999"/>
</g>
<g fill="rgb(0%, 0%, 0%)" fill-opacity="1">
<use xlink:href="#glyph-1-23" x="136.487284" y="215.690153"/>
<use xlink:href="#glyph-1-24" x="141.597393" y="215.690153"/>
<use xlink:href="#glyph-1-25" x="146.609058" y="215.690153"/>
</g>
<g fill="rgb(0%, 0%, 0%)" fill-opacity="1">
<use xlink:href="#glyph-1-18" x="156.381806" y="215.690153"/>
<use xlink:href="#glyph-1-0" x="159.523046" y="215.690153"/>
<use xlink:href="#glyph-1-4" x="163.612923" y="215.690153"/>
<use xlink:href="#glyph-1-1" x="168.033928" y="215.690153"/>
<use xlink:href="#glyph-1-26" x="172.786061" y="215.690153"/>
<use xlink:href="#glyph-1-27" x="175.855706" y="215.690153"/>
<use xlink:href="#glyph-1-14" x="182.003945" y="215.690153"/>
<use xlink:href="#glyph-1-28" x="187.883703" y="215.690153"/>
</g>
<g fill="rgb(0%, 0%, 0%)" fill-opacity="1">
<use xlink:href="#glyph-1-29" x="123.413529" y="226.628308"/>
<use xlink:href="#glyph-1-8" x="126.99329" y="226.628308"/>
<use xlink:href="#glyph-1-6" x="130.519355" y="226.628308"/>
<use xlink:href="#glyph-1-11" x="132.711959" y="226.628308"/>
<use xlink:href="#glyph-1-26" x="137.311952" y="226.628308"/>
<use xlink:href="#glyph-1-1" x="140.381597" y="226.628308"/>
<use xlink:href="#glyph-1-0" x="145.133729" y="226.628308"/>
<use xlink:href="#glyph-1-9" x="149.223606" y="226.628308"/>
<use xlink:href="#glyph-1-13" x="154.154727" y="226.628308"/>
<use xlink:href="#glyph-1-2" x="158.90686" y="226.628308"/>
<use xlink:href="#glyph-1-3" x="161.099464" y="226.628308"/>
<use xlink:href="#glyph-1-2" x="164.419692" y="226.628308"/>
<use xlink:href="#glyph-1-11" x="166.612296" y="226.628308"/>
<use xlink:href="#glyph-1-13" x="171.212289" y="226.628308"/>
<use xlink:href="#glyph-1-8" x="175.964421" y="226.628308"/>
<use xlink:href="#glyph-1-30" x="179.490486" y="226.628308"/>
<use xlink:href="#glyph-1-31" x="182.050015" y="226.628308"/>
</g>
<g fill="rgb(0%, 0%, 0%)" fill-opacity="1">
<use xlink:href="#glyph-1-4" x="186.041449" y="226.628308"/>
<use xlink:href="#glyph-1-17" x="190.462454" y="226.628308"/>
<use xlink:href="#glyph-1-6" x="197.765166" y="226.628308"/>
<use xlink:href="#glyph-1-32" x="199.95777" y="226.628308"/>
</g>
<path fill-rule="nonzero" fill="rgb(87.841797%, 94.900513%, 94.509888%)" fill-opacity="1" d="M 112.699219 104.046875 L 10.535156 104.046875 C 9.4375 104.046875 8.546875 104.9375 8.546875 106.035156 L 8.546875 140.285156 C 8.546875 141.386719 9.4375 142.273438 10.535156 142.273438 L 112.699219 142.273438 C 113.796875 142.273438 114.6875 141.386719 114.6875 140.285156 L 114.6875 106.035156 C 114.6875 104.9375 113.796875 104.046875 112.699219 104.046875 Z M 112.699219 104.046875 "/>
<g clip-path="url(#clip-2)">
<path fill="none" stroke-width="0.59776" stroke-linecap="butt" stroke-linejoin="miter" stroke="rgb(0%, 53.72467%, 48.234558%)" stroke-opacity="1" stroke-miterlimit="10" d="M -50.868741 19.15041 L -153.226568 19.15041 C -154.326306 19.15041 -155.21862 18.258096 -155.21862 17.158358 L -155.21862 -17.1566 C -155.21862 -18.260252 -154.326306 -19.148653 -153.226568 -19.148653 L -50.868741 -19.148653 C -49.769003 -19.148653 -48.876689 -18.260252 -48.876689 -17.1566 L -48.876689 17.158358 C -48.876689 18.258096 -49.769003 19.15041 -50.868741 19.15041 Z M -50.868741 19.15041 " transform="matrix(0.998107, 0, 0, -0.998107, 163.471665, 123.161033)"/>
</g>
<g fill="rgb(0%, 0%, 0%)" fill-opacity="1">
<use xlink:href="#glyph-0-12" x="47.493409" y="114.290088"/>
<use xlink:href="#glyph-0-2" x="51.869667" y="114.290088"/>
</g>
<g fill="rgb(0%, 0%, 0%)" fill-opacity="1">
<use xlink:href="#glyph-0-1" x="56.523356" y="114.290088"/>
<use xlink:href="#glyph-0-1" x="59.852534" y="114.290088"/>
<use xlink:href="#glyph-0-4" x="63.181712" y="114.290088"/>
<use xlink:href="#glyph-0-12" x="67.754857" y="114.290088"/>
<use xlink:href="#glyph-0-10" x="72.131114" y="114.290088"/>
</g>
<g fill="rgb(0%, 0%, 0%)" fill-opacity="1">
<use xlink:href="#glyph-1-0" x="23.900126" y="125.228243"/>
<use xlink:href="#glyph-1-18" x="27.990003" y="125.228243"/>
<use xlink:href="#glyph-1-18" x="31.131243" y="125.228243"/>
<use xlink:href="#glyph-1-11" x="34.272484" y="125.228243"/>
</g>
<g fill="rgb(0%, 0%, 0%)" fill-opacity="1">
<use xlink:href="#glyph-1-18" x="38.621893" y="125.228243"/>
</g>
<g fill="rgb(0%, 0%, 0%)" fill-opacity="1">
<use xlink:href="#glyph-1-17" x="44.734335" y="125.228243"/>
<use xlink:href="#glyph-1-0" x="52.037048" y="125.228243"/>
<use xlink:href="#glyph-1-8" x="56.126925" y="125.228243"/>
<use xlink:href="#glyph-1-8" x="59.652989" y="125.228243"/>
<use xlink:href="#glyph-1-4" x="63.179054" y="125.228243"/>
<use xlink:href="#glyph-1-33" x="67.600059" y="125.228243"/>
<use xlink:href="#glyph-1-0" x="72.200052" y="125.228243"/>
</g>
<g fill="rgb(0%, 0%, 0%)" fill-opacity="1">
<use xlink:href="#glyph-1-4" x="79.27008" y="125.228243"/>
<use xlink:href="#glyph-1-6" x="83.691085" y="125.228243"/>
<use xlink:href="#glyph-1-11" x="85.883688" y="125.228243"/>
<use xlink:href="#glyph-1-13" x="90.483681" y="125.228243"/>
<use xlink:href="#glyph-1-0" x="95.235814" y="125.228243"/>
</g>
<g fill="rgb(0%, 0%, 0%)" fill-opacity="1">
<use xlink:href="#glyph-3-0" x="32.553893" y="136.166398"/>
</g>
<g fill="rgb(0%, 0%, 0%)" fill-opacity="1">
<use xlink:href="#glyph-1-9" x="44.734641" y="136.166398"/>
<use xlink:href="#glyph-1-34" x="49.665762" y="136.166398"/>
<use xlink:href="#glyph-1-10" x="53.907779" y="136.166398"/>
</g>
<g fill="rgb(0%, 0%, 0%)" fill-opacity="1">
<use xlink:href="#glyph-1-13" x="59.447459" y="136.166398"/>
<use xlink:href="#glyph-1-0" x="64.199592" y="136.166398"/>
<use xlink:href="#glyph-1-34" x="68.289469" y="136.166398"/>
<use xlink:href="#glyph-1-3" x="72.531486" y="136.166398"/>
</g>
<g fill="rgb(0%, 0%, 0%)" fill-opacity="1">
<use xlink:href="#glyph-1-14" x="78.831865" y="136.166398"/>
<use xlink:href="#glyph-1-15" x="84.711623" y="136.166398"/>
</g>
<path fill="none" stroke-width="0.79701" stroke-linecap="butt" stroke-linejoin="miter" stroke="rgb(37.255859%, 38.822937%, 40.783691%)" stroke-opacity="1" stroke-miterlimit="10" d="M 15.663454 65.99299 C 27.185265 44.189998 38.076977 32.856043 55.844987 22.535725 " transform="matrix(0.998107, 0, 0, -0.998107, 163.471665, 123.161033)"/>
<path fill-rule="nonzero" fill="rgb(37.255859%, 38.822937%, 40.783691%)" fill-opacity="1" stroke-width="0.79701" stroke-linecap="butt" stroke-linejoin="miter" stroke="rgb(37.255859%, 38.822937%, 40.783691%)" stroke-opacity="1" stroke-miterlimit="10" d="M 5.441774 0.000000944228 L 1.285549 1.569351 L 2.663976 -0.00176301 L 1.285459 -1.571584 Z M 5.441774 0.000000944228 " transform="matrix(0.863113, 0.501169, 0.501169, -0.863113, 217.084384, 99.432906)"/>
<path fill="none" stroke-width="0.79701" stroke-linecap="butt" stroke-linejoin="miter" stroke="rgb(37.255859%, 38.822937%, 40.783691%)" stroke-opacity="1" stroke-miterlimit="10" d="M 59.398589 -20.471469 C 36.531082 -34.204497 25.083631 -46.47773 14.833759 -66.582194 " transform="matrix(0.998107, 0, 0, -0.998107, 163.471665, 123.161033)"/>
<path fill-rule="nonzero" fill="rgb(37.255859%, 38.822937%, 40.783691%)" fill-opacity="1" stroke-width="0.79701" stroke-linecap="butt" stroke-linejoin="miter" stroke="rgb(37.255859%, 38.822937%, 40.783691%)" stroke-opacity="1" stroke-miterlimit="10" d="M 5.44059 0.000172632 L 1.286988 1.572764 L 2.664554 -0.000525602 L 1.287073 -1.572599 Z M 5.44059 0.000172632 " transform="matrix(-0.45332, 0.889194, 0.889194, 0.45332, 179.395864, 187.423903)"/>
<path fill="none" stroke-width="0.79701" stroke-linecap="butt" stroke-linejoin="miter" stroke="rgb(37.255859%, 38.822937%, 40.783691%)" stroke-opacity="1" stroke-miterlimit="10" d="M -12.968872 -70.241465 C -25.762622 -45.882854 -37.769726 -33.323924 -57.979859 -21.52033 " transform="matrix(0.998107, 0, 0, -0.998107, 163.471665, 123.161033)"/>
<path fill-rule="nonzero" fill="rgb(37.255859%, 38.822937%, 40.783691%)" fill-opacity="1" stroke-width="0.79701" stroke-linecap="butt" stroke-linejoin="miter" stroke="rgb(37.255859%, 38.822937%, 40.783691%)" stroke-opacity="1" stroke-miterlimit="10" d="M 5.441613 0.000351834 L 1.287544 1.571878 L 2.663211 0.000284433 L 1.286677 -1.569672 Z M 5.441613 0.000351834 " transform="matrix(-0.861825, -0.503345, -0.503345, 0.861825, 107.725054, 145.883239)"/>
<path fill="none" stroke-width="0.79701" stroke-linecap="butt" stroke-linejoin="miter" stroke="rgb(37.255859%, 38.822937%, 40.783691%)" stroke-opacity="1" stroke-miterlimit="10" d="M -61.529547 19.447848 C -39.327362 31.967642 -27.856429 43.610776 -17.626125 62.380683 " transform="matrix(0.998107, 0, 0, -0.998107, 163.471665, 123.161033)"/>
<path fill-rule="nonzero" fill="rgb(37.255859%, 38.822937%, 40.783691%)" fill-opacity="1" stroke-width="0.79701" stroke-linecap="butt" stroke-linejoin="miter" stroke="rgb(37.255859%, 38.822937%, 40.783691%)" stroke-opacity="1" stroke-miterlimit="10" d="M 5.439994 0.000913003 L 1.286342 1.571069 L 2.664015 -0.000502435 L 1.286637 -1.571001 Z M 5.439994 0.000913003 " transform="matrix(0.477474, -0.876418, -0.876418, -0.477474, 144.700217, 63.057206)"/>
<g fill="rgb(37.298584%, 38.798523%, 40.79895%)" fill-opacity="1">
<use xlink:href="#glyph-4-0" x="144.590166" y="115.484573"/>
<use xlink:href="#glyph-4-1" x="148.957474" y="115.484573"/>
<use xlink:href="#glyph-4-2" x="152.887256" y="115.484573"/>
<use xlink:href="#glyph-4-3" x="156.817039" y="115.484573"/>
<use xlink:href="#glyph-4-4" x="161.613918" y="115.484573"/>
</g>
<g fill="rgb(37.298584%, 38.798523%, 40.79895%)" fill-opacity="1">
<use xlink:href="#glyph-4-5" x="167.508592" y="115.484573"/>
<use xlink:href="#glyph-4-6" x="169.688268" y="115.484573"/>
</g>
<g fill="rgb(37.298584%, 38.798523%, 40.79895%)" fill-opacity="1">
<use xlink:href="#glyph-4-6" x="173.626005" y="115.484573"/>
<use xlink:href="#glyph-4-7" x="177.993314" y="115.484573"/>
</g>
<g fill="rgb(37.298584%, 38.798523%, 40.79895%)" fill-opacity="1">
<use xlink:href="#glyph-4-8" x="143.066765" y="124.931166"/>
<use xlink:href="#glyph-4-3" x="146.559021" y="124.931166"/>
<use xlink:href="#glyph-4-6" x="151.355901" y="124.931166"/>
</g>
<g fill="rgb(37.298584%, 38.798523%, 40.79895%)" fill-opacity="1">
<use xlink:href="#glyph-4-9" x="158.777939" y="124.931166"/>
<use xlink:href="#glyph-4-10" x="163.145247" y="124.931166"/>
<use xlink:href="#glyph-4-11" x="167.727341" y="124.931166"/>
<use xlink:href="#glyph-4-0" x="174.711853" y="124.931166"/>
<use xlink:href="#glyph-4-3" x="179.079161" y="124.931166"/>
</g>
<g fill="rgb(37.298584%, 38.798523%, 40.79895%)" fill-opacity="1">
<use xlink:href="#glyph-4-4" x="143.715105" y="134.37776"/>
<use xlink:href="#glyph-4-12" x="146.555049" y="134.37776"/>
</g>
<g fill="rgb(37.298584%, 38.798523%, 40.79895%)" fill-opacity="1">
<use xlink:href="#glyph-4-0" x="149.729104" y="134.37776"/>
<use xlink:href="#glyph-4-3" x="154.096413" y="134.37776"/>
<use xlink:href="#glyph-4-13" x="158.893292" y="134.37776"/>
<use xlink:href="#glyph-4-5" x="162.385548" y="134.37776"/>
<use xlink:href="#glyph-4-0" x="164.565225" y="134.37776"/>
<use xlink:href="#glyph-4-4" x="168.932533" y="134.37776"/>
<use xlink:href="#glyph-4-6" x="171.772477" y="134.37776"/>
<use xlink:href="#glyph-4-12" x="176.139786" y="134.37776"/>
<use xlink:href="#glyph-4-14" x="179.743412" y="134.37776"/>
</g>
</svg>
