<?xml version="1.0" encoding="UTF-8"?>
<svg xmlns="http://www.w3.org/2000/svg" xmlns:xlink="http://www.w3.org/1999/xlink" width="343.93pt" height="430.35pt" viewBox="0 0 343.93 430.35">
<defs>
<g>
<g id="glyph-0-0">
<path d="M 3.90625 0 L 3.90625 -0.5625 L 2.765625 -0.5625 L 2.765625 -6.046875 L 2.578125 -6.046875 C 1.984375 -5.46875 1.125 -5.46875 0.8125 -5.46875 L 0.8125 -4.921875 C 1.0625 -4.921875 1.515625 -4.921875 2 -5.125 L 2 -0.5625 L 0.859375 -0.5625 L 0.859375 0 Z M 3.90625 0 "/>
</g>
<g id="glyph-0-1">
<path d="M 3.96875 -2.71875 L 3.96875 -3.484375 L 3.203125 -3.484375 L 3.203125 -2.71875 Z M 3.96875 -2.71875 "/>
</g>
<g id="glyph-0-2">
<path d="M 6.28125 -3.078125 C 6.28125 -4.96875 4.9375 -6.40625 3.390625 -6.40625 C 1.84375 -6.40625 0.515625 -4.96875 0.515625 -3.078125 C 0.515625 -1.21875 1.859375 0.203125 3.390625 0.203125 C 4.9375 0.203125 6.28125 -1.21875 6.28125 -3.078125 Z M 5.421875 -3.21875 C 5.421875 -1.53125 4.453125 -0.4375 3.390625 -0.4375 C 2.328125 -0.4375 1.375 -1.53125 1.375 -3.21875 C 1.375 -4.859375 2.375 -5.796875 3.390625 -5.796875 C 4.40625 -5.796875 5.421875 -4.84375 5.421875 -3.21875 Z M 5.421875 -3.21875 "/>
</g>
<g id="glyph-0-3">
<path d="M 6.140625 -3.046875 C 6.140625 -4.8125 4.875 -6.21875 3.3125 -6.21875 L 0.875 -6.21875 L 0.875 0 L 3.3125 0 C 4.875 0 6.140625 -1.359375 6.140625 -3.046875 Z M 5.296875 -3.046875 C 5.296875 -1.484375 4.3125 -0.53125 3.09375 -0.53125 L 1.703125 -0.53125 L 1.703125 -5.6875 L 3.078125 -5.6875 C 4.3125 -5.6875 5.296875 -4.671875 5.296875 -3.046875 Z M 5.296875 -3.046875 "/>
</g>
<g id="glyph-0-4">
<path d="M 5.40625 -0.40625 L 5.34375 -1.0625 C 5.078125 -0.890625 4.8125 -0.71875 4.5 -0.625 C 4.203125 -0.53125 3.890625 -0.515625 3.5625 -0.515625 C 2.984375 -0.515625 2.4375 -0.8125 2.0625 -1.265625 C 1.640625 -1.796875 1.453125 -2.4375 1.453125 -3.109375 C 1.453125 -3.78125 1.640625 -4.4375 2.0625 -4.9375 C 2.4375 -5.40625 2.984375 -5.703125 3.5625 -5.703125 C 3.84375 -5.703125 4.125 -5.671875 4.390625 -5.59375 C 4.671875 -5.515625 4.921875 -5.375 5.15625 -5.203125 L 5.296875 -6 C 5.015625 -6.109375 4.734375 -6.203125 4.4375 -6.234375 C 4.15625 -6.296875 3.859375 -6.3125 3.5625 -6.3125 C 2.765625 -6.3125 2 -5.96875 1.453125 -5.375 C 0.890625 -4.765625 0.59375 -3.953125 0.59375 -3.109375 C 0.59375 -2.28125 0.890625 -1.453125 1.453125 -0.84375 C 2 -0.25 2.765625 0.09375 3.5625 0.09375 C 3.890625 0.09375 4.203125 0.078125 4.515625 0 C 4.828125 -0.078125 5.125 -0.234375 5.40625 -0.40625 Z M 5.40625 -0.40625 "/>
</g>
<g id="glyph-0-5">
<path d="M 5.6875 0 L 3.890625 -2.90625 C 4.796875 -3.15625 5.4375 -3.8125 5.4375 -4.546875 C 5.4375 -5.46875 4.40625 -6.21875 3.125 -6.21875 L 0.875 -6.21875 L 0.875 0 L 1.703125 0 L 1.703125 -2.8125 L 3.140625 -2.8125 L 4.828125 0 Z M 4.671875 -4.546875 C 4.671875 -3.953125 4.125 -3.40625 3.015625 -3.40625 L 1.703125 -3.40625 L 1.703125 -5.6875 L 3.015625 -5.6875 C 4.0625 -5.6875 4.671875 -5.1875 4.671875 -4.546875 Z M 4.671875 -4.546875 "/>
</g>
<g id="glyph-0-6">
<path d="M 3.828125 -0.328125 L 3.765625 -0.96875 C 3.34375 -0.671875 2.859375 -0.515625 2.328125 -0.515625 C 1.5625 -0.515625 1.0625 -1.140625 1.0625 -2 C 1.0625 -2.6875 1.40625 -3.515625 2.359375 -3.515625 C 2.921875 -3.515625 3.21875 -3.40625 3.65625 -3.109375 L 3.78125 -3.734375 C 3.28125 -4.015625 3 -4.125 2.359375 -4.125 C 1.078125 -4.125 0.328125 -3.046875 0.328125 -1.984375 C 0.328125 -0.875 1.15625 0.09375 2.3125 0.09375 C 2.953125 0.09375 3.421875 -0.09375 3.828125 -0.328125 Z M 3.828125 -0.328125 "/>
</g>
<g id="glyph-0-7">
<path d="M 3.78125 0 L 3.78125 -2.59375 C 3.78125 -3.46875 3.125 -4.125 2.234375 -4.125 C 1.65625 -4.125 1.234375 -3.96875 0.796875 -3.734375 L 0.84375 -3.09375 C 1.296875 -3.421875 1.734375 -3.5625 2.234375 -3.5625 C 2.734375 -3.5625 3.03125 -3.15625 3.03125 -2.578125 L 3.03125 -2.203125 C 1.5 -2.171875 0.484375 -1.765625 0.484375 -1.03125 C 0.484375 -0.625 0.765625 0.09375 1.546875 0.09375 C 1.71875 0.09375 2.5 0.078125 3.0625 -0.34375 L 3.0625 0 Z M 3.03125 -1.25 C 3.03125 -1.0625 3.03125 -0.84375 2.71875 -0.65625 C 2.484375 -0.515625 2.1875 -0.484375 2.015625 -0.484375 C 1.5625 -0.484375 1.171875 -0.703125 1.171875 -1.0625 C 1.171875 -1.6875 2.921875 -1.71875 3.03125 -1.71875 Z M 3.03125 -1.25 "/>
</g>
<g id="glyph-0-8">
<path d="M 4.421875 -2 C 4.421875 -3.078125 3.859375 -4.078125 2.984375 -4.078125 C 2.734375 -4.078125 2.078125 -4.03125 1.453125 -3.546875 L 1.453125 -3.96875 L 0.75 -3.96875 L 0.75 1.734375 L 1.484375 1.734375 L 1.484375 -0.40625 C 1.8125 -0.09375 2.265625 0.09375 2.734375 0.09375 C 3.640625 0.09375 4.421875 -0.78125 4.421875 -2 Z M 3.6875 -1.984375 C 3.6875 -1.125 3.046875 -0.484375 2.359375 -0.484375 C 2.0625 -0.484375 1.75 -0.59375 1.484375 -1.03125 L 1.484375 -2.96875 C 1.609375 -3.140625 1.9375 -3.46875 2.4375 -3.46875 C 3.109375 -3.46875 3.6875 -2.828125 3.6875 -1.984375 Z M 3.6875 -1.984375 "/>
</g>
<g id="glyph-0-9">
<path d="M 3.0625 -0.234375 L 2.90625 -0.796875 C 2.671875 -0.625 2.359375 -0.515625 2.09375 -0.515625 C 1.734375 -0.515625 1.625 -0.828125 1.625 -1.296875 L 1.625 -3.421875 L 2.90625 -3.421875 L 2.90625 -3.96875 L 1.625 -3.96875 L 1.625 -5.109375 L 0.953125 -5.109375 L 0.953125 -3.96875 L 0.171875 -3.96875 L 0.171875 -3.421875 L 0.9375 -3.421875 L 0.9375 -1.125 C 0.9375 -0.59375 1.046875 0.09375 1.703125 0.09375 C 2.09375 0.09375 2.5625 0.015625 3.0625 -0.234375 Z M 3.0625 -0.234375 "/>
</g>
<g id="glyph-0-10">
<path d="M 4.015625 0 L 4.015625 -3.96875 L 3.28125 -3.96875 L 3.28125 -1.390625 C 3.28125 -0.671875 2.71875 -0.4375 2.171875 -0.4375 C 1.53125 -0.4375 1.46875 -0.640625 1.46875 -1.015625 L 1.46875 -3.96875 L 0.71875 -3.96875 L 0.71875 -0.96875 C 0.71875 -0.21875 1.03125 0.09375 1.671875 0.09375 C 2.1875 0.09375 2.890625 -0.046875 3.296875 -0.4375 L 3.296875 0 Z M 4.015625 0 "/>
</g>
<g id="glyph-0-11">
<path d="M 3.015625 -3.421875 L 3.015625 -4.078125 C 2.359375 -4.0625 1.765625 -3.75 1.40625 -3.21875 L 1.40625 -4.03125 L 0.75 -4.03125 L 0.75 0 L 1.453125 0 L 1.453125 -1.90625 C 1.453125 -2.84375 2.1875 -3.421875 3.015625 -3.421875 Z M 3.015625 -3.421875 "/>
</g>
<g id="glyph-0-12">
<path d="M 3.828125 -1.953125 C 3.828125 -2.234375 3.8125 -2.921875 3.46875 -3.453125 C 3.09375 -4.015625 2.515625 -4.125 2.171875 -4.125 C 1.140625 -4.125 0.3125 -3.171875 0.3125 -2.015625 C 0.3125 -0.84375 1.1875 0.09375 2.3125 0.09375 C 2.734375 0.09375 3.265625 -0.015625 3.78125 -0.34375 L 3.71875 -0.953125 C 3.15625 -0.5625 2.625 -0.484375 2.3125 -0.484375 C 1.578125 -0.484375 1 -1.140625 0.96875 -1.953125 Z M 3.28125 -2.484375 L 1.03125 -2.484375 C 1.171875 -3.0625 1.609375 -3.546875 2.171875 -3.546875 C 2.5 -3.546875 3.109375 -3.390625 3.28125 -2.484375 Z M 3.28125 -2.484375 "/>
</g>
<g id="glyph-0-13">
<path d="M 3.0625 2.234375 C 2.578125 1.734375 1.46875 0.59375 1.46875 -2.234375 C 1.46875 -5.078125 2.578125 -6.21875 3.0625 -6.71875 L 2.484375 -6.71875 C 1.421875 -5.828125 0.71875 -4.296875 0.71875 -2.25 C 0.71875 -0.109375 1.46875 1.375 2.484375 2.234375 Z M 3.0625 2.234375 "/>
</g>
<g id="glyph-0-14">
<path d="M 5.46875 -2.09375 L 5.46875 -6.21875 L 4.734375 -6.21875 L 4.734375 -2.09375 C 4.734375 -0.890625 3.953125 -0.328125 3.203125 -0.328125 C 2.453125 -0.328125 1.703125 -0.890625 1.703125 -2.078125 L 1.703125 -6.21875 L 0.84375 -6.21875 L 0.84375 -2.09375 C 0.84375 -0.765625 1.953125 0.203125 3.1875 0.203125 C 4.421875 0.203125 5.46875 -0.78125 5.46875 -2.09375 Z M 5.46875 -2.09375 "/>
</g>
<g id="glyph-0-15">
<path d="M 4.140625 -1.8125 C 4.140625 -2.921875 3.34375 -3.8125 2.390625 -3.8125 C 2.28125 -3.8125 1.828125 -3.8125 1.421875 -3.453125 L 1.421875 -5.25 L 3.828125 -5.25 L 3.828125 -5.859375 L 0.71875 -5.859375 L 0.71875 -2.53125 L 1.375 -2.53125 C 1.65625 -3.1875 2.203125 -3.234375 2.375 -3.234375 C 2.734375 -3.234375 3.28125 -2.953125 3.28125 -1.828125 C 3.28125 -0.734375 2.625 -0.390625 2.09375 -0.390625 C 1.625 -0.390625 1.015625 -0.609375 0.671875 -1.203125 L 0.34375 -0.6875 C 0.5 -0.484375 1.09375 0.203125 2.109375 0.203125 C 3.21875 0.203125 4.140625 -0.703125 4.140625 -1.8125 Z M 4.140625 -1.8125 "/>
</g>
<g id="glyph-0-16">
<path d="M 2.84375 -2.234375 C 2.84375 -4.375 2.109375 -5.859375 1.09375 -6.71875 L 0.515625 -6.71875 C 1 -6.21875 2.109375 -5.078125 2.109375 -2.25 C 2.109375 0.59375 1 1.734375 0.515625 2.234375 L 1.09375 2.234375 C 2.15625 1.34375 2.84375 -0.1875 2.84375 -2.234375 Z M 2.84375 -2.234375 "/>
</g>
<g id="glyph-0-17">
<path d="M 9.1875 -2.171875 L 9.1875 -2.75 L 0 -2.75 L 0 -2.171875 Z M 9.1875 -2.171875 "/>
</g>
<g id="glyph-0-18">
<path d="M 4.015625 0 L 4.015625 -2.65625 C 4.015625 -3.328125 3.84375 -4.078125 2.75 -4.078125 C 2.25 -4.078125 1.765625 -3.828125 1.4375 -3.421875 L 1.4375 -6.21875 L 0.71875 -6.21875 L 0.71875 0 L 1.46875 0 L 1.46875 -2.1875 C 1.46875 -2.78125 1.703125 -3.484375 2.375 -3.484375 C 3.28125 -3.484375 3.28125 -2.859375 3.28125 -2.59375 L 3.28125 0 Z M 4.015625 0 "/>
</g>
<g id="glyph-0-19">
<path d="M 4.328125 -1.96875 C 4.328125 -3.140625 3.421875 -4.125 2.296875 -4.125 C 1.1875 -4.125 0.265625 -3.15625 0.265625 -1.96875 C 0.265625 -0.78125 1.203125 0.09375 2.296875 0.09375 C 3.40625 0.09375 4.328125 -0.8125 4.328125 -1.96875 Z M 3.578125 -2.0625 C 3.578125 -1.015625 2.953125 -0.515625 2.296875 -0.515625 C 1.609375 -0.515625 1.015625 -1.046875 1.015625 -2.0625 C 1.015625 -3.109375 1.6875 -3.546875 2.296875 -3.546875 C 2.9375 -3.546875 3.578125 -3.09375 3.578125 -2.0625 Z M 3.578125 -2.0625 "/>
</g>
<g id="glyph-0-20">
<path d="M 1.453125 0 L 1.453125 -6.21875 L 0.734375 -6.21875 L 0.734375 0 Z M 1.453125 0 "/>
</g>
<g id="glyph-0-21">
<path d="M 4 0 L 4 -6.21875 L 3.28125 -6.21875 L 3.28125 -3.578125 C 2.78125 -4 2.21875 -4.078125 1.921875 -4.078125 C 1.015625 -4.078125 0.328125 -3.140625 0.328125 -1.984375 C 0.328125 -0.828125 1.015625 0.09375 1.890625 0.09375 C 2.15625 0.09375 2.71875 0.03125 3.265625 -0.46875 L 3.265625 0 Z M 3.265625 -1.265625 C 3.265625 -1.09375 3.265625 -1.078125 3.15625 -0.953125 C 2.921875 -0.625 2.609375 -0.484375 2.296875 -0.484375 C 1.703125 -0.484375 1.0625 -0.90625 1.0625 -1.984375 C 1.0625 -3.125 1.828125 -3.484375 2.390625 -3.484375 C 2.796875 -3.484375 3.09375 -3.265625 3.265625 -3.03125 Z M 3.265625 -1.265625 "/>
</g>
<g id="glyph-0-22">
<path d="M 1.453125 0 L 1.453125 -3.96875 L 0.734375 -3.96875 L 0.734375 0 Z M 1.53125 -5.046875 L 1.53125 -5.90625 L 0.671875 -5.90625 L 0.671875 -5.046875 Z M 1.53125 -5.046875 "/>
</g>
<g id="glyph-0-23">
<path d="M 4.015625 0 L 4.015625 -2.65625 C 4.015625 -3.328125 3.84375 -4.078125 2.75 -4.078125 C 2.046875 -4.078125 1.625 -3.65625 1.421875 -3.390625 L 1.421875 -4.03125 L 0.71875 -4.03125 L 0.71875 0 L 1.46875 0 L 1.46875 -2.1875 C 1.46875 -2.78125 1.703125 -3.484375 2.375 -3.484375 C 3.28125 -3.484375 3.28125 -2.859375 3.28125 -2.59375 L 3.28125 0 Z M 4.015625 0 "/>
</g>
<g id="glyph-0-24">
<path d="M 4.140625 0 L 4.140625 -0.671875 L 2.453125 -0.671875 C 2.34375 -0.671875 2.234375 -0.65625 2.125 -0.65625 L 1.140625 -0.65625 L 2.609375 -2 C 3.546875 -2.765625 4.140625 -3.25 4.140625 -4.125 C 4.140625 -5.140625 3.390625 -6.046875 2.171875 -6.046875 C 1.234375 -6.046875 0.65625 -5.5 0.390625 -4.625 L 0.796875 -4.09375 C 1.03125 -5.140625 1.5 -5.4375 2.046875 -5.4375 C 2.84375 -5.4375 3.34375 -4.828125 3.34375 -4.09375 C 3.34375 -3.28125 2.78125 -2.765625 2.109375 -2.171875 L 0.453125 -0.609375 L 0.453125 0 Z M 4.140625 0 "/>
</g>
<g id="glyph-0-25">
<path d="M 7.125 0 L 7.125 -6.21875 L 6.046875 -6.21875 L 4.84375 -3.15625 C 4.609375 -2.546875 4.125 -1.3125 4.015625 -0.875 C 3.921875 -1.25 3.515625 -2.328125 3.34375 -2.75 L 2.15625 -5.8125 L 1.984375 -6.21875 L 0.90625 -6.21875 L 0.90625 0 L 1.640625 0 L 1.640625 -5.515625 L 1.65625 -5.515625 C 1.765625 -5.0625 2.28125 -3.71875 2.375 -3.46875 L 3.359375 -0.953125 L 3.65625 -0.203125 L 4.34375 -0.203125 L 5.578125 -3.34375 C 5.71875 -3.6875 6.265625 -5.09375 6.375 -5.515625 L 6.390625 -5.515625 L 6.390625 0 Z M 7.125 0 "/>
</g>
<g id="glyph-0-26">
<path d="M 4.46875 -3.46875 L 4.359375 -4.078125 C 4.1875 -4.078125 3.59375 -4.078125 2.921875 -3.78125 C 2.796875 -3.890625 2.46875 -4.078125 2.046875 -4.078125 C 1.21875 -4.078125 0.5625 -3.40625 0.5625 -2.609375 C 0.5625 -2.390625 0.625 -2.0625 0.875 -1.703125 C 0.703125 -1.484375 0.609375 -1.21875 0.609375 -0.96875 C 0.609375 -0.71875 0.703125 -0.46875 0.828125 -0.296875 C 0.359375 0 0.265625 0.390625 0.265625 0.640625 C 0.265625 1.296875 1.140625 1.84375 2.296875 1.84375 C 3.453125 1.84375 4.328125 1.296875 4.328125 0.625 C 4.328125 -0.625 2.84375 -0.640625 2.453125 -0.640625 L 1.625 -0.640625 C 1.515625 -0.640625 1.109375 -0.640625 1.109375 -1.09375 C 1.109375 -1.28125 1.140625 -1.328125 1.1875 -1.40625 C 1.4375 -1.25 1.734375 -1.140625 2.046875 -1.140625 C 2.859375 -1.140625 3.515625 -1.8125 3.515625 -2.609375 C 3.515625 -2.90625 3.421875 -3.15625 3.28125 -3.40625 C 3.25 -3.453125 3.25 -3.46875 3.25 -3.46875 C 3.25 -3.515625 3.6875 -3.515625 3.8125 -3.515625 C 3.875 -3.515625 4.203125 -3.515625 4.46875 -3.46875 Z M 2.859375 -2.609375 C 2.859375 -1.890625 2.40625 -1.6875 2.046875 -1.6875 C 1.625 -1.6875 1.234375 -1.9375 1.234375 -2.609375 C 1.234375 -3.328125 1.6875 -3.53125 2.046875 -3.53125 C 2.453125 -3.53125 2.859375 -3.28125 2.859375 -2.609375 Z M 3.671875 0.640625 C 3.671875 1.03125 3.015625 1.3125 2.296875 1.3125 C 1.609375 1.3125 0.921875 1.046875 0.921875 0.625 C 0.921875 0.625 0.921875 0.046875 1.609375 0.046875 L 2.453125 0.046875 C 2.640625 0.046875 3.671875 0.046875 3.671875 0.640625 Z M 3.671875 0.640625 "/>
</g>
<g id="glyph-0-27">
<path d="M 6.578125 0 L 6.578125 -2.65625 C 6.578125 -3.328125 6.390625 -4.078125 5.3125 -4.078125 C 4.5625 -4.078125 4.140625 -3.609375 3.921875 -3.34375 C 3.859375 -3.515625 3.671875 -4.078125 2.75 -4.078125 C 2.046875 -4.078125 1.625 -3.65625 1.421875 -3.390625 L 1.421875 -4.03125 L 0.71875 -4.03125 L 0.71875 0 L 1.46875 0 L 1.46875 -2.1875 C 1.46875 -2.78125 1.703125 -3.484375 2.375 -3.484375 C 3.28125 -3.484375 3.28125 -2.859375 3.28125 -2.59375 L 3.28125 0 L 4.015625 0 L 4.015625 -2.1875 C 4.015625 -2.78125 4.25 -3.484375 4.9375 -3.484375 C 5.828125 -3.484375 5.828125 -2.859375 5.828125 -2.59375 L 5.828125 0 Z M 6.578125 0 "/>
</g>
<g id="glyph-0-28">
<path d="M 3.3125 -1.15625 C 3.3125 -1.46875 3.1875 -1.78125 2.875 -2.046875 C 2.5625 -2.3125 2.296875 -2.359375 1.75 -2.46875 C 1.421875 -2.53125 0.96875 -2.609375 0.96875 -3.03125 C 0.96875 -3.5625 1.609375 -3.5625 1.75 -3.5625 C 2.40625 -3.5625 2.78125 -3.359375 3.046875 -3.21875 L 3.15625 -3.84375 C 2.609375 -4.09375 2.1875 -4.125 1.828125 -4.125 C 1.625 -4.125 0.296875 -4.125 0.296875 -2.953125 C 0.296875 -2.515625 0.5625 -2.25 0.65625 -2.15625 C 1 -1.859375 1.234375 -1.8125 1.84375 -1.6875 C 2.125 -1.640625 2.640625 -1.546875 2.640625 -1.078125 C 2.640625 -0.5 1.921875 -0.5 1.796875 -0.5 C 1.265625 -0.5 0.765625 -0.6875 0.375 -0.953125 L 0.265625 -0.296875 C 0.796875 -0.015625 1.34375 0.09375 1.796875 0.09375 C 2.375 0.09375 3.3125 -0.09375 3.3125 -1.15625 Z M 3.3125 -1.15625 "/>
</g>
<g id="glyph-0-29">
<path d="M 6.640625 -2.234375 C 6.640625 -2.4375 6.46875 -2.4375 6.328125 -2.4375 L 3.765625 -2.4375 L 3.765625 -5 C 3.765625 -5.140625 3.765625 -5.3125 3.578125 -5.3125 C 3.390625 -5.3125 3.390625 -5.125 3.390625 -5 L 3.390625 -2.4375 L 0.828125 -2.4375 C 0.703125 -2.4375 0.515625 -2.4375 0.515625 -2.25 C 0.515625 -2.046875 0.6875 -2.046875 0.828125 -2.046875 L 3.390625 -2.046875 L 3.390625 0.515625 C 3.390625 0.65625 3.390625 0.828125 3.578125 0.828125 C 3.765625 0.828125 3.765625 0.640625 3.765625 0.515625 L 3.765625 -2.046875 L 6.328125 -2.046875 C 6.453125 -2.046875 6.640625 -2.046875 6.640625 -2.234375 Z M 6.640625 -2.234375 "/>
</g>
<g id="glyph-0-30">
<path d="M 5.875 0 L 3.484375 -6.21875 L 2.65625 -6.21875 L 0.265625 0 L 0.96875 0 L 1.640625 -1.78125 L 4.3125 -1.78125 L 5 0 Z M 4.09375 -2.3125 L 1.859375 -2.3125 L 2.96875 -5.546875 Z M 4.09375 -2.3125 "/>
</g>
<g id="glyph-0-31">
<path d="M 4.421875 -2 C 4.421875 -3.078125 3.828125 -4.078125 2.953125 -4.078125 C 2.71875 -4.078125 2.0625 -4.03125 1.453125 -3.546875 L 1.453125 -6.21875 L 0.75 -6.21875 L 0.75 0 L 1.484375 0 L 1.484375 -0.421875 C 1.609375 -0.296875 2.0625 0.09375 2.71875 0.09375 C 3.65625 0.09375 4.421875 -0.8125 4.421875 -2 Z M 3.6875 -2 C 3.6875 -0.84375 2.90625 -0.484375 2.359375 -0.484375 C 1.796875 -0.484375 1.53125 -0.953125 1.484375 -1.03125 L 1.484375 -2.984375 C 1.625 -3.171875 1.9375 -3.484375 2.453125 -3.484375 C 2.984375 -3.484375 3.6875 -3.109375 3.6875 -2 Z M 3.6875 -2 "/>
</g>
<g id="glyph-0-32">
<path d="M 4.203125 -1.625 C 4.203125 -2.328125 3.6875 -2.921875 2.953125 -3.15625 C 3.578125 -3.484375 3.953125 -4.0625 3.953125 -4.6875 C 3.953125 -5.453125 3.203125 -6.046875 2.28125 -6.046875 C 1.515625 -6.046875 0.890625 -5.671875 0.515625 -5.109375 L 0.859375 -4.59375 C 1.25 -5.375 1.9375 -5.5 2.265625 -5.5 C 2.71875 -5.5 3.171875 -5.25 3.171875 -4.6875 C 3.171875 -4.34375 2.984375 -3.578125 2.015625 -3.484375 C 1.84375 -3.46875 1.703125 -3.46875 1.53125 -3.453125 L 1.53125 -2.875 L 2.203125 -2.875 C 3.078125 -2.875 3.34375 -2.171875 3.34375 -1.625 C 3.34375 -0.921875 2.921875 -0.390625 2.25 -0.390625 C 1.515625 -0.390625 0.828125 -0.78125 0.5 -1.265625 C 0.421875 -0.90625 0.421875 -0.890625 0.390625 -0.703125 C 0.828125 -0.171875 1.5 0.203125 2.265625 0.203125 C 3.390625 0.203125 4.203125 -0.6875 4.203125 -1.625 Z M 4.203125 -1.625 "/>
</g>
<g id="glyph-0-33">
<path d="M 5.359375 -4.390625 C 5.359375 -5.34375 4.453125 -6.21875 3.1875 -6.21875 L 0.875 -6.21875 L 0.875 0 L 1.734375 0 L 1.734375 -2.546875 L 3.1875 -2.546875 C 4.453125 -2.546875 5.359375 -3.421875 5.359375 -4.390625 Z M 4.578125 -4.390625 C 4.578125 -3.6875 4.015625 -3.109375 2.96875 -3.109375 L 1.703125 -3.109375 L 1.703125 -5.6875 L 2.96875 -5.6875 C 4 -5.6875 4.578125 -5.109375 4.578125 -4.390625 Z M 4.578125 -4.390625 "/>
</g>
<g id="glyph-0-34">
<path d="M 6 0 L 3.421875 -3.765625 L 5.875 -6.21875 L 5 -6.21875 L 1.6875 -2.921875 L 1.6875 -6.21875 L 0.875 -6.21875 L 0.875 0 L 1.6875 0 L 1.6875 -2.046875 L 2.890625 -3.234375 L 5.125 0 Z M 6 0 "/>
</g>
<g id="glyph-0-35">
<path d="M 2.71875 -3.421875 L 2.71875 -3.96875 L 1.609375 -3.96875 L 1.609375 -5.03125 C 1.609375 -5.609375 1.9375 -5.734375 2.15625 -5.734375 C 2.390625 -5.734375 2.609375 -5.640625 2.71875 -5.578125 L 2.71875 -6.21875 C 2.640625 -6.234375 2.421875 -6.3125 2.15625 -6.3125 C 1.484375 -6.3125 0.921875 -5.671875 0.921875 -4.765625 L 0.921875 -3.96875 L 0.25 -3.96875 L 0.25 -3.421875 L 0.921875 -3.421875 L 0.921875 0 L 1.640625 0 L 1.640625 -3.421875 Z M 4.1875 0 L 4.1875 -6.21875 L 3.46875 -6.21875 L 3.46875 0 Z M 4.1875 0 "/>
</g>
<g id="glyph-0-36">
<path d="M 4.328125 -1.5 L 4.328125 -2.078125 L 3.4375 -2.078125 L 3.4375 -5.859375 L 2.5625 -5.859375 L 0.265625 -2.078125 L 0.265625 -1.5 L 2.6875 -1.5 L 2.6875 0 L 3.4375 0 L 3.4375 -1.5 Z M 2.734375 -2.078125 L 1 -2.078125 L 1.546875 -2.96875 C 1.8125 -3.421875 2.734375 -4.984375 2.734375 -5.4375 Z M 2.734375 -2.078125 "/>
</g>
<g id="glyph-0-37">
<path d="M 4.328125 0 L 2.59375 -2.4375 L 4.125 -3.96875 L 3.28125 -3.96875 L 1.4375 -2.125 L 1.4375 -6.21875 L 0.765625 -6.21875 L 0.765625 0 L 1.421875 0 L 1.421875 -1.265625 L 2.140625 -1.984375 L 3.5625 0 Z M 4.328125 0 "/>
</g>
<g id="glyph-0-38">
<path d="M 4.109375 -3.96875 L 3.40625 -3.96875 C 2.71875 -2.34375 2.234375 -1.15625 2.1875 -0.53125 C 2.15625 -0.9375 1.78125 -1.859375 1.671875 -2.125 C 1.3125 -3.03125 1.15625 -3.34375 0.875 -3.96875 L 0.125 -3.96875 L 1.921875 0 L 1.578125 0.796875 C 1.359375 1.296875 1.1875 1.296875 1.0625 1.296875 C 0.90625 1.296875 0.59375 1.265625 0.328125 1.140625 L 0.390625 1.765625 C 0.40625 1.765625 0.75 1.828125 1.046875 1.828125 C 1.296875 1.828125 1.671875 1.828125 2.125 0.765625 Z M 4.109375 -3.96875 "/>
</g>
<g id="glyph-0-39">
<path d="M 4.109375 -3.96875 L 3.40625 -3.96875 C 3.015625 -2.984375 3.015625 -2.984375 2.6875 -2.15625 C 2.515625 -1.6875 2.1875 -0.828125 2.140625 -0.5 L 2.125 -0.5 C 2.109375 -0.640625 2.078125 -0.8125 1.578125 -2.109375 L 0.859375 -3.96875 L 0.125 -3.96875 L 1.703125 0 L 2.53125 0 Z M 4.109375 -3.96875 "/>
</g>
<g id="glyph-0-40">
<path d="M 6.015625 -6.21875 L 5.265625 -6.21875 L 4.15625 -3.421875 C 4.0625 -3.171875 3.265625 -1.203125 3.15625 -0.6875 L 3.140625 -0.6875 C 3.046875 -1.15625 2.34375 -2.90625 2.125 -3.46875 L 1.03125 -6.21875 L 0.125 -6.21875 L 2.640625 0 L 3.5 0 Z M 6.015625 -6.21875 "/>
</g>
<g id="glyph-0-41">
<path d="M 4.203125 -2 C 4.203125 -2.5 4.140625 -2.953125 3.828125 -3.421875 C 3.46875 -4 3.15625 -4.140625 2.734375 -4.140625 C 2.40625 -4.140625 1.734375 -4.046875 1.1875 -3.40625 C 1.28125 -4.609375 1.890625 -5.5 2.84375 -5.5 C 3.03125 -5.5 3.359375 -5.484375 3.8125 -5.3125 L 3.8125 -5.875 C 3.390625 -6.03125 3.03125 -6.046875 2.84375 -6.046875 C 1.546875 -6.046875 0.390625 -4.796875 0.390625 -2.875 C 0.390625 -0.421875 1.46875 0.203125 2.3125 0.203125 C 2.859375 0.203125 3.25 0 3.609375 -0.40625 C 4.03125 -0.875 4.203125 -1.296875 4.203125 -2 Z M 3.421875 -2 C 3.421875 -1.640625 3.421875 -1.28125 3.203125 -0.890625 C 3.03125 -0.625 2.78125 -0.390625 2.3125 -0.390625 C 1.359375 -0.390625 1.21875 -1.671875 1.1875 -1.953125 C 1.1875 -2.09375 1.1875 -2.109375 1.203125 -2.203125 C 1.203125 -2.890625 1.625 -3.5625 2.359375 -3.5625 C 2.6875 -3.5625 3 -3.4375 3.234375 -3.015625 C 3.40625 -2.6875 3.421875 -2.40625 3.421875 -2 Z M 3.421875 -2 "/>
</g>
<g id="glyph-0-42">
<path d="M 4.59375 -1.703125 C 4.59375 -2.71875 3.765625 -3.390625 3.09375 -3.546875 L 2.1875 -3.765625 C 1.734375 -3.875 1.265625 -4.21875 1.265625 -4.75 C 1.265625 -5.25 1.765625 -5.78125 2.578125 -5.78125 C 3.21875 -5.78125 3.671875 -5.59375 4.140625 -5.1875 L 4.28125 -5.96875 C 3.828125 -6.203125 3.40625 -6.40625 2.59375 -6.40625 C 1.3125 -6.40625 0.515625 -5.53125 0.515625 -4.625 C 0.515625 -4.40625 0.5625 -4.046875 0.859375 -3.640625 C 1.265625 -3.09375 1.859375 -2.96875 2.21875 -2.875 L 2.96875 -2.6875 C 3.390625 -2.5625 3.828125 -2.171875 3.828125 -1.609375 C 3.828125 -1.015625 3.328125 -0.46875 2.53125 -0.46875 C 1.796875 -0.46875 1.125 -0.75 0.5625 -1.203125 L 0.40625 -0.421875 C 1.296875 0.125 2.109375 0.203125 2.53125 0.203125 C 3.75 0.203125 4.59375 -0.71875 4.59375 -1.703125 Z M 4.59375 -1.703125 "/>
</g>
<g id="glyph-0-43">
<path d="M 4.59375 -2.171875 L 4.59375 -2.75 L 0 -2.75 L 0 -2.171875 Z M 4.59375 -2.171875 "/>
</g>
<g id="glyph-0-44">
<path d="M 4.203125 -1.625 C 4.203125 -2.1875 3.875 -2.84375 2.953125 -3.171875 C 3.515625 -3.328125 4.078125 -3.8125 4.078125 -4.484375 C 4.078125 -5.3125 3.3125 -6.046875 2.296875 -6.046875 C 1.25 -6.046875 0.515625 -5.296875 0.515625 -4.484375 C 0.515625 -3.8125 1.078125 -3.328125 1.640625 -3.171875 C 0.6875 -2.828125 0.390625 -2.15625 0.390625 -1.625 C 0.390625 -0.640625 1.234375 0.203125 2.296875 0.203125 C 3.390625 0.203125 4.203125 -0.65625 4.203125 -1.625 Z M 3.421875 -4.46875 C 3.421875 -3.921875 3.03125 -3.453125 2.296875 -3.453125 C 1.59375 -3.453125 1.171875 -3.890625 1.171875 -4.46875 C 1.171875 -5.078125 1.609375 -5.5 2.296875 -5.5 C 3.03125 -5.5 3.421875 -5.046875 3.421875 -4.46875 Z M 3.4375 -1.625 C 3.4375 -0.78125 2.890625 -0.390625 2.296875 -0.390625 C 1.671875 -0.390625 1.15625 -0.8125 1.15625 -1.625 C 1.15625 -2.578125 1.828125 -2.875 2.296875 -2.875 C 2.796875 -2.875 3.4375 -2.546875 3.4375 -1.625 Z M 3.4375 -1.625 "/>
</g>
<g id="glyph-0-45">
<path d="M 4.203125 -5.234375 L 4.203125 -5.859375 L 0.390625 -5.859375 L 0.390625 -5.1875 L 2.140625 -5.1875 C 2.25 -5.1875 2.359375 -5.1875 2.46875 -5.1875 L 3.5625 -5.1875 C 2.171875 -3.71875 1.390625 -1.921875 1.390625 0.09375 L 2.1875 0.09375 C 2.1875 -2.21875 3.171875 -4.09375 4.203125 -5.234375 Z M 4.203125 -5.234375 "/>
</g>
<g id="glyph-0-46">
<path d="M 5.125 0 L 5.125 -0.6875 L 4.234375 -0.6875 L 1.703125 -0.65625 L 1.703125 -2.921875 L 4.75 -2.921875 L 4.75 -3.515625 L 1.703125 -3.515625 L 1.703125 -5.578125 L 2.046875 -5.578125 L 4.234375 -5.5625 L 5 -5.5625 L 5 -6.1875 L 0.84375 -6.1875 L 0.84375 0 Z M 5.125 0 "/>
</g>
<g id="glyph-0-47">
<path d="M 4.203125 -2.984375 C 4.203125 -5.421875 3.15625 -6.046875 2.328125 -6.046875 C 1.8125 -6.046875 1.375 -5.875 0.96875 -5.4375 C 0.53125 -4.953125 0.390625 -4.546875 0.390625 -3.875 C 0.390625 -3.25 0.5 -2.8125 0.8125 -2.359375 C 1.125 -1.875 1.421875 -1.703125 1.859375 -1.703125 C 2.625 -1.703125 3.171875 -2.15625 3.40625 -2.453125 C 3.265625 -0.84375 2.484375 -0.390625 1.890625 -0.390625 C 1.640625 -0.390625 1.296875 -0.4375 0.953125 -0.71875 L 0.65625 -0.21875 C 1.0625 0.09375 1.46875 0.203125 1.890625 0.203125 C 3.09375 0.203125 4.203125 -1.046875 4.203125 -2.984375 Z M 3.390625 -3.671875 C 3.390625 -2.9375 2.9375 -2.296875 2.234375 -2.296875 C 1.75 -2.296875 1.546875 -2.546875 1.390625 -2.78125 C 1.171875 -3.140625 1.15625 -3.484375 1.15625 -3.875 C 1.15625 -4.25 1.171875 -4.640625 1.453125 -5.03125 C 1.5625 -5.1875 1.796875 -5.5 2.328125 -5.5 C 3.265625 -5.5 3.375 -4.203125 3.390625 -3.875 C 3.390625 -3.828125 3.390625 -3.734375 3.390625 -3.671875 Z M 3.390625 -3.671875 "/>
</g>
<g id="glyph-0-48">
<path d="M 6.15625 -3.96875 L 5.46875 -3.96875 C 5.25 -3.328125 4.515625 -1.03125 4.453125 -0.5 C 4.390625 -0.875 4.203125 -1.484375 4.0625 -1.984375 L 3.4375 -3.96875 L 2.78125 -3.96875 C 2.484375 -3.09375 1.859375 -1.09375 1.8125 -0.53125 C 1.78125 -0.859375 1.546875 -1.671875 1.375 -2.234375 L 0.84375 -3.96875 L 0.125 -3.96875 L 1.390625 0 L 2.125 0 L 2.671875 -1.734375 C 2.859375 -2.359375 3.078125 -3.078125 3.09375 -3.46875 L 3.109375 -3.46875 C 3.125 -3.296875 3.203125 -2.953125 3.21875 -2.859375 C 3.328125 -2.46875 3.328125 -2.4375 3.390625 -2.21875 L 4.078125 0 L 4.890625 0 Z M 6.15625 -3.96875 "/>
</g>
<g id="glyph-0-49">
<path d="M 1.65625 0 L 1.65625 -0.765625 L 0.890625 -0.765625 L 0.890625 0 Z M 1.65625 0 "/>
</g>
<g id="glyph-0-50">
<path d="M 1.65625 -0.015625 L 1.65625 -0.765625 L 0.890625 -0.765625 L 0.890625 0 L 1.125 0 L 0.875 1.140625 L 1.265625 1.140625 Z M 1.65625 -0.015625 "/>
</g>
<g id="glyph-1-0">
<path d="M 3.859375 -1.453125 C 3.859375 -2.0625 3.40625 -2.59375 2.71875 -2.8125 C 3.25 -2.984375 3.75 -3.40625 3.75 -4 C 3.75 -4.71875 3.046875 -5.390625 2.109375 -5.390625 C 1.15625 -5.390625 0.46875 -4.71875 0.46875 -4 C 0.46875 -3.390625 0.984375 -2.96875 1.5 -2.8125 C 0.796875 -2.59375 0.34375 -2.0625 0.34375 -1.453125 C 0.34375 -0.59375 1.109375 0.171875 2.109375 0.171875 C 3.109375 0.171875 3.859375 -0.59375 3.859375 -1.453125 Z M 3.140625 -3.984375 C 3.140625 -3.421875 2.6875 -3.078125 2.109375 -3.078125 C 1.546875 -3.078125 1.078125 -3.40625 1.078125 -3.984375 C 1.078125 -4.5 1.4375 -4.890625 2.109375 -4.890625 C 2.765625 -4.890625 3.140625 -4.5 3.140625 -3.984375 Z M 3.140625 -1.453125 C 3.140625 -0.703125 2.640625 -0.359375 2.109375 -0.359375 C 1.5625 -0.359375 1.078125 -0.703125 1.078125 -1.453125 C 1.078125 -2.171875 1.53125 -2.546875 2.109375 -2.546875 C 2.6875 -2.546875 3.140625 -2.15625 3.140625 -1.453125 Z M 3.140625 -1.453125 "/>
</g>
<g id="glyph-1-1">
<path d="M 3.640625 -2.40625 L 3.640625 -3.125 L 2.921875 -3.125 L 2.921875 -2.40625 Z M 3.640625 -2.40625 "/>
</g>
<g id="glyph-1-2">
<path d="M 4.09375 -3.0625 L 4 -3.609375 C 3.828125 -3.609375 3.296875 -3.609375 2.6875 -3.375 L 2.671875 -3.359375 C 2.390625 -3.5625 2.109375 -3.609375 1.875 -3.609375 C 1.09375 -3.609375 0.515625 -3 0.515625 -2.3125 C 0.515625 -2.03125 0.609375 -1.75 0.796875 -1.53125 C 0.6875 -1.390625 0.5625 -1.171875 0.5625 -0.859375 C 0.5625 -0.5625 0.6875 -0.359375 0.765625 -0.265625 C 0.328125 -0.015625 0.234375 0.359375 0.234375 0.546875 C 0.234375 1.15625 1.078125 1.625 2.109375 1.625 C 3.15625 1.625 3.984375 1.15625 3.984375 0.546875 C 3.984375 -0.578125 2.578125 -0.578125 2.25 -0.578125 L 1.5 -0.578125 C 1.375 -0.578125 1.03125 -0.578125 1.03125 -0.984375 C 1.03125 -1.140625 1.09375 -1.21875 1.09375 -1.234375 C 1.375 -1.0625 1.65625 -1.015625 1.875 -1.015625 C 2.640625 -1.015625 3.234375 -1.625 3.234375 -2.3125 C 3.234375 -2.5625 3.15625 -2.796875 3.015625 -3 C 2.984375 -3.046875 2.984375 -3.0625 2.984375 -3.0625 C 2.984375 -3.109375 3.453125 -3.109375 3.5 -3.109375 C 3.5 -3.109375 3.8125 -3.109375 4.09375 -3.0625 Z M 2.609375 -2.3125 C 2.609375 -1.6875 2.21875 -1.5 1.875 -1.5 C 1.453125 -1.5 1.125 -1.78125 1.125 -2.3125 C 1.125 -2.921875 1.53125 -3.125 1.875 -3.125 C 2.296875 -3.125 2.609375 -2.84375 2.609375 -2.3125 Z M 3.375 0.5625 C 3.375 0.90625 2.78125 1.140625 2.109375 1.140625 C 1.4375 1.140625 0.84375 0.90625 0.84375 0.5625 C 0.84375 0.515625 0.84375 0.046875 1.484375 0.046875 L 2.25 0.046875 C 2.4375 0.046875 3.375 0.046875 3.375 0.5625 Z M 3.375 0.5625 "/>
</g>
<g id="glyph-1-3">
<path d="M 3.46875 0 L 3.46875 -2.296875 C 3.46875 -3.109375 2.84375 -3.65625 2.0625 -3.65625 C 1.5625 -3.65625 1.171875 -3.546875 0.734375 -3.3125 L 0.78125 -2.734375 C 1.046875 -2.90625 1.4375 -3.140625 2.0625 -3.140625 C 2.40625 -3.140625 2.78125 -2.875 2.78125 -2.28125 L 2.78125 -1.96875 C 1.59375 -1.921875 0.4375 -1.671875 0.4375 -0.9375 C 0.4375 -0.546875 0.703125 0.078125 1.40625 0.078125 C 1.75 0.078125 2.375 0.015625 2.796875 -0.296875 L 2.796875 0 Z M 2.78125 -1.125 C 2.78125 -0.96875 2.78125 -0.765625 2.5 -0.59375 C 2.25 -0.453125 1.9375 -0.453125 1.84375 -0.453125 C 1.40625 -0.453125 1.078125 -0.640625 1.078125 -0.953125 C 1.078125 -1.453125 2.421875 -1.5 2.78125 -1.515625 Z M 2.78125 -1.125 "/>
</g>
<g id="glyph-1-4">
<path d="M 6.046875 0 L 6.046875 -2.359375 C 6.046875 -2.96875 5.859375 -3.609375 4.890625 -3.609375 C 4.21875 -3.609375 3.796875 -3.21875 3.609375 -2.96875 C 3.53125 -3.1875 3.328125 -3.609375 2.53125 -3.609375 C 2.078125 -3.609375 1.640625 -3.421875 1.296875 -3 L 1.296875 -3.59375 L 0.65625 -3.59375 L 0.65625 0 L 1.359375 0 L 1.359375 -1.9375 C 1.359375 -2.453125 1.578125 -3.078125 2.1875 -3.078125 C 3 -3.078125 3 -2.53125 3 -2.296875 L 3 0 L 3.703125 0 L 3.703125 -1.9375 C 3.703125 -2.453125 3.921875 -3.078125 4.53125 -3.078125 C 5.359375 -3.078125 5.359375 -2.53125 5.359375 -2.296875 L 5.359375 0 Z M 6.046875 0 "/>
</g>
<g id="glyph-1-5">
<path d="M 3.5 -1.734375 C 3.5 -2.109375 3.453125 -2.640625 3.15625 -3.09375 C 2.859375 -3.5 2.390625 -3.65625 2 -3.65625 C 1.03125 -3.65625 0.28125 -2.796875 0.28125 -1.796875 C 0.28125 -0.765625 1.078125 0.078125 2.125 0.078125 C 2.578125 0.078125 3.0625 -0.0625 3.46875 -0.296875 L 3.421875 -0.859375 C 2.96875 -0.546875 2.46875 -0.453125 2.125 -0.453125 C 1.4375 -0.453125 0.921875 -1.015625 0.890625 -1.734375 Z M 3.015625 -2.21875 L 0.953125 -2.21875 C 1.125 -2.859375 1.59375 -3.125 2 -3.125 C 2.34375 -3.125 2.859375 -2.953125 3.015625 -2.21875 Z M 3.015625 -2.21875 "/>
</g>
<g id="glyph-1-6">
<path d="M 2.34375 -1.515625 L 2.34375 -2.015625 L 0.09375 -2.015625 L 0.09375 -1.515625 Z M 2.34375 -1.515625 "/>
</g>
<g id="glyph-1-7">
<path d="M 3.6875 0 L 3.6875 -5.515625 L 3.015625 -5.515625 L 3.015625 -3.1875 C 2.5 -3.5625 1.984375 -3.609375 1.75 -3.609375 C 0.921875 -3.609375 0.28125 -2.78125 0.28125 -1.765625 C 0.28125 -0.75 0.921875 0.078125 1.734375 0.078125 C 2.234375 0.078125 2.6875 -0.140625 2.984375 -0.40625 L 2.984375 0 Z M 2.984375 -0.984375 C 2.796875 -0.65625 2.484375 -0.453125 2.109375 -0.453125 C 1.546875 -0.453125 0.984375 -0.828125 0.984375 -1.75 C 0.984375 -2.75 1.65625 -3.078125 2.1875 -3.078125 C 2.515625 -3.078125 2.78125 -2.953125 2.984375 -2.6875 Z M 2.984375 -0.984375 "/>
</g>
<g id="glyph-1-8">
<path d="M 3.765625 -3.53125 L 3.125 -3.53125 C 2.484375 -2.015625 2.03125 -0.984375 2 -0.5 C 1.984375 -0.71875 1.84375 -1.125 1.703125 -1.5 C 1.578125 -1.8125 1.453125 -2.125 1.296875 -2.4375 L 0.796875 -3.53125 L 0.125 -3.53125 L 1.765625 0 L 1.46875 0.703125 C 1.296875 1.03125 1.1875 1.140625 0.96875 1.140625 C 0.9375 1.140625 0.640625 1.140625 0.296875 1 L 0.34375 1.5625 C 0.421875 1.578125 0.71875 1.625 0.96875 1.625 C 1.28125 1.625 1.5625 1.5 1.90625 0.734375 Z M 3.765625 -3.53125 "/>
</g>
<g id="glyph-1-9">
<path d="M 2.8125 -0.21875 L 2.6875 -0.71875 C 2.421875 -0.53125 2.140625 -0.46875 1.921875 -0.46875 C 1.578125 -0.46875 1.5 -0.796875 1.5 -1.15625 L 1.5 -3.03125 L 2.671875 -3.03125 L 2.671875 -3.53125 L 1.5 -3.53125 L 1.5 -4.546875 L 0.875 -4.546875 L 0.875 -3.53125 L 0.15625 -3.53125 L 0.15625 -3.03125 L 0.859375 -3.03125 L 0.859375 -1.015625 C 0.859375 -0.484375 1 0.078125 1.5625 0.078125 C 2.140625 0.078125 2.578125 -0.109375 2.8125 -0.21875 Z M 2.8125 -0.21875 "/>
</g>
<g id="glyph-1-10">
<path d="M 1.53125 -2.8125 L 1.53125 -3.53125 L 0.8125 -3.53125 L 0.8125 -2.8125 Z M 1.53125 0 L 1.53125 -0.71875 L 0.8125 -0.71875 L 0.8125 0 Z M 1.53125 0 "/>
</g>
<g id="glyph-1-11">
<path d="M 1.34375 0 L 1.34375 -5.515625 L 0.671875 -5.515625 L 0.671875 0 Z M 1.34375 0 "/>
</g>
<g id="glyph-1-12">
<path d="M 3.703125 0 L 3.703125 -2.359375 C 3.703125 -2.96875 3.515625 -3.609375 2.53125 -3.609375 C 2.078125 -3.609375 1.640625 -3.421875 1.296875 -3 L 1.296875 -3.59375 L 0.65625 -3.59375 L 0.65625 0 L 1.359375 0 L 1.359375 -1.9375 C 1.359375 -2.453125 1.578125 -3.078125 2.1875 -3.078125 C 3 -3.078125 3 -2.53125 3 -2.296875 L 3 0 Z M 3.703125 0 "/>
</g>
<g id="glyph-1-13">
<path d="M 3.5 -0.28125 L 3.453125 -0.859375 C 3.0625 -0.609375 2.625 -0.46875 2.140625 -0.46875 C 1.40625 -0.46875 0.984375 -1.0625 0.984375 -1.78125 C 0.984375 -2.390625 1.296875 -3.109375 2.15625 -3.109375 C 2.703125 -3.109375 2.953125 -2.984375 3.359375 -2.734375 L 3.46875 -3.3125 C 2.984375 -3.546875 2.78125 -3.65625 2.15625 -3.65625 C 0.96875 -3.65625 0.28125 -2.6875 0.28125 -1.765625 C 0.28125 -0.796875 1.046875 0.078125 2.125 0.078125 C 2.6875 0.078125 3.171875 -0.09375 3.5 -0.28125 Z M 3.5 -0.28125 "/>
</g>
<g id="glyph-1-14">
<path d="M 2.484375 -3.03125 L 2.484375 -3.53125 L 1.484375 -3.53125 L 1.484375 -4.46875 C 1.484375 -4.9375 1.75 -5.078125 1.984375 -5.078125 C 2.234375 -5.078125 2.4375 -4.96875 2.484375 -4.9375 L 2.484375 -5.515625 C 2.46875 -5.53125 2.25 -5.59375 1.984375 -5.59375 C 1.375 -5.59375 0.84375 -5.046875 0.84375 -4.234375 L 0.84375 -3.53125 L 0.234375 -3.53125 L 0.234375 -3.03125 L 0.84375 -3.03125 L 0.84375 0 L 1.515625 0 L 1.515625 -3.03125 Z M 3.84375 0 L 3.84375 -5.515625 L 3.171875 -5.515625 L 3.171875 0 Z M 3.84375 0 "/>
</g>
<g id="glyph-1-15">
<path d="M 3.984375 -1.734375 C 3.984375 -2.796875 3.140625 -3.65625 2.109375 -3.65625 C 1.078125 -3.65625 0.234375 -2.78125 0.234375 -1.734375 C 0.234375 -0.734375 1.078125 0.078125 2.109375 0.078125 C 3.140625 0.078125 3.984375 -0.734375 3.984375 -1.734375 Z M 3.28125 -1.828125 C 3.28125 -0.921875 2.71875 -0.46875 2.109375 -0.46875 C 1.484375 -0.46875 0.9375 -0.9375 0.9375 -1.828125 C 0.9375 -2.734375 1.515625 -3.125 2.109375 -3.125 C 2.703125 -3.125 3.28125 -2.71875 3.28125 -1.828125 Z M 3.28125 -1.828125 "/>
</g>
<g id="glyph-1-16">
<path d="M 2.765625 -3.015625 L 2.765625 -3.609375 C 2.09375 -3.609375 1.609375 -3.28125 1.28125 -2.859375 L 1.28125 -3.59375 L 0.671875 -3.59375 L 0.671875 0 L 1.34375 0 L 1.34375 -1.6875 C 1.34375 -2.546875 2.0625 -3.015625 2.765625 -3.015625 Z M 2.765625 -3.015625 "/>
</g>
<g id="glyph-1-17">
<path d="M 3.703125 0 L 3.703125 -2.359375 C 3.703125 -2.96875 3.515625 -3.609375 2.53125 -3.609375 C 1.859375 -3.609375 1.484375 -3.21875 1.328125 -3.046875 L 1.328125 -5.515625 L 0.65625 -5.515625 L 0.65625 0 L 1.359375 0 L 1.359375 -1.9375 C 1.359375 -2.453125 1.578125 -3.078125 2.1875 -3.078125 C 3 -3.078125 3 -2.53125 3 -2.296875 L 3 0 Z M 3.703125 0 "/>
</g>
<g id="glyph-1-18">
<path d="M 3.046875 -1.03125 C 3.046875 -1.171875 3.03125 -1.484375 2.703125 -1.796875 C 2.40625 -2.046875 2.109375 -2.109375 1.734375 -2.171875 C 1.265625 -2.265625 0.90625 -2.34375 0.90625 -2.6875 C 0.90625 -3.140625 1.484375 -3.140625 1.59375 -3.140625 C 2.046875 -3.140625 2.40625 -3.046875 2.796875 -2.84375 L 2.90625 -3.40625 C 2.359375 -3.625 1.96875 -3.65625 1.671875 -3.65625 C 1.484375 -3.65625 0.28125 -3.65625 0.28125 -2.59375 C 0.28125 -2.21875 0.484375 -2.015625 0.59375 -1.921875 C 0.859375 -1.640625 1.203125 -1.578125 1.625 -1.5 C 2 -1.421875 2.421875 -1.34375 2.421875 -0.96875 C 2.421875 -0.46875 1.765625 -0.46875 1.65625 -0.46875 C 1.140625 -0.46875 0.671875 -0.640625 0.34375 -0.859375 L 0.234375 -0.265625 C 0.515625 -0.140625 1 0.078125 1.65625 0.078125 C 2.015625 0.078125 2.359375 0.03125 2.65625 -0.1875 C 2.953125 -0.40625 3.046875 -0.765625 3.046875 -1.03125 Z M 3.046875 -1.03125 "/>
</g>
<g id="glyph-1-19">
<path d="M 3.515625 -4.359375 C 3.515625 -4.984375 3.109375 -5.59375 1.890625 -5.59375 C 1.40625 -5.59375 0.9375 -5.484375 0.46875 -5.1875 L 0.65625 -4.640625 C 1.21875 -5.078125 1.734375 -5.078125 1.90625 -5.078125 C 2.234375 -5.078125 2.828125 -5.046875 2.828125 -4.375 C 2.828125 -4.046875 2.671875 -3.90625 2.5 -3.78125 C 1.953125 -3.328125 1.59375 -2.625 1.59375 -1.828125 L 1.59375 -1.4375 L 2.15625 -1.4375 L 2.15625 -1.796875 C 2.15625 -2.71875 2.84375 -3.265625 3.078125 -3.4375 C 3.375 -3.671875 3.515625 -4 3.515625 -4.359375 Z M 2.234375 0 L 2.234375 -0.71875 L 1.515625 -0.71875 L 1.515625 0 Z M 2.234375 0 "/>
</g>
<g id="glyph-1-20">
<path d="M 4.078125 -1.78125 C 4.078125 -2.734375 3.546875 -3.609375 2.765625 -3.609375 C 2.40625 -3.609375 1.8125 -3.5 1.34375 -3.15625 L 1.34375 -3.53125 L 0.671875 -3.53125 L 0.671875 1.546875 L 1.375 1.546875 L 1.375 -0.375 C 1.796875 0.015625 2.25 0.078125 2.515625 0.078125 C 3.359375 0.078125 4.078125 -0.71875 4.078125 -1.78125 Z M 3.375 -1.78125 C 3.375 -0.984375 2.78125 -0.453125 2.15625 -0.453125 C 2.046875 -0.453125 1.84375 -0.46875 1.640625 -0.625 C 1.40625 -0.8125 1.375 -0.9375 1.375 -1.078125 L 1.375 -2.640625 C 1.546875 -2.859375 1.859375 -3.0625 2.25 -3.0625 C 2.875 -3.0625 3.375 -2.46875 3.375 -1.78125 Z M 3.375 -1.78125 "/>
</g>
<g id="glyph-1-21">
<path d="M 2.921875 -4.9375 L 2.921875 -5.515625 C 2.71875 -5.5625 2.46875 -5.59375 2.265625 -5.59375 C 1.4375 -5.59375 0.84375 -5.015625 0.84375 -4.21875 L 0.84375 -3.53125 L 0.234375 -3.53125 L 0.234375 -3.03125 L 0.84375 -3.03125 L 0.84375 0 L 1.515625 0 L 1.515625 -3.03125 L 2.421875 -3.03125 L 2.421875 -3.53125 L 1.484375 -3.53125 L 1.484375 -4.453125 C 1.484375 -5 1.984375 -5.078125 2.25 -5.078125 C 2.421875 -5.078125 2.625 -5.046875 2.921875 -4.9375 Z M 2.921875 -4.9375 "/>
</g>
<g id="glyph-1-22">
<path d="M 1.34375 0 L 1.34375 -3.53125 L 0.671875 -3.53125 L 0.671875 0 Z M 1.40625 -4.453125 L 1.40625 -5.25 L 0.609375 -5.25 L 0.609375 -4.453125 Z M 1.40625 -4.453125 "/>
</g>
<g id="glyph-1-23">
<path d="M 3.703125 0 L 3.703125 -3.53125 L 3 -3.53125 L 3 -1.21875 C 3 -0.59375 2.46875 -0.390625 2 -0.390625 C 1.421875 -0.390625 1.359375 -0.546875 1.359375 -0.921875 L 1.359375 -3.53125 L 0.65625 -3.53125 L 0.65625 -0.859375 C 0.65625 -0.15625 0.96875 0.078125 1.53125 0.078125 C 1.859375 0.078125 2.546875 0.015625 3.03125 -0.359375 L 3.03125 0 Z M 3.703125 0 "/>
</g>
</g>
<clipPath id="clip-0">
<path clip-rule="nonzero" d="M 0.222656 81 L 201 81 L 201 118 L 0.222656 118 Z M 0.222656 81 "/>
</clipPath>
<clipPath id="clip-1">
<path clip-rule="nonzero" d="M 32 377 L 169 377 L 169 429.699219 L 32 429.699219 Z M 32 377 "/>
</clipPath>
<clipPath id="clip-2">
<path clip-rule="nonzero" d="M 226 307 L 343.636719 307 L 343.636719 352 L 226 352 Z M 226 307 "/>
</clipPath>
</defs>
<path fill-rule="nonzero" fill="rgb(87.841797%, 94.900513%, 94.509888%)" fill-opacity="1" stroke-width="0.59776" stroke-linecap="butt" stroke-linejoin="miter" stroke="rgb(0%, 53.72467%, 48.234558%)" stroke-opacity="1" stroke-miterlimit="10" d="M 85.562338 9.459223 L -85.562927 9.459223 C -86.662241 9.459223 -87.554211 8.567253 -87.554211 7.467938 L -87.554211 -7.46865 C -87.554211 -8.567964 -86.662241 -9.459935 -85.562927 -9.459935 L 85.562338 -9.459935 C 86.661653 -9.459935 87.553623 -8.567964 87.553623 -7.46865 L 87.553623 7.467938 C 87.553623 8.567253 86.661653 9.459223 85.562338 9.459223 Z M 85.562338 9.459223 " transform="matrix(0.998492, 0, 0, -0.998492, 100.203419, 17.706676)"/>
<g fill="rgb(0%, 0%, 0%)" fill-opacity="1">
<use xlink:href="#glyph-0-0" x="17.755498" y="19.949398"/>
</g>
<g fill="rgb(0%, 0%, 0%)" fill-opacity="1">
<use xlink:href="#glyph-0-1" x="25.428093" y="19.949398"/>
</g>
<g fill="rgb(0%, 0%, 0%)" fill-opacity="1">
<use xlink:href="#glyph-0-2" x="35.652252" y="19.949398"/>
<use xlink:href="#glyph-0-3" x="42.447468" y="19.949398"/>
<use xlink:href="#glyph-0-4" x="49.099438" y="19.949398"/>
<use xlink:href="#glyph-0-5" x="54.981463" y="19.949398"/>
</g>
<g fill="rgb(0%, 0%, 0%)" fill-opacity="1">
<use xlink:href="#glyph-0-6" x="64.014892" y="19.949398"/>
<use xlink:href="#glyph-0-7" x="68.106347" y="19.949398"/>
<use xlink:href="#glyph-0-8" x="72.529056" y="19.949398"/>
<use xlink:href="#glyph-0-9" x="77.283022" y="19.949398"/>
<use xlink:href="#glyph-0-10" x="80.60453" y="19.949398"/>
<use xlink:href="#glyph-0-11" x="85.358496" y="19.949398"/>
<use xlink:href="#glyph-0-12" x="88.500947" y="19.949398"/>
</g>
<g fill="rgb(0%, 0%, 0%)" fill-opacity="1">
<use xlink:href="#glyph-0-13" x="95.66323" y="19.949398"/>
<use xlink:href="#glyph-0-14" x="99.244371" y="19.949398"/>
<use xlink:href="#glyph-0-0" x="105.574039" y="19.949398"/>
<use xlink:href="#glyph-0-15" x="110.175806" y="19.949398"/>
<use xlink:href="#glyph-0-16" x="114.777573" y="19.949398"/>
</g>
<g fill="rgb(0%, 0%, 0%)" fill-opacity="1">
<use xlink:href="#glyph-0-17" x="121.429543" y="19.949398"/>
</g>
<g fill="rgb(0%, 0%, 0%)" fill-opacity="1">
<use xlink:href="#glyph-0-18" x="133.703905" y="19.949398"/>
<use xlink:href="#glyph-0-19" x="138.45787" y="19.949398"/>
<use xlink:href="#glyph-0-20" x="143.059637" y="19.949398"/>
<use xlink:href="#glyph-0-21" x="145.253086" y="19.949398"/>
</g>
<g fill="rgb(0%, 0%, 0%)" fill-opacity="1">
<use xlink:href="#glyph-0-22" x="153.07788" y="19.949398"/>
<use xlink:href="#glyph-0-23" x="155.271329" y="19.949398"/>
</g>
<g fill="rgb(0%, 0%, 0%)" fill-opacity="1">
<use xlink:href="#glyph-0-8" x="163.096124" y="19.949398"/>
<use xlink:href="#glyph-0-20" x="167.850089" y="19.949398"/>
<use xlink:href="#glyph-0-7" x="170.043538" y="19.949398"/>
<use xlink:href="#glyph-0-6" x="174.466248" y="19.949398"/>
<use xlink:href="#glyph-0-12" x="178.557702" y="19.949398"/>
</g>
<path fill-rule="nonzero" fill="rgb(87.841797%, 94.900513%, 94.509888%)" fill-opacity="1" stroke-width="0.59776" stroke-linecap="butt" stroke-linejoin="miter" stroke="rgb(0%, 53.72467%, 48.234558%)" stroke-opacity="1" stroke-miterlimit="10" d="M 79.193358 -31.317117 L -79.193946 -31.317117 C -80.297173 -31.317117 -81.189143 -32.209087 -81.189143 -33.312313 L -81.189143 -48.24499 C -81.189143 -49.344304 -80.297173 -50.240186 -79.193946 -50.240186 L 79.193358 -50.240186 C 80.296585 -50.240186 81.188555 -49.344304 81.188555 -48.24499 L 81.188555 -33.312313 C 81.188555 -32.209087 80.296585 -31.317117 79.193358 -31.317117 Z M 79.193358 -31.317117 " transform="matrix(0.998492, 0, 0, -0.998492, 100.203419, 17.706676)"/>
<g fill="rgb(0%, 0%, 0%)" fill-opacity="1">
<use xlink:href="#glyph-0-24" x="24.112127" y="60.66604"/>
</g>
<g fill="rgb(0%, 0%, 0%)" fill-opacity="1">
<use xlink:href="#glyph-0-1" x="31.784722" y="60.66604"/>
</g>
<g fill="rgb(0%, 0%, 0%)" fill-opacity="1">
<use xlink:href="#glyph-0-25" x="42.008881" y="60.66604"/>
<use xlink:href="#glyph-0-26" x="50.048544" y="60.66604"/>
<use xlink:href="#glyph-0-27" x="54.65031" y="60.66604"/>
<use xlink:href="#glyph-0-9" x="61.955839" y="60.66604"/>
</g>
<g fill="rgb(0%, 0%, 0%)" fill-opacity="1">
<use xlink:href="#glyph-0-6" x="68.348177" y="60.66604"/>
<use xlink:href="#glyph-0-20" x="72.439631" y="60.66604"/>
<use xlink:href="#glyph-0-10" x="74.63308" y="60.66604"/>
<use xlink:href="#glyph-0-28" x="79.387045" y="60.66604"/>
<use xlink:href="#glyph-0-9" x="82.914469" y="60.66604"/>
<use xlink:href="#glyph-0-12" x="86.235978" y="60.66604"/>
<use xlink:href="#glyph-0-11" x="90.327432" y="60.66604"/>
</g>
<g fill="rgb(0%, 0%, 0%)" fill-opacity="1">
<use xlink:href="#glyph-0-29" x="96.540713" y="60.66604"/>
</g>
<g fill="rgb(0%, 0%, 0%)" fill-opacity="1">
<use xlink:href="#glyph-0-30" x="106.764871" y="60.66604"/>
<use xlink:href="#glyph-0-11" x="112.915482" y="60.66604"/>
<use xlink:href="#glyph-0-26" x="116.057933" y="60.66604"/>
<use xlink:href="#glyph-0-19" x="120.6597" y="60.66604"/>
<use xlink:href="#glyph-0-4" x="125.261467" y="60.66604"/>
<use xlink:href="#glyph-0-3" x="131.143492" y="60.66604"/>
</g>
<g fill="rgb(0%, 0%, 0%)" fill-opacity="1">
<use xlink:href="#glyph-0-18" x="140.866291" y="60.66604"/>
<use xlink:href="#glyph-0-10" x="145.620256" y="60.66604"/>
<use xlink:href="#glyph-0-31" x="150.374221" y="60.66604"/>
</g>
<g fill="rgb(0%, 0%, 0%)" fill-opacity="1">
<use xlink:href="#glyph-0-13" x="158.199015" y="60.66604"/>
<use xlink:href="#glyph-0-14" x="161.780157" y="60.66604"/>
<use xlink:href="#glyph-0-24" x="168.109824" y="60.66604"/>
<use xlink:href="#glyph-0-16" x="172.711591" y="60.66604"/>
</g>
<path fill-rule="nonzero" fill="rgb(87.841797%, 94.900513%, 94.509888%)" fill-opacity="1" d="M 189.9375 89.695312 L 10.46875 89.695312 C 9.371094 89.695312 8.480469 90.585938 8.480469 91.683594 L 8.480469 106.597656 C 8.480469 107.695312 9.371094 108.585938 10.46875 108.585938 L 189.9375 108.585938 C 191.035156 108.585938 191.925781 107.695312 191.925781 106.597656 L 191.925781 91.683594 C 191.925781 90.585938 191.035156 89.695312 189.9375 89.695312 Z M 189.9375 89.695312 "/>
<g clip-path="url(#clip-0)">
<path fill="none" stroke-width="0.59776" stroke-linecap="butt" stroke-linejoin="miter" stroke="rgb(0%, 53.72467%, 48.234558%)" stroke-opacity="1" stroke-miterlimit="10" d="M 89.869616 -72.097368 L -89.870204 -72.097368 C -90.969518 -72.097368 -91.861488 -72.989338 -91.861488 -74.088653 L -91.861488 -89.025241 C -91.861488 -90.124555 -90.969518 -91.016526 -89.870204 -91.016526 L 89.869616 -91.016526 C 90.96893 -91.016526 91.8609 -90.124555 91.8609 -89.025241 L 91.8609 -74.088653 C 91.8609 -72.989338 90.96893 -72.097368 89.869616 -72.097368 Z M 89.869616 -72.097368 " transform="matrix(0.998492, 0, 0, -0.998492, 100.203419, 17.706676)"/>
</g>
<g fill="rgb(0%, 0%, 0%)" fill-opacity="1">
<use xlink:href="#glyph-0-32" x="13.453615" y="101.382672"/>
</g>
<g fill="rgb(0%, 0%, 0%)" fill-opacity="1">
<use xlink:href="#glyph-0-1" x="21.126211" y="101.382672"/>
</g>
<g fill="rgb(0%, 0%, 0%)" fill-opacity="1">
<use xlink:href="#glyph-0-33" x="31.35037" y="101.382672"/>
<use xlink:href="#glyph-0-22" x="37.232395" y="101.382672"/>
<use xlink:href="#glyph-0-20" x="39.425844" y="101.382672"/>
<use xlink:href="#glyph-0-19" x="41.619293" y="101.382672"/>
<use xlink:href="#glyph-0-9" x="46.22106" y="101.382672"/>
</g>
<g fill="rgb(0%, 0%, 0%)" fill-opacity="1">
<use xlink:href="#glyph-0-11" x="52.613397" y="101.382672"/>
<use xlink:href="#glyph-0-12" x="55.755849" y="101.382672"/>
<use xlink:href="#glyph-0-26" x="59.847303" y="101.382672"/>
<use xlink:href="#glyph-0-22" x="64.44907" y="101.382672"/>
<use xlink:href="#glyph-0-19" x="66.642519" y="101.382672"/>
<use xlink:href="#glyph-0-23" x="71.244285" y="101.382672"/>
</g>
<g fill="rgb(0%, 0%, 0%)" fill-opacity="1">
<use xlink:href="#glyph-0-29" x="79.06908" y="101.382672"/>
</g>
<g fill="rgb(0%, 0%, 0%)" fill-opacity="1">
<use xlink:href="#glyph-0-34" x="89.293238" y="101.382672"/>
<use xlink:href="#glyph-0-7" x="95.694529" y="101.382672"/>
</g>
<g fill="rgb(0%, 0%, 0%)" fill-opacity="1">
<use xlink:href="#glyph-0-11" x="99.866559" y="101.382672"/>
<use xlink:href="#glyph-0-8" x="103.00901" y="101.382672"/>
</g>
<g fill="rgb(0%, 0%, 0%)" fill-opacity="1">
<use xlink:href="#glyph-0-12" x="108.013655" y="101.382672"/>
<use xlink:href="#glyph-0-23" x="112.105109" y="101.382672"/>
<use xlink:href="#glyph-0-9" x="116.859075" y="101.382672"/>
<use xlink:href="#glyph-0-12" x="120.180583" y="101.382672"/>
<use xlink:href="#glyph-0-11" x="124.272038" y="101.382672"/>
</g>
<g fill="rgb(0%, 0%, 0%)" fill-opacity="1">
<use xlink:href="#glyph-0-18" x="130.485318" y="101.382672"/>
<use xlink:href="#glyph-0-12" x="135.239283" y="101.382672"/>
<use xlink:href="#glyph-0-20" x="139.330737" y="101.382672"/>
<use xlink:href="#glyph-0-21" x="141.524186" y="101.382672"/>
</g>
<g fill="rgb(0%, 0%, 0%)" fill-opacity="1">
<use xlink:href="#glyph-0-35" x="149.348981" y="101.382672"/>
<use xlink:href="#glyph-0-12" x="154.282003" y="101.382672"/>
<use xlink:href="#glyph-0-12" x="158.373457" y="101.382672"/>
<use xlink:href="#glyph-0-9" x="162.464911" y="101.382672"/>
</g>
<g fill="rgb(0%, 0%, 0%)" fill-opacity="1">
<use xlink:href="#glyph-0-13" x="168.857249" y="101.382672"/>
<use xlink:href="#glyph-0-14" x="172.43839" y="101.382672"/>
<use xlink:href="#glyph-0-32" x="178.768058" y="101.382672"/>
<use xlink:href="#glyph-0-16" x="183.369824" y="101.382672"/>
</g>
<path fill-rule="nonzero" fill="rgb(87.841797%, 94.900513%, 94.509888%)" fill-opacity="1" stroke-width="0.59776" stroke-linecap="butt" stroke-linejoin="miter" stroke="rgb(0%, 53.72467%, 48.234558%)" stroke-opacity="1" stroke-miterlimit="10" d="M 54.327733 -112.873708 L -54.328321 -112.873708 C -55.427635 -112.873708 -56.319605 -113.765678 -56.319605 -114.864992 L -56.319605 -128.913523 C -56.319605 -130.012837 -55.427635 -130.908719 -54.328321 -130.908719 L 54.327733 -130.908719 C 55.427047 -130.908719 56.319017 -130.012837 56.319017 -128.913523 L 56.319017 -114.864992 C 56.319017 -113.765678 55.427047 -112.873708 54.327733 -112.873708 Z M 54.327733 -112.873708 " transform="matrix(0.998492, 0, 0, -0.998492, 100.203419, 17.706676)"/>
<g fill="rgb(0%, 0%, 0%)" fill-opacity="1">
<use xlink:href="#glyph-0-36" x="48.943192" y="141.597951"/>
</g>
<g fill="rgb(0%, 0%, 0%)" fill-opacity="1">
<use xlink:href="#glyph-0-1" x="56.615788" y="141.597951"/>
</g>
<g fill="rgb(0%, 0%, 0%)" fill-opacity="1">
<use xlink:href="#glyph-0-5" x="66.839946" y="141.597951"/>
<use xlink:href="#glyph-0-12" x="72.802547" y="141.597951"/>
<use xlink:href="#glyph-0-26" x="76.894001" y="141.597951"/>
<use xlink:href="#glyph-0-22" x="81.495768" y="141.597951"/>
<use xlink:href="#glyph-0-28" x="83.689217" y="141.597951"/>
<use xlink:href="#glyph-0-9" x="87.216641" y="141.597951"/>
<use xlink:href="#glyph-0-12" x="90.53815" y="141.597951"/>
<use xlink:href="#glyph-0-11" x="94.629604" y="141.597951"/>
</g>
<g fill="rgb(0%, 0%, 0%)" fill-opacity="1">
<use xlink:href="#glyph-0-28" x="100.842884" y="141.597951"/>
<use xlink:href="#glyph-0-6" x="104.370309" y="141.597951"/>
<use xlink:href="#glyph-0-19" x="108.461763" y="141.597951"/>
<use xlink:href="#glyph-0-8" x="113.06353" y="141.597951"/>
</g>
<g fill="rgb(0%, 0%, 0%)" fill-opacity="1">
<use xlink:href="#glyph-0-12" x="118.077128" y="141.597951"/>
<use xlink:href="#glyph-0-21" x="122.168582" y="141.597951"/>
</g>
<g fill="rgb(0%, 0%, 0%)" fill-opacity="1">
<use xlink:href="#glyph-0-28" x="129.993376" y="141.597951"/>
<use xlink:href="#glyph-0-8" x="133.5208" y="141.597951"/>
</g>
<g fill="rgb(0%, 0%, 0%)" fill-opacity="1">
<use xlink:href="#glyph-0-19" x="138.534398" y="141.597951"/>
<use xlink:href="#glyph-0-37" x="143.136165" y="141.597951"/>
</g>
<g fill="rgb(0%, 0%, 0%)" fill-opacity="1">
<use xlink:href="#glyph-0-12" x="147.379818" y="141.597951"/>
</g>
<path fill-rule="nonzero" fill="rgb(87.841797%, 94.900513%, 94.509888%)" fill-opacity="1" stroke-width="0.59776" stroke-linecap="butt" stroke-linejoin="miter" stroke="rgb(0%, 53.72467%, 48.234558%)" stroke-opacity="1" stroke-miterlimit="10" d="M 84.525619 -152.765901 L -84.526207 -152.765901 C -85.625521 -152.765901 -86.517491 -153.657871 -86.517491 -154.757185 L -86.517491 -169.693774 C -86.517491 -170.793088 -85.625521 -171.685058 -84.526207 -171.685058 L 84.525619 -171.685058 C 85.624933 -171.685058 86.516903 -170.793088 86.516903 -169.693774 L 86.516903 -154.757185 C 86.516903 -153.657871 85.624933 -152.765901 84.525619 -152.765901 Z M 84.525619 -152.765901 " transform="matrix(0.998492, 0, 0, -0.998492, 100.203419, 17.706676)"/>
<g fill="rgb(0%, 0%, 0%)" fill-opacity="1">
<use xlink:href="#glyph-0-15" x="18.789586" y="181.929634"/>
</g>
<g fill="rgb(0%, 0%, 0%)" fill-opacity="1">
<use xlink:href="#glyph-0-1" x="26.462181" y="181.929634"/>
</g>
<g fill="rgb(0%, 0%, 0%)" fill-opacity="1">
<use xlink:href="#glyph-0-33" x="36.68634" y="181.929634"/>
</g>
<g fill="rgb(0%, 0%, 0%)" fill-opacity="1">
<use xlink:href="#glyph-0-19" x="42.317685" y="181.929634"/>
<use xlink:href="#glyph-0-20" x="46.919452" y="181.929634"/>
<use xlink:href="#glyph-0-22" x="49.112901" y="181.929634"/>
<use xlink:href="#glyph-0-6" x="51.30635" y="181.929634"/>
<use xlink:href="#glyph-0-38" x="55.397804" y="181.929634"/>
</g>
<g fill="rgb(0%, 0%, 0%)" fill-opacity="1">
<use xlink:href="#glyph-0-8" x="62.703333" y="181.929634"/>
<use xlink:href="#glyph-0-20" x="67.457298" y="181.929634"/>
<use xlink:href="#glyph-0-7" x="69.650747" y="181.929634"/>
<use xlink:href="#glyph-0-23" x="74.073457" y="181.929634"/>
<use xlink:href="#glyph-0-12" x="78.827422" y="181.929634"/>
</g>
<g fill="rgb(0%, 0%, 0%)" fill-opacity="1">
<use xlink:href="#glyph-0-17" x="85.989705" y="181.929634"/>
</g>
<g fill="rgb(0%, 0%, 0%)" fill-opacity="1">
<use xlink:href="#glyph-0-34" x="98.264068" y="181.929634"/>
<use xlink:href="#glyph-0-38" x="104.665358" y="181.929634"/>
<use xlink:href="#glyph-0-39" x="108.90901" y="181.929634"/>
<use xlink:href="#glyph-0-12" x="113.152663" y="181.929634"/>
<use xlink:href="#glyph-0-11" x="117.244117" y="181.929634"/>
<use xlink:href="#glyph-0-23" x="120.386569" y="181.929634"/>
<use xlink:href="#glyph-0-19" x="125.140534" y="181.929634"/>
</g>
<g fill="rgb(0%, 0%, 0%)" fill-opacity="1">
<use xlink:href="#glyph-0-29" x="132.81313" y="181.929634"/>
</g>
<g fill="rgb(0%, 0%, 0%)" fill-opacity="1">
<use xlink:href="#glyph-0-40" x="143.037289" y="181.929634"/>
</g>
<g fill="rgb(0%, 0%, 0%)" fill-opacity="1">
<use xlink:href="#glyph-0-30" x="148.426906" y="181.929634"/>
<use xlink:href="#glyph-0-33" x="154.577517" y="181.929634"/>
</g>
<g fill="rgb(0%, 0%, 0%)" fill-opacity="1">
<use xlink:href="#glyph-0-13" x="163.521418" y="181.929634"/>
<use xlink:href="#glyph-0-14" x="167.102559" y="181.929634"/>
<use xlink:href="#glyph-0-15" x="173.432227" y="181.929634"/>
<use xlink:href="#glyph-0-16" x="178.033993" y="181.929634"/>
</g>
<path fill-rule="nonzero" fill="rgb(87.841797%, 94.900513%, 94.509888%)" fill-opacity="1" stroke-width="0.59776" stroke-linecap="butt" stroke-linejoin="miter" stroke="rgb(0%, 53.72467%, 48.234558%)" stroke-opacity="1" stroke-miterlimit="10" d="M 71.357322 -193.54224 L -71.35791 -193.54224 C -72.457224 -193.54224 -73.349194 -194.434211 -73.349194 -195.533525 L -73.349194 -210.470113 C -73.349194 -211.569428 -72.457224 -212.461398 -71.35791 -212.461398 L 71.357322 -212.461398 C 72.460548 -212.461398 73.352518 -211.569428 73.352518 -210.470113 L 73.352518 -195.533525 C 73.352518 -194.434211 72.460548 -193.54224 71.357322 -193.54224 Z M 71.357322 -193.54224 " transform="matrix(0.998492, 0, 0, -0.998492, 100.203419, 17.706676)"/>
<g fill="rgb(0%, 0%, 0%)" fill-opacity="1">
<use xlink:href="#glyph-0-41" x="31.937028" y="222.646265"/>
</g>
<g fill="rgb(0%, 0%, 0%)" fill-opacity="1">
<use xlink:href="#glyph-0-1" x="39.609624" y="222.646265"/>
</g>
<g fill="rgb(0%, 0%, 0%)" fill-opacity="1">
<use xlink:href="#glyph-0-42" x="49.833782" y="222.646265"/>
<use xlink:href="#glyph-0-6" x="54.945862" y="222.646265"/>
<use xlink:href="#glyph-0-18" x="59.037316" y="222.646265"/>
<use xlink:href="#glyph-0-12" x="63.791281" y="222.646265"/>
<use xlink:href="#glyph-0-21" x="67.882735" y="222.646265"/>
<use xlink:href="#glyph-0-10" x="72.636701" y="222.646265"/>
<use xlink:href="#glyph-0-20" x="77.390666" y="222.646265"/>
<use xlink:href="#glyph-0-22" x="79.584115" y="222.646265"/>
<use xlink:href="#glyph-0-23" x="81.777564" y="222.646265"/>
<use xlink:href="#glyph-0-26" x="86.531529" y="222.646265"/>
</g>
<g fill="rgb(0%, 0%, 0%)" fill-opacity="1">
<use xlink:href="#glyph-0-29" x="94.204125" y="222.646265"/>
</g>
<g fill="rgb(0%, 0%, 0%)" fill-opacity="1">
<use xlink:href="#glyph-0-20" x="104.428284" y="222.646265"/>
<use xlink:href="#glyph-0-12" x="106.621733" y="222.646265"/>
<use xlink:href="#glyph-0-23" x="110.713187" y="222.646265"/>
<use xlink:href="#glyph-0-21" x="115.467152" y="222.646265"/>
<use xlink:href="#glyph-0-22" x="120.221118" y="222.646265"/>
<use xlink:href="#glyph-0-23" x="122.414567" y="222.646265"/>
<use xlink:href="#glyph-0-26" x="127.168532" y="222.646265"/>
</g>
<g fill="rgb(0%, 0%, 0%)" fill-opacity="1">
<use xlink:href="#glyph-0-13" x="134.841128" y="222.646265"/>
<use xlink:href="#glyph-0-14" x="138.422269" y="222.646265"/>
<use xlink:href="#glyph-0-41" x="144.751937" y="222.646265"/>
<use xlink:href="#glyph-0-43" x="149.353703" y="222.646265"/>
<use xlink:href="#glyph-0-14" x="153.95547" y="222.646265"/>
<use xlink:href="#glyph-0-44" x="160.285138" y="222.646265"/>
<use xlink:href="#glyph-0-16" x="164.886904" y="222.646265"/>
</g>
<path fill-rule="nonzero" fill="rgb(87.841797%, 94.900513%, 94.509888%)" fill-opacity="1" stroke-width="0.59776" stroke-linecap="butt" stroke-linejoin="miter" stroke="rgb(0%, 53.72467%, 48.234558%)" stroke-opacity="1" stroke-miterlimit="10" d="M 81.564121 -234.322492 L -81.560797 -234.322492 C -82.664023 -234.322492 -83.555994 -235.214462 -83.555994 -236.313776 L -83.555994 -251.250365 C -83.555994 -252.349679 -82.664023 -253.241649 -81.560797 -253.241649 L 81.564121 -253.241649 C 82.663435 -253.241649 83.555406 -252.349679 83.555406 -251.250365 L 83.555406 -236.313776 C 83.555406 -235.214462 82.663435 -234.322492 81.564121 -234.322492 Z M 81.564121 -234.322492 " transform="matrix(0.998492, 0, 0, -0.998492, 100.203419, 17.706676)"/>
<g fill="rgb(0%, 0%, 0%)" fill-opacity="1">
<use xlink:href="#glyph-0-45" x="21.748537" y="263.362907"/>
</g>
<g fill="rgb(0%, 0%, 0%)" fill-opacity="1">
<use xlink:href="#glyph-0-1" x="29.421132" y="263.362907"/>
</g>
<g fill="rgb(0%, 0%, 0%)" fill-opacity="1">
<use xlink:href="#glyph-0-46" x="39.645291" y="263.362907"/>
<use xlink:href="#glyph-0-39" x="45.169202" y="263.362907"/>
<use xlink:href="#glyph-0-22" x="49.412854" y="263.362907"/>
<use xlink:href="#glyph-0-21" x="51.606304" y="263.362907"/>
<use xlink:href="#glyph-0-12" x="56.360269" y="263.362907"/>
<use xlink:href="#glyph-0-23" x="60.451723" y="263.362907"/>
<use xlink:href="#glyph-0-6" x="65.205688" y="263.362907"/>
<use xlink:href="#glyph-0-12" x="69.297142" y="263.362907"/>
</g>
<g fill="rgb(0%, 0%, 0%)" fill-opacity="1">
<use xlink:href="#glyph-0-8" x="76.459425" y="263.362907"/>
<use xlink:href="#glyph-0-20" x="81.21339" y="263.362907"/>
<use xlink:href="#glyph-0-7" x="83.40684" y="263.362907"/>
<use xlink:href="#glyph-0-23" x="87.829549" y="263.362907"/>
<use xlink:href="#glyph-0-12" x="92.583515" y="263.362907"/>
</g>
<g fill="rgb(0%, 0%, 0%)" fill-opacity="1">
<use xlink:href="#glyph-0-17" x="99.745797" y="263.362907"/>
</g>
<g fill="rgb(0%, 0%, 0%)" fill-opacity="1">
<use xlink:href="#glyph-0-33" x="112.02016" y="263.362907"/>
<use xlink:href="#glyph-0-11" x="117.902185" y="263.362907"/>
<use xlink:href="#glyph-0-19" x="121.044636" y="263.362907"/>
<use xlink:href="#glyph-0-27" x="125.646403" y="263.362907"/>
<use xlink:href="#glyph-0-12" x="132.951932" y="263.362907"/>
<use xlink:href="#glyph-0-9" x="137.043386" y="263.362907"/>
<use xlink:href="#glyph-0-18" x="140.364894" y="263.362907"/>
<use xlink:href="#glyph-0-12" x="145.11886" y="263.362907"/>
<use xlink:href="#glyph-0-10" x="149.210314" y="263.362907"/>
<use xlink:href="#glyph-0-28" x="153.964279" y="263.362907"/>
</g>
<g fill="rgb(0%, 0%, 0%)" fill-opacity="1">
<use xlink:href="#glyph-0-13" x="160.562532" y="263.362907"/>
<use xlink:href="#glyph-0-14" x="164.143674" y="263.362907"/>
<use xlink:href="#glyph-0-47" x="170.473341" y="263.362907"/>
<use xlink:href="#glyph-0-16" x="175.075108" y="263.362907"/>
</g>
<path fill-rule="nonzero" fill="rgb(87.841797%, 94.900513%, 94.509888%)" fill-opacity="1" stroke-width="0.69739" stroke-linecap="butt" stroke-linejoin="miter" stroke="rgb(0%, 53.72467%, 48.234558%)" stroke-opacity="1" stroke-miterlimit="10" d="M 54.699387 -312.491161 L -0.000294029 -285.215651 L -54.699975 -312.491161 L -0.000294029 -339.770583 Z M 54.699387 -312.491161 " transform="matrix(0.998492, 0, 0, -0.998492, 100.203419, 17.706676)"/>
<g fill="rgb(0%, 0%, 0%)" fill-opacity="1">
<use xlink:href="#glyph-1-0" x="65.024223" y="326.951942"/>
</g>
<g fill="rgb(0%, 0%, 0%)" fill-opacity="1">
<use xlink:href="#glyph-1-1" x="72.067135" y="326.951942"/>
</g>
<g fill="rgb(0%, 0%, 0%)" fill-opacity="1">
<use xlink:href="#glyph-1-2" x="81.457683" y="326.951942"/>
<use xlink:href="#glyph-1-3" x="85.68343" y="326.951942"/>
<use xlink:href="#glyph-1-4" x="89.742057" y="326.951942"/>
<use xlink:href="#glyph-1-5" x="96.458687" y="326.951942"/>
<use xlink:href="#glyph-1-6" x="100.214906" y="326.951942"/>
<use xlink:href="#glyph-1-7" x="103.032071" y="326.951942"/>
<use xlink:href="#glyph-1-3" x="107.401064" y="326.951942"/>
</g>
<g fill="rgb(0%, 0%, 0%)" fill-opacity="1">
<use xlink:href="#glyph-1-8" x="111.228906" y="326.951942"/>
</g>
<g fill="rgb(0%, 0%, 0%)" fill-opacity="1">
<use xlink:href="#glyph-1-2" x="117.937578" y="326.951942"/>
<use xlink:href="#glyph-1-3" x="122.163325" y="326.951942"/>
<use xlink:href="#glyph-1-9" x="126.221952" y="326.951942"/>
<use xlink:href="#glyph-1-5" x="129.277859" y="326.951942"/>
<use xlink:href="#glyph-1-10" x="133.034078" y="326.951942"/>
</g>
<g fill="rgb(0%, 0%, 0%)" fill-opacity="1">
<use xlink:href="#glyph-1-11" x="65.891653" y="336.402179"/>
<use xlink:href="#glyph-1-3" x="67.90505" y="336.402179"/>
<use xlink:href="#glyph-1-9" x="71.963677" y="336.402179"/>
<use xlink:href="#glyph-1-5" x="75.019585" y="336.402179"/>
<use xlink:href="#glyph-1-12" x="78.775804" y="336.402179"/>
<use xlink:href="#glyph-1-13" x="83.144797" y="336.402179"/>
<use xlink:href="#glyph-1-8" x="86.901016" y="336.402179"/>
</g>
<g fill="rgb(0%, 0%, 0%)" fill-opacity="1">
<use xlink:href="#glyph-1-14" x="93.617646" y="336.402179"/>
<use xlink:href="#glyph-1-15" x="98.1458" y="336.402179"/>
</g>
<g fill="rgb(0%, 0%, 0%)" fill-opacity="1">
<use xlink:href="#glyph-1-15" x="102.61029" y="336.402179"/>
</g>
<g fill="rgb(0%, 0%, 0%)" fill-opacity="1">
<use xlink:href="#glyph-1-16" x="106.605252" y="336.402179"/>
</g>
<g fill="rgb(0%, 0%, 0%)" fill-opacity="1">
<use xlink:href="#glyph-1-17" x="112.303246" y="336.402179"/>
<use xlink:href="#glyph-1-15" x="116.672239" y="336.402179"/>
<use xlink:href="#glyph-1-11" x="120.897986" y="336.402179"/>
<use xlink:href="#glyph-1-7" x="122.911383" y="336.402179"/>
<use xlink:href="#glyph-1-18" x="127.280376" y="336.402179"/>
<use xlink:href="#glyph-1-19" x="130.519319" y="336.402179"/>
</g>
<path fill-rule="nonzero" fill="rgb(87.841797%, 94.900513%, 94.509888%)" fill-opacity="1" d="M 151.992188 391.917969 L 48.417969 391.917969 C 47.316406 391.917969 46.425781 392.808594 46.425781 393.90625 L 46.425781 419.261719 C 46.425781 420.359375 47.316406 421.25 48.417969 421.25 L 151.992188 421.25 C 153.089844 421.25 153.980469 420.359375 153.980469 419.261719 L 153.980469 393.90625 C 153.980469 392.808594 153.089844 391.917969 151.992188 391.917969 Z M 151.992188 391.917969 "/>
<g clip-path="url(#clip-1)">
<path fill="none" stroke-width="0.99628" stroke-linecap="butt" stroke-linejoin="miter" stroke="rgb(0%, 53.72467%, 48.234558%)" stroke-opacity="1" stroke-miterlimit="10" d="M 51.866991 -374.776501 L -51.863667 -374.776501 C -52.966893 -374.776501 -53.858863 -375.668471 -53.858863 -376.767785 L -53.858863 -402.161551 C -53.858863 -403.260865 -52.966893 -404.152835 -51.863667 -404.152835 L 51.866991 -404.152835 C 52.966305 -404.152835 53.858275 -403.260865 53.858275 -402.161551 L 53.858275 -376.767785 C 53.858275 -375.668471 52.966305 -374.776501 51.866991 -374.776501 Z M 51.866991 -374.776501 " transform="matrix(0.998492, 0, 0, -0.998492, 100.203419, 17.706676)"/>
</g>
<g fill="rgb(0%, 0%, 0%)" fill-opacity="1">
<use xlink:href="#glyph-0-46" x="56.284574" y="403.105191"/>
<use xlink:href="#glyph-0-23" x="61.808484" y="403.105191"/>
<use xlink:href="#glyph-0-7" x="66.56245" y="403.105191"/>
<use xlink:href="#glyph-0-31" x="70.985159" y="403.105191"/>
<use xlink:href="#glyph-0-20" x="75.739124" y="403.105191"/>
<use xlink:href="#glyph-0-12" x="77.932574" y="403.105191"/>
</g>
<g fill="rgb(0%, 0%, 0%)" fill-opacity="1">
<use xlink:href="#glyph-0-20" x="85.094857" y="403.105191"/>
<use xlink:href="#glyph-0-12" x="87.288306" y="403.105191"/>
<use xlink:href="#glyph-0-23" x="91.37976" y="403.105191"/>
<use xlink:href="#glyph-0-21" x="96.133725" y="403.105191"/>
<use xlink:href="#glyph-0-22" x="100.88769" y="403.105191"/>
<use xlink:href="#glyph-0-23" x="103.081139" y="403.105191"/>
<use xlink:href="#glyph-0-26" x="107.835105" y="403.105191"/>
</g>
<g fill="rgb(0%, 0%, 0%)" fill-opacity="1">
<use xlink:href="#glyph-0-48" x="115.5077" y="403.105191"/>
<use xlink:href="#glyph-0-22" x="121.792604" y="403.105191"/>
<use xlink:href="#glyph-0-23" x="123.986053" y="403.105191"/>
<use xlink:href="#glyph-0-21" x="128.740018" y="403.105191"/>
<use xlink:href="#glyph-0-19" x="133.493983" y="403.105191"/>
</g>
<g fill="rgb(0%, 0%, 0%)" fill-opacity="1">
<use xlink:href="#glyph-0-48" x="137.84507" y="403.105191"/>
</g>
<g fill="rgb(0%, 0%, 0%)" fill-opacity="1">
<use xlink:href="#glyph-0-13" x="51.40079" y="414.047563"/>
<use xlink:href="#glyph-0-31" x="54.981931" y="414.047563"/>
</g>
<g fill="rgb(0%, 0%, 0%)" fill-opacity="1">
<use xlink:href="#glyph-0-38" x="59.485217" y="414.047563"/>
</g>
<g fill="rgb(0%, 0%, 0%)" fill-opacity="1">
<use xlink:href="#glyph-0-33" x="66.790745" y="414.047563"/>
<use xlink:href="#glyph-0-5" x="72.67277" y="414.047563"/>
</g>
<g fill="rgb(0%, 0%, 0%)" fill-opacity="1">
<use xlink:href="#glyph-0-9" x="81.7062" y="414.047563"/>
<use xlink:href="#glyph-0-19" x="85.027708" y="414.047563"/>
</g>
<g fill="rgb(0%, 0%, 0%)" fill-opacity="1">
<use xlink:href="#glyph-0-28" x="92.700304" y="414.047563"/>
<use xlink:href="#glyph-0-6" x="96.227728" y="414.047563"/>
<use xlink:href="#glyph-0-18" x="100.319182" y="414.047563"/>
<use xlink:href="#glyph-0-12" x="105.073147" y="414.047563"/>
<use xlink:href="#glyph-0-21" x="109.164602" y="414.047563"/>
<use xlink:href="#glyph-0-10" x="113.918567" y="414.047563"/>
<use xlink:href="#glyph-0-20" x="118.672532" y="414.047563"/>
<use xlink:href="#glyph-0-12" x="120.865981" y="414.047563"/>
<use xlink:href="#glyph-0-49" x="124.957435" y="414.047563"/>
<use xlink:href="#glyph-0-38" x="127.517952" y="414.047563"/>
</g>
<g fill="rgb(0%, 0%, 0%)" fill-opacity="1">
<use xlink:href="#glyph-0-7" x="131.510924" y="414.047563"/>
<use xlink:href="#glyph-0-27" x="135.933634" y="414.047563"/>
<use xlink:href="#glyph-0-20" x="143.239162" y="414.047563"/>
<use xlink:href="#glyph-0-16" x="145.432612" y="414.047563"/>
</g>
<path fill-rule="nonzero" fill="rgb(96.97876%, 94.155884%, 89.99939%)" fill-opacity="1" d="M 333.394531 316.078125 L 236.851562 316.078125 C 235.753906 316.078125 234.863281 316.96875 234.863281 318.066406 L 234.863281 341.386719 C 234.863281 342.488281 235.753906 343.378906 236.851562 343.378906 L 333.394531 343.378906 C 334.492188 343.378906 335.382812 342.488281 335.382812 341.386719 L 335.382812 318.066406 C 335.382812 316.96875 334.492188 316.078125 333.394531 316.078125 Z M 333.394531 316.078125 "/>
<g clip-path="url(#clip-2)">
<path fill="none" stroke-width="0.59776" stroke-linecap="butt" stroke-linejoin="miter" stroke="rgb(69.802856%, 41.569519%, 0%)" stroke-opacity="1" stroke-miterlimit="10" d="M 233.543324 -298.822109 L 136.854537 -298.822109 C 135.755223 -298.822109 134.863253 -299.714079 134.863253 -300.813393 L 134.863253 -324.168929 C 134.863253 -325.272155 135.755223 -326.164125 136.854537 -326.164125 L 233.543324 -326.164125 C 234.642638 -326.164125 235.534609 -325.272155 235.534609 -324.168929 L 235.534609 -300.813393 C 235.534609 -299.714079 234.642638 -298.822109 233.543324 -298.822109 Z M 233.543324 -298.822109 " transform="matrix(0.998492, 0, 0, -0.998492, 100.203419, 17.706676)"/>
</g>
<g fill="rgb(0%, 0%, 0%)" fill-opacity="1">
<use xlink:href="#glyph-0-11" x="253.210906" y="327.362692"/>
<use xlink:href="#glyph-0-7" x="256.353358" y="327.362692"/>
<use xlink:href="#glyph-0-22" x="260.776068" y="327.362692"/>
<use xlink:href="#glyph-0-28" x="262.969517" y="327.362692"/>
<use xlink:href="#glyph-0-12" x="266.496941" y="327.362692"/>
</g>
<g fill="rgb(0%, 0%, 0%)" fill-opacity="1">
<use xlink:href="#glyph-0-48" x="273.569695" y="327.362692"/>
</g>
<g fill="rgb(0%, 0%, 0%)" fill-opacity="1">
<use xlink:href="#glyph-0-7" x="279.603919" y="327.362692"/>
</g>
<g fill="rgb(0%, 0%, 0%)" fill-opacity="1">
<use xlink:href="#glyph-0-11" x="283.766996" y="327.362692"/>
<use xlink:href="#glyph-0-27" x="286.909447" y="327.362692"/>
</g>
<g fill="rgb(0%, 0%, 0%)" fill-opacity="1">
<use xlink:href="#glyph-0-35" x="297.187323" y="327.362692"/>
<use xlink:href="#glyph-0-19" x="302.120346" y="327.362692"/>
</g>
<g fill="rgb(0%, 0%, 0%)" fill-opacity="1">
<use xlink:href="#glyph-0-19" x="306.981745" y="327.362692"/>
</g>
<g fill="rgb(0%, 0%, 0%)" fill-opacity="1">
<use xlink:href="#glyph-0-11" x="311.332832" y="327.362692"/>
<use xlink:href="#glyph-0-50" x="314.475284" y="327.362692"/>
</g>
<g fill="rgb(0%, 0%, 0%)" fill-opacity="1">
<use xlink:href="#glyph-0-11" x="260.396893" y="338.305065"/>
<use xlink:href="#glyph-0-12" x="263.539344" y="338.305065"/>
<use xlink:href="#glyph-0-9" x="267.630798" y="338.305065"/>
<use xlink:href="#glyph-0-10" x="270.952307" y="338.305065"/>
<use xlink:href="#glyph-0-23" x="275.706272" y="338.305065"/>
<use xlink:href="#glyph-0-12" x="280.460238" y="338.305065"/>
</g>
<g fill="rgb(0%, 0%, 0%)" fill-opacity="1">
<use xlink:href="#glyph-0-48" x="287.532992" y="338.305065"/>
</g>
<g fill="rgb(0%, 0%, 0%)" fill-opacity="1">
<use xlink:href="#glyph-0-7" x="293.567215" y="338.305065"/>
<use xlink:href="#glyph-0-39" x="297.989925" y="338.305065"/>
<use xlink:href="#glyph-0-12" x="302.233578" y="338.305065"/>
<use xlink:href="#glyph-0-28" x="306.325032" y="338.305065"/>
</g>
<path fill="none" stroke-width="0.59776" stroke-linecap="butt" stroke-linejoin="miter" stroke="rgb(37.255859%, 38.822937%, 40.783691%)" stroke-opacity="1" stroke-miterlimit="10" d="M -0.000294029 -9.757258 L -0.000294029 -27.432352 " transform="matrix(0.998492, 0, 0, -0.998492, 100.203419, 17.706676)"/>
<path fill-rule="nonzero" fill="rgb(37.255859%, 38.822937%, 40.783691%)" fill-opacity="1" stroke-width="0.59776" stroke-linecap="butt" stroke-linejoin="miter" stroke="rgb(37.255859%, 38.822937%, 40.783691%)" stroke-opacity="1" stroke-miterlimit="10" d="M 4.826645 -0.000294029 L 0.965352 1.458938 L 2.240713 -0.000294029 L 0.965352 -1.459526 Z M 4.826645 -0.000294029 " transform="matrix(0, 0.998492, 0.998492, 0, 100.203419, 43.00876)"/>
<path fill="none" stroke-width="0.59776" stroke-linecap="butt" stroke-linejoin="miter" stroke="rgb(37.255859%, 38.822937%, 40.783691%)" stroke-opacity="1" stroke-miterlimit="10" d="M -0.000294029 -50.53751 L -0.000294029 -68.208691 " transform="matrix(0.998492, 0, 0, -0.998492, 100.203419, 17.706676)"/>
<path fill-rule="nonzero" fill="rgb(37.255859%, 38.822937%, 40.783691%)" fill-opacity="1" stroke-width="0.59776" stroke-linecap="butt" stroke-linejoin="miter" stroke="rgb(37.255859%, 38.822937%, 40.783691%)" stroke-opacity="1" stroke-miterlimit="10" d="M 4.828756 -0.000294029 L 0.963552 1.458938 L 2.242825 -0.000294029 L 0.963552 -1.459526 Z M 4.828756 -0.000294029 " transform="matrix(0, 0.998492, 0.998492, 0, 100.203419, 83.725401)"/>
<path fill="none" stroke-width="0.59776" stroke-linecap="butt" stroke-linejoin="miter" stroke="rgb(37.255859%, 38.822937%, 40.783691%)" stroke-opacity="1" stroke-miterlimit="10" d="M -0.000294029 -91.313849 L -0.000294029 -108.988943 " transform="matrix(0.998492, 0, 0, -0.998492, 100.203419, 17.706676)"/>
<path fill-rule="nonzero" fill="rgb(37.255859%, 38.822937%, 40.783691%)" fill-opacity="1" stroke-width="0.59776" stroke-linecap="butt" stroke-linejoin="miter" stroke="rgb(37.255859%, 38.822937%, 40.783691%)" stroke-opacity="1" stroke-miterlimit="10" d="M 4.826955 -0.000294029 L 0.965663 1.458938 L 2.241024 -0.000294029 L 0.965663 -1.459526 Z M 4.826955 -0.000294029 " transform="matrix(0, 0.998492, 0.998492, 0, 100.203419, 124.442043)"/>
<path fill="none" stroke-width="0.59776" stroke-linecap="butt" stroke-linejoin="miter" stroke="rgb(37.255859%, 38.822937%, 40.783691%)" stroke-opacity="1" stroke-miterlimit="10" d="M -0.000294029 -131.206042 L -0.000294029 -148.877224 " transform="matrix(0.998492, 0, 0, -0.998492, 100.203419, 17.706676)"/>
<path fill-rule="nonzero" fill="rgb(37.255859%, 38.822937%, 40.783691%)" fill-opacity="1" stroke-width="0.59776" stroke-linecap="butt" stroke-linejoin="miter" stroke="rgb(37.255859%, 38.822937%, 40.783691%)" stroke-opacity="1" stroke-miterlimit="10" d="M 4.828679 -0.000294029 L 0.963475 1.458938 L 2.242748 -0.000294029 L 0.963475 -1.459526 Z M 4.828679 -0.000294029 " transform="matrix(0, 0.998492, 0.998492, 0, 100.203419, 164.272353)"/>
<path fill="none" stroke-width="0.59776" stroke-linecap="butt" stroke-linejoin="miter" stroke="rgb(37.255859%, 38.822937%, 40.783691%)" stroke-opacity="1" stroke-miterlimit="10" d="M -0.000294029 -171.982382 L -0.000294029 -189.657475 " transform="matrix(0.998492, 0, 0, -0.998492, 100.203419, 17.706676)"/>
<path fill-rule="nonzero" fill="rgb(37.255859%, 38.822937%, 40.783691%)" fill-opacity="1" stroke-width="0.59776" stroke-linecap="butt" stroke-linejoin="miter" stroke="rgb(37.255859%, 38.822937%, 40.783691%)" stroke-opacity="1" stroke-miterlimit="10" d="M 4.826878 -0.000294029 L 0.965586 1.458938 L 2.240947 -0.000294029 L 0.965586 -1.459526 Z M 4.826878 -0.000294029 " transform="matrix(0, 0.998492, 0.998492, 0, 100.203419, 204.988995)"/>
<path fill="none" stroke-width="0.59776" stroke-linecap="butt" stroke-linejoin="miter" stroke="rgb(37.255859%, 38.822937%, 40.783691%)" stroke-opacity="1" stroke-miterlimit="10" d="M -0.000294029 -212.762633 L -0.000294029 -230.433815 " transform="matrix(0.998492, 0, 0, -0.998492, 100.203419, 17.706676)"/>
<path fill-rule="nonzero" fill="rgb(37.255859%, 38.822937%, 40.783691%)" fill-opacity="1" stroke-width="0.59776" stroke-linecap="butt" stroke-linejoin="miter" stroke="rgb(37.255859%, 38.822937%, 40.783691%)" stroke-opacity="1" stroke-miterlimit="10" d="M 4.829 -0.000294029 L 0.963796 1.458938 L 2.239157 -0.000294029 L 0.963796 -1.459526 Z M 4.829 -0.000294029 " transform="matrix(0, 0.998492, 0.998492, 0, 100.203419, 245.705627)"/>
<path fill="none" stroke-width="0.59776" stroke-linecap="butt" stroke-linejoin="miter" stroke="rgb(37.255859%, 38.822937%, 40.783691%)" stroke-opacity="1" stroke-miterlimit="10" d="M -0.000294029 -253.538973 L -0.000294029 -281.135279 " transform="matrix(0.998492, 0, 0, -0.998492, 100.203419, 17.706676)"/>
<path fill-rule="nonzero" fill="rgb(37.255859%, 38.822937%, 40.783691%)" fill-opacity="1" stroke-width="0.59776" stroke-linecap="butt" stroke-linejoin="miter" stroke="rgb(37.255859%, 38.822937%, 40.783691%)" stroke-opacity="1" stroke-miterlimit="10" d="M 4.828032 -0.000294029 L 0.96674 1.458938 L 2.242101 -0.000294029 L 0.96674 -1.459526 Z M 4.828032 -0.000294029 " transform="matrix(0, 0.998492, 0.998492, 0, 100.203419, 296.327687)"/>
<path fill="none" stroke-width="0.59776" stroke-linecap="butt" stroke-linejoin="miter" stroke="rgb(37.255859%, 38.822937%, 40.783691%)" stroke-opacity="1" stroke-miterlimit="10" d="M -0.000294029 -340.263514 L -0.000294029 -370.692216 " transform="matrix(0.998492, 0, 0, -0.998492, 100.203419, 17.706676)"/>
<path fill-rule="nonzero" fill="rgb(37.255859%, 38.822937%, 40.783691%)" fill-opacity="1" stroke-width="0.59776" stroke-linecap="butt" stroke-linejoin="miter" stroke="rgb(37.255859%, 38.822937%, 40.783691%)" stroke-opacity="1" stroke-miterlimit="10" d="M 4.827399 -0.000294029 L 0.966107 1.458938 L 2.241468 -0.000294029 L 0.966107 -1.459526 Z M 4.827399 -0.000294029 " transform="matrix(0, 0.998492, 0.998492, 0, 100.203419, 385.750193)"/>
<g fill="rgb(37.298584%, 38.798523%, 40.79895%)" fill-opacity="1">
<use xlink:href="#glyph-1-20" x="83.009768" y="375.492966"/>
<use xlink:href="#glyph-1-3" x="87.37876" y="375.492966"/>
<use xlink:href="#glyph-1-18" x="91.437387" y="375.492966"/>
<use xlink:href="#glyph-1-18" x="94.676331" y="375.492966"/>
</g>
<path fill="none" stroke-width="0.59776" stroke-linecap="butt" stroke-linejoin="miter" stroke="rgb(37.255859%, 38.822937%, 40.783691%)" stroke-opacity="1" stroke-miterlimit="10" d="M 55.19623 -312.491161 L 130.974576 -312.491161 " transform="matrix(0.998492, 0, 0, -0.998492, 100.203419, 17.706676)"/>
<path fill-rule="nonzero" fill="rgb(37.255859%, 38.822937%, 40.783691%)" fill-opacity="1" stroke-width="0.59776" stroke-linecap="butt" stroke-linejoin="miter" stroke="rgb(37.255859%, 38.822937%, 40.783691%)" stroke-opacity="1" stroke-miterlimit="10" d="M 4.829081 0.00068899 L 0.963876 1.459921 L 2.239237 0.00068899 L 0.963876 -1.458543 Z M 4.829081 0.00068899 " transform="matrix(0.998492, 0, 0, -0.998492, 228.893046, 329.72725)"/>
<g fill="rgb(37.298584%, 38.798523%, 40.79895%)" fill-opacity="1">
<use xlink:href="#glyph-1-21" x="189.603878" y="327.359686"/>
<use xlink:href="#glyph-1-3" x="192.190258" y="327.359686"/>
<use xlink:href="#glyph-1-22" x="196.248885" y="327.359686"/>
<use xlink:href="#glyph-1-11" x="198.262282" y="327.359686"/>
</g>
<path fill="none" stroke-width="0.59776" stroke-linecap="butt" stroke-linejoin="miter" stroke="rgb(37.255859%, 38.822937%, 40.783691%)" stroke-opacity="1" stroke-miterlimit="10" d="M 185.196975 -298.520873 L 185.196975 -81.556947 L 95.749577 -81.556947 " transform="matrix(0.998492, 0, 0, -0.998492, 100.203419, 17.706676)"/>
<path fill-rule="nonzero" fill="rgb(37.255859%, 38.822937%, 40.783691%)" fill-opacity="1" stroke-width="0.59776" stroke-linecap="butt" stroke-linejoin="miter" stroke="rgb(37.255859%, 38.822937%, 40.783691%)" stroke-opacity="1" stroke-miterlimit="10" d="M 4.828828 0.000686853 L 0.963624 1.459919 L 2.242897 0.000686853 L 0.963624 -1.458545 Z M 4.828828 0.000686853 " transform="matrix(-0.998492, 0, 0, 0.998492, 197.895764, 99.139939)"/>
<g fill="rgb(37.298584%, 38.798523%, 40.79895%)" fill-opacity="1">
<use xlink:href="#glyph-1-16" x="228.12923" y="96.772385"/>
<use xlink:href="#glyph-1-5" x="231.018017" y="96.772385"/>
<use xlink:href="#glyph-1-6" x="234.774237" y="96.772385"/>
<use xlink:href="#glyph-1-16" x="237.591401" y="96.772385"/>
<use xlink:href="#glyph-1-23" x="240.480189" y="96.772385"/>
<use xlink:href="#glyph-1-12" x="244.849181" y="96.772385"/>
</g>
</svg>
