<?xml version="1.0" encoding="UTF-8"?>
<svg xmlns="http://www.w3.org/2000/svg" xmlns:xlink="http://www.w3.org/1999/xlink" width="360.49pt" height="170.64pt" viewBox="0 0 360.49 170.64"><rect data-bg-injected="1" x="-7.2098" y="-6.8256" width="374.9096" height="184.29119999999998" fill="#ffffff"/>
<defs>
<g>
<g id="glyph-0-0">
<path d="M 4.921875 -3.90625 C 4.921875 -4.75 4.078125 -5.515625 2.921875 -5.515625 L 0.78125 -5.515625 L 0.78125 0 L 1.578125 0 L 1.578125 -2.265625 L 2.984375 -2.265625 C 4.015625 -2.265625 4.921875 -2.984375 4.921875 -3.90625 Z M 4.203125 -3.90625 C 4.203125 -3.25 3.65625 -2.765625 2.734375 -2.765625 L 1.5625 -2.765625 L 1.5625 -5.046875 L 2.734375 -5.046875 C 3.625 -5.046875 4.203125 -4.578125 4.203125 -3.90625 Z M 4.203125 -3.90625 "/>
</g>
<g id="glyph-0-1">
<path d="M 2.765625 -3.015625 L 2.765625 -3.609375 C 2.09375 -3.609375 1.609375 -3.28125 1.28125 -2.859375 L 1.28125 -3.59375 L 0.671875 -3.59375 L 0.671875 0 L 1.34375 0 L 1.34375 -1.6875 C 1.34375 -2.546875 2.0625 -3.015625 2.765625 -3.015625 Z M 2.765625 -3.015625 "/>
</g>
<g id="glyph-0-2">
<path d="M 3.984375 -1.734375 C 3.984375 -2.796875 3.140625 -3.65625 2.109375 -3.65625 C 1.078125 -3.65625 0.234375 -2.78125 0.234375 -1.734375 C 0.234375 -0.734375 1.078125 0.078125 2.109375 0.078125 C 3.140625 0.078125 3.984375 -0.734375 3.984375 -1.734375 Z M 3.28125 -1.828125 C 3.28125 -0.921875 2.71875 -0.46875 2.109375 -0.46875 C 1.484375 -0.46875 0.9375 -0.9375 0.9375 -1.828125 C 0.9375 -2.734375 1.515625 -3.125 2.109375 -3.125 C 2.703125 -3.125 3.28125 -2.71875 3.28125 -1.828125 Z M 3.28125 -1.828125 "/>
</g>
<g id="glyph-0-3">
<path d="M 3.6875 0 L 3.6875 -5.515625 L 3.015625 -5.515625 L 3.015625 -3.1875 C 2.5 -3.5625 1.984375 -3.609375 1.75 -3.609375 C 0.921875 -3.609375 0.28125 -2.78125 0.28125 -1.765625 C 0.28125 -0.75 0.921875 0.078125 1.734375 0.078125 C 2.234375 0.078125 2.6875 -0.140625 2.984375 -0.40625 L 2.984375 0 Z M 2.984375 -0.984375 C 2.796875 -0.65625 2.484375 -0.453125 2.109375 -0.453125 C 1.546875 -0.453125 0.984375 -0.828125 0.984375 -1.75 C 0.984375 -2.75 1.65625 -3.078125 2.1875 -3.078125 C 2.515625 -3.078125 2.78125 -2.953125 2.984375 -2.6875 Z M 2.984375 -0.984375 "/>
</g>
<g id="glyph-0-4">
<path d="M 4.21875 -1.53125 C 4.21875 -2.171875 3.84375 -2.53125 3.6875 -2.703125 C 3.34375 -3.03125 2.984375 -3.125 2.375 -3.265625 C 1.890625 -3.375 1.625 -3.4375 1.4375 -3.625 C 1.34375 -3.71875 1.15625 -3.90625 1.15625 -4.203125 C 1.15625 -4.65625 1.59375 -5.109375 2.375 -5.109375 C 2.96875 -5.109375 3.390625 -4.921875 3.796875 -4.578125 L 3.921875 -5.296875 C 3.421875 -5.5625 2.96875 -5.6875 2.375 -5.6875 C 1.171875 -5.6875 0.46875 -4.875 0.46875 -4.109375 C 0.46875 -3.78125 0.578125 -3.40625 0.96875 -3.03125 C 1.3125 -2.71875 1.671875 -2.625 2.171875 -2.515625 C 2.84375 -2.359375 3.015625 -2.3125 3.25 -2.078125 C 3.40625 -1.921875 3.53125 -1.703125 3.53125 -1.4375 C 3.53125 -0.9375 3.078125 -0.421875 2.3125 -0.421875 C 1.859375 -0.421875 1.125 -0.5625 0.5 -1.09375 L 0.375 -0.375 C 0.765625 -0.15625 1.4375 0.171875 2.328125 0.171875 C 3.421875 0.171875 4.21875 -0.640625 4.21875 -1.53125 Z M 4.21875 -1.53125 "/>
</g>
<g id="glyph-0-5">
<path d="M 3.5 -1.734375 C 3.5 -2.109375 3.453125 -2.640625 3.15625 -3.09375 C 2.859375 -3.5 2.390625 -3.65625 2 -3.65625 C 1.03125 -3.65625 0.28125 -2.796875 0.28125 -1.796875 C 0.28125 -0.765625 1.078125 0.078125 2.125 0.078125 C 2.578125 0.078125 3.0625 -0.0625 3.46875 -0.296875 L 3.421875 -0.859375 C 2.96875 -0.546875 2.46875 -0.453125 2.125 -0.453125 C 1.4375 -0.453125 0.921875 -1.015625 0.890625 -1.734375 Z M 3.015625 -2.21875 L 0.953125 -2.21875 C 1.125 -2.859375 1.59375 -3.125 2 -3.125 C 2.34375 -3.125 2.859375 -2.953125 3.015625 -2.21875 Z M 3.015625 -2.21875 "/>
</g>
<g id="glyph-0-6">
<path d="M 3.765625 -3.53125 L 3.140625 -3.53125 C 2.046875 -0.859375 2 -0.65625 1.96875 -0.46875 L 1.953125 -0.46875 C 1.890625 -0.78125 1.671875 -1.34375 1.421875 -1.953125 L 0.78125 -3.53125 L 0.125 -3.53125 L 1.578125 0 L 2.3125 0 Z M 3.765625 -3.53125 "/>
</g>
<g id="glyph-0-7">
<path d="M 1.34375 0 L 1.34375 -3.53125 L 0.671875 -3.53125 L 0.671875 0 Z M 1.40625 -4.453125 L 1.40625 -5.25 L 0.609375 -5.25 L 0.609375 -4.453125 Z M 1.40625 -4.453125 "/>
</g>
<g id="glyph-0-8">
<path d="M 3.703125 0 L 3.703125 -2.359375 C 3.703125 -2.96875 3.515625 -3.609375 2.53125 -3.609375 C 2.078125 -3.609375 1.640625 -3.421875 1.296875 -3 L 1.296875 -3.59375 L 0.65625 -3.59375 L 0.65625 0 L 1.359375 0 L 1.359375 -1.9375 C 1.359375 -2.453125 1.578125 -3.078125 2.1875 -3.078125 C 3 -3.078125 3 -2.53125 3 -2.296875 L 3 0 Z M 3.703125 0 "/>
</g>
<g id="glyph-0-9">
<path d="M 4.09375 -3.0625 L 4 -3.609375 C 3.828125 -3.609375 3.296875 -3.609375 2.6875 -3.375 L 2.671875 -3.359375 C 2.390625 -3.5625 2.109375 -3.609375 1.875 -3.609375 C 1.09375 -3.609375 0.515625 -3 0.515625 -2.3125 C 0.515625 -2.03125 0.609375 -1.75 0.796875 -1.53125 C 0.6875 -1.390625 0.5625 -1.171875 0.5625 -0.859375 C 0.5625 -0.5625 0.6875 -0.359375 0.765625 -0.265625 C 0.328125 -0.015625 0.234375 0.359375 0.234375 0.546875 C 0.234375 1.15625 1.078125 1.625 2.109375 1.625 C 3.15625 1.625 3.984375 1.15625 3.984375 0.546875 C 3.984375 -0.578125 2.578125 -0.578125 2.25 -0.578125 L 1.5 -0.578125 C 1.375 -0.578125 1.03125 -0.578125 1.03125 -0.984375 C 1.03125 -1.140625 1.09375 -1.21875 1.09375 -1.234375 C 1.375 -1.0625 1.65625 -1.015625 1.875 -1.015625 C 2.640625 -1.015625 3.234375 -1.625 3.234375 -2.3125 C 3.234375 -2.5625 3.15625 -2.796875 3.015625 -3 C 2.984375 -3.046875 2.984375 -3.0625 2.984375 -3.0625 C 2.984375 -3.109375 3.453125 -3.109375 3.5 -3.109375 C 3.5 -3.109375 3.8125 -3.109375 4.09375 -3.0625 Z M 2.609375 -2.3125 C 2.609375 -1.6875 2.21875 -1.5 1.875 -1.5 C 1.453125 -1.5 1.125 -1.78125 1.125 -2.3125 C 1.125 -2.921875 1.53125 -3.125 1.875 -3.125 C 2.296875 -3.125 2.609375 -2.84375 2.609375 -2.3125 Z M 3.375 0.5625 C 3.375 0.90625 2.78125 1.140625 2.109375 1.140625 C 1.4375 1.140625 0.84375 0.90625 0.84375 0.5625 C 0.84375 0.515625 0.84375 0.046875 1.484375 0.046875 L 2.25 0.046875 C 2.4375 0.046875 3.375 0.046875 3.375 0.5625 Z M 3.375 0.5625 "/>
</g>
<g id="glyph-0-10">
<path d="M 1.578125 0 L 1.578125 -5.515625 L 0.765625 -5.515625 L 0.765625 0 Z M 1.578125 0 "/>
</g>
<g id="glyph-0-11">
<path d="M 1.34375 0 L 1.34375 -5.515625 L 0.671875 -5.515625 L 0.671875 0 Z M 1.34375 0 "/>
</g>
<g id="glyph-0-12">
<path d="M 4.234375 0 L 4.234375 -0.5625 L 1.96875 -0.546875 L 1.578125 -0.546875 L 1.578125 -5.515625 L 0.765625 -5.515625 L 0.765625 0 Z M 4.234375 0 "/>
</g>
<g id="glyph-0-13">
<path d="M 2.8125 -0.21875 L 2.6875 -0.71875 C 2.421875 -0.53125 2.140625 -0.46875 1.921875 -0.46875 C 1.578125 -0.46875 1.5 -0.796875 1.5 -1.15625 L 1.5 -3.03125 L 2.671875 -3.03125 L 2.671875 -3.53125 L 1.5 -3.53125 L 1.5 -4.546875 L 0.875 -4.546875 L 0.875 -3.53125 L 0.15625 -3.53125 L 0.15625 -3.03125 L 0.859375 -3.03125 L 0.859375 -1.015625 C 0.859375 -0.484375 1 0.078125 1.5625 0.078125 C 2.140625 0.078125 2.578125 -0.109375 2.8125 -0.21875 Z M 2.8125 -0.21875 "/>
</g>
<g id="glyph-0-14">
<path d="M 5.21875 0 L 3.578125 -2.578125 C 4.703125 -2.90625 5 -3.609375 5 -4.03125 C 5 -4.859375 4.03125 -5.515625 2.875 -5.515625 L 0.78125 -5.515625 L 0.78125 0 L 1.5625 0 L 1.5625 -2.5 L 2.875 -2.5 L 4.421875 0 Z M 4.265625 -4.03125 C 4.265625 -3.46875 3.71875 -3.015625 2.765625 -3.015625 L 1.5625 -3.015625 L 1.5625 -5.046875 L 2.765625 -5.046875 C 3.6875 -5.046875 4.265625 -4.625 4.265625 -4.03125 Z M 4.265625 -4.03125 "/>
</g>
<g id="glyph-0-15">
<path d="M 3.5 -0.28125 L 3.453125 -0.859375 C 3.0625 -0.609375 2.625 -0.46875 2.140625 -0.46875 C 1.40625 -0.46875 0.984375 -1.0625 0.984375 -1.78125 C 0.984375 -2.390625 1.296875 -3.109375 2.15625 -3.109375 C 2.703125 -3.109375 2.953125 -2.984375 3.359375 -2.734375 L 3.46875 -3.3125 C 2.984375 -3.546875 2.78125 -3.65625 2.15625 -3.65625 C 0.96875 -3.65625 0.28125 -2.6875 0.28125 -1.765625 C 0.28125 -0.796875 1.046875 0.078125 2.125 0.078125 C 2.6875 0.078125 3.171875 -0.09375 3.5 -0.28125 Z M 3.5 -0.28125 "/>
</g>
<g id="glyph-0-16">
<path d="M 3.46875 0 L 3.46875 -2.296875 C 3.46875 -3.109375 2.84375 -3.65625 2.0625 -3.65625 C 1.5625 -3.65625 1.171875 -3.546875 0.734375 -3.3125 L 0.78125 -2.734375 C 1.046875 -2.90625 1.4375 -3.140625 2.0625 -3.140625 C 2.40625 -3.140625 2.78125 -2.875 2.78125 -2.28125 L 2.78125 -1.96875 C 1.59375 -1.921875 0.4375 -1.671875 0.4375 -0.9375 C 0.4375 -0.546875 0.703125 0.078125 1.40625 0.078125 C 1.75 0.078125 2.375 0.015625 2.796875 -0.296875 L 2.796875 0 Z M 2.78125 -1.125 C 2.78125 -0.96875 2.78125 -0.765625 2.5 -0.59375 C 2.25 -0.453125 1.9375 -0.453125 1.84375 -0.453125 C 1.40625 -0.453125 1.078125 -0.640625 1.078125 -0.953125 C 1.078125 -1.453125 2.421875 -1.5 2.78125 -1.515625 Z M 2.78125 -1.125 "/>
</g>
<g id="glyph-0-17">
<path d="M 6.046875 0 L 6.046875 -2.359375 C 6.046875 -2.96875 5.859375 -3.609375 4.890625 -3.609375 C 4.21875 -3.609375 3.796875 -3.21875 3.609375 -2.96875 C 3.53125 -3.1875 3.328125 -3.609375 2.53125 -3.609375 C 2.078125 -3.609375 1.640625 -3.421875 1.296875 -3 L 1.296875 -3.59375 L 0.65625 -3.59375 L 0.65625 0 L 1.359375 0 L 1.359375 -1.9375 C 1.359375 -2.453125 1.578125 -3.078125 2.1875 -3.078125 C 3 -3.078125 3 -2.53125 3 -2.296875 L 3 0 L 3.703125 0 L 3.703125 -1.9375 C 3.703125 -2.453125 3.921875 -3.078125 4.53125 -3.078125 C 5.359375 -3.078125 5.359375 -2.53125 5.359375 -2.296875 L 5.359375 0 Z M 6.046875 0 "/>
</g>
<g id="glyph-0-18">
<path d="M 2.34375 -1.515625 L 2.34375 -2.015625 L 0.09375 -2.015625 L 0.09375 -1.515625 Z M 2.34375 -1.515625 "/>
</g>
<g id="glyph-0-19">
<path d="M 3.703125 0 L 3.703125 -3.53125 L 3 -3.53125 L 3 -1.21875 C 3 -0.59375 2.46875 -0.390625 2 -0.390625 C 1.421875 -0.390625 1.359375 -0.546875 1.359375 -0.921875 L 1.359375 -3.53125 L 0.65625 -3.53125 L 0.65625 -0.859375 C 0.65625 -0.15625 0.96875 0.078125 1.53125 0.078125 C 1.859375 0.078125 2.546875 0.015625 3.03125 -0.359375 L 3.03125 0 Z M 3.703125 0 "/>
</g>
<g id="glyph-0-20">
<path d="M 4.078125 -1.78125 C 4.078125 -2.734375 3.515625 -3.609375 2.734375 -3.609375 C 2.234375 -3.609375 1.734375 -3.453125 1.34375 -3.15625 L 1.34375 -5.515625 L 0.671875 -5.515625 L 0.671875 0 L 1.375 0 L 1.375 -0.375 C 1.546875 -0.21875 1.921875 0.078125 2.5 0.078125 C 3.375 0.078125 4.078125 -0.734375 4.078125 -1.78125 Z M 3.375 -1.78125 C 3.375 -0.796875 2.71875 -0.453125 2.15625 -0.453125 C 1.875 -0.453125 1.59375 -0.578125 1.375 -0.9375 L 1.375 -2.5 C 1.375 -2.625 1.375 -2.734375 1.640625 -2.90625 C 1.765625 -2.984375 1.984375 -3.078125 2.25 -3.078125 C 2.78125 -3.078125 3.375 -2.734375 3.375 -1.78125 Z M 3.375 -1.78125 "/>
</g>
<g id="glyph-0-21">
<path d="M 5.765625 -2.734375 C 5.765625 -4.375 4.5625 -5.6875 3.125 -5.6875 C 1.671875 -5.6875 0.46875 -4.375 0.46875 -2.734375 C 0.46875 -1.09375 1.6875 0.171875 3.125 0.171875 C 3.46875 0.171875 3.796875 0.078125 3.875 0.046875 L 4.59375 1.015625 L 5.53125 1.015625 L 4.515625 -0.265625 C 5.296875 -0.8125 5.765625 -1.703125 5.765625 -2.734375 Z M 4.984375 -2.734375 C 4.984375 -1.84375 4.640625 -1.15625 4.140625 -0.75 L 3.5 -1.546875 L 2.734375 -1.546875 L 3.53125 -0.4375 C 3.390625 -0.390625 3.21875 -0.375 3.125 -0.375 C 2.140625 -0.375 1.25 -1.28125 1.25 -2.734375 C 1.25 -4.203125 2.140625 -5.140625 3.125 -5.140625 C 4.09375 -5.140625 4.984375 -4.203125 4.984375 -2.734375 Z M 4.984375 -2.734375 "/>
</g>
<g id="glyph-0-22">
<path d="M 2.9375 -4.9375 L 2.9375 -5.515625 C 2.734375 -5.5625 2.484375 -5.59375 2.265625 -5.59375 C 1.4375 -5.59375 0.84375 -5.015625 0.84375 -4.21875 L 0.84375 -3.53125 L 0.234375 -3.53125 L 0.234375 -3.03125 L 0.84375 -3.03125 L 0.84375 0 L 1.515625 0 L 1.515625 -3.03125 L 2.421875 -3.03125 L 2.421875 -3.53125 L 1.484375 -3.53125 L 1.484375 -4.453125 C 1.484375 -5.015625 2.03125 -5.078125 2.25 -5.078125 C 2.4375 -5.078125 2.65625 -5.046875 2.9375 -4.9375 Z M 5.265625 -4.9375 L 5.265625 -5.515625 C 5.0625 -5.5625 4.8125 -5.59375 4.609375 -5.59375 C 3.78125 -5.59375 3.1875 -5.015625 3.1875 -4.21875 L 3.1875 0 L 3.84375 0 L 3.84375 -3.03125 L 4.765625 -3.03125 L 4.765625 -3.53125 L 3.828125 -3.53125 L 3.828125 -4.453125 C 3.828125 -5.015625 4.359375 -5.078125 4.59375 -5.078125 C 4.78125 -5.078125 5 -5.046875 5.265625 -4.9375 Z M 5.265625 -4.9375 "/>
</g>
<g id="glyph-0-23">
<path d="M 4.078125 -1.78125 C 4.078125 -2.734375 3.546875 -3.609375 2.765625 -3.609375 C 2.40625 -3.609375 1.8125 -3.5 1.34375 -3.15625 L 1.34375 -3.53125 L 0.671875 -3.53125 L 0.671875 1.546875 L 1.375 1.546875 L 1.375 -0.375 C 1.796875 0.015625 2.25 0.078125 2.515625 0.078125 C 3.359375 0.078125 4.078125 -0.71875 4.078125 -1.78125 Z M 3.375 -1.78125 C 3.375 -0.984375 2.78125 -0.453125 2.15625 -0.453125 C 2.046875 -0.453125 1.84375 -0.46875 1.640625 -0.625 C 1.40625 -0.8125 1.375 -0.9375 1.375 -1.078125 L 1.375 -2.640625 C 1.546875 -2.859375 1.859375 -3.0625 2.25 -3.0625 C 2.875 -3.0625 3.375 -2.46875 3.375 -1.78125 Z M 3.375 -1.78125 "/>
</g>
<g id="glyph-0-24">
<path d="M 3.984375 0 L 2.375 -2.15625 L 3.796875 -3.53125 L 3.015625 -3.53125 L 1.3125 -1.890625 L 1.3125 -5.515625 L 0.703125 -5.515625 L 0.703125 0 L 1.28125 0 L 1.28125 -1.109375 L 1.96875 -1.765625 L 3.28125 0 Z M 3.984375 0 "/>
</g>
<g id="glyph-0-25">
<path d="M 5.640625 -3.53125 L 5.03125 -3.53125 L 4.265625 -1.140625 C 4.203125 -0.90625 4.125 -0.65625 4.09375 -0.46875 C 4.046875 -0.796875 3.765625 -1.65625 3.75 -1.703125 L 3.15625 -3.53125 L 2.546875 -3.53125 C 2.328125 -2.84375 1.71875 -1.0625 1.65625 -0.484375 C 1.59375 -1.046875 1 -2.8125 0.875 -3.1875 C 0.8125 -3.375 0.8125 -3.390625 0.765625 -3.53125 L 0.125 -3.53125 L 1.28125 0 L 1.953125 0 L 2.453125 -1.546875 C 2.5625 -1.9375 2.8125 -2.703125 2.84375 -3.046875 L 2.859375 -3.046875 C 2.875 -2.890625 2.921875 -2.71875 2.96875 -2.515625 L 3.140625 -1.921875 L 3.75 0 L 4.484375 0 Z M 5.640625 -3.53125 "/>
</g>
<g id="glyph-0-26">
<path d="M 3.046875 -1.03125 C 3.046875 -1.171875 3.03125 -1.484375 2.703125 -1.796875 C 2.40625 -2.046875 2.109375 -2.109375 1.734375 -2.171875 C 1.265625 -2.265625 0.90625 -2.34375 0.90625 -2.6875 C 0.90625 -3.140625 1.484375 -3.140625 1.59375 -3.140625 C 2.046875 -3.140625 2.40625 -3.046875 2.796875 -2.84375 L 2.90625 -3.40625 C 2.359375 -3.625 1.96875 -3.65625 1.671875 -3.65625 C 1.484375 -3.65625 0.28125 -3.65625 0.28125 -2.59375 C 0.28125 -2.21875 0.484375 -2.015625 0.59375 -1.921875 C 0.859375 -1.640625 1.203125 -1.578125 1.625 -1.5 C 2 -1.421875 2.421875 -1.34375 2.421875 -0.96875 C 2.421875 -0.46875 1.765625 -0.46875 1.65625 -0.46875 C 1.140625 -0.46875 0.671875 -0.640625 0.34375 -0.859375 L 0.234375 -0.265625 C 0.515625 -0.140625 1 0.078125 1.65625 0.078125 C 2.015625 0.078125 2.359375 0.03125 2.65625 -0.1875 C 2.953125 -0.40625 3.046875 -0.765625 3.046875 -1.03125 Z M 3.046875 -1.03125 "/>
</g>
<g id="glyph-0-27">
<path d="M 3.75 -5.78125 C 3.75 -5.890625 3.671875 -5.96875 3.5625 -5.96875 C 3.4375 -5.96875 3.40625 -5.875 3.359375 -5.78125 L 0.515625 1.65625 C 0.46875 1.75 0.46875 1.8125 0.46875 1.8125 C 0.46875 1.90625 0.546875 1.984375 0.65625 1.984375 C 0.78125 1.984375 0.8125 1.890625 0.84375 1.796875 L 3.703125 -5.640625 C 3.75 -5.734375 3.75 -5.78125 3.75 -5.78125 Z M 3.75 -5.78125 "/>
</g>
<g id="glyph-0-28">
<path d="M 2.921875 -4.9375 L 2.921875 -5.515625 C 2.71875 -5.5625 2.46875 -5.59375 2.265625 -5.59375 C 1.4375 -5.59375 0.84375 -5.015625 0.84375 -4.21875 L 0.84375 -3.53125 L 0.234375 -3.53125 L 0.234375 -3.03125 L 0.84375 -3.03125 L 0.84375 0 L 1.515625 0 L 1.515625 -3.03125 L 2.421875 -3.03125 L 2.421875 -3.53125 L 1.484375 -3.53125 L 1.484375 -4.453125 C 1.484375 -5 1.984375 -5.078125 2.25 -5.078125 C 2.421875 -5.078125 2.625 -5.046875 2.921875 -4.9375 Z M 2.921875 -4.9375 "/>
</g>
<g id="glyph-0-29">
<path d="M 6.09375 -1.984375 C 6.09375 -2.171875 5.921875 -2.171875 5.8125 -2.171875 L 3.46875 -2.171875 L 3.46875 -4.515625 C 3.46875 -4.625 3.46875 -4.796875 3.28125 -4.796875 C 3.109375 -4.796875 3.109375 -4.625 3.109375 -4.515625 L 3.109375 -2.171875 L 0.75 -2.171875 C 0.640625 -2.171875 0.46875 -2.171875 0.46875 -1.984375 C 0.46875 -1.8125 0.640625 -1.8125 0.75 -1.8125 L 3.109375 -1.8125 L 3.109375 0.546875 C 3.109375 0.65625 3.109375 0.828125 3.28125 0.828125 C 3.46875 0.828125 3.46875 0.65625 3.46875 0.546875 L 3.46875 -1.8125 L 5.8125 -1.8125 C 5.921875 -1.8125 6.09375 -1.8125 6.09375 -1.984375 Z M 6.09375 -1.984375 "/>
</g>
<g id="glyph-0-30">
<path d="M 3.859375 -4.8125 L 3.859375 -5.53125 L 3.15625 -5.53125 L 3.15625 -4.8125 Z M 3.84375 0 L 3.84375 -3.53125 L 3.171875 -3.53125 L 3.171875 0 Z M 2.484375 -3.03125 L 2.484375 -3.53125 L 1.484375 -3.53125 L 1.484375 -4.46875 C 1.484375 -4.96875 1.796875 -5.078125 1.984375 -5.078125 C 2.109375 -5.078125 2.3125 -5.046875 2.484375 -4.921875 L 2.484375 -5.515625 C 2.46875 -5.53125 2.25 -5.59375 1.984375 -5.59375 C 1.375 -5.59375 0.84375 -5.046875 0.84375 -4.234375 L 0.84375 -3.53125 L 0.234375 -3.53125 L 0.234375 -3.03125 L 0.84375 -3.03125 L 0.84375 0 L 1.515625 0 L 1.515625 -3.03125 Z M 2.484375 -3.03125 "/>
</g>
<g id="glyph-0-31">
<path d="M 5.046875 -0.3125 L 5.046875 -2.390625 L 3.28125 -2.390625 L 3.28125 -1.859375 L 4.359375 -1.859375 L 4.359375 -0.625 C 4.015625 -0.53125 3.640625 -0.46875 3.28125 -0.46875 C 2.75 -0.46875 2.25 -0.734375 1.90625 -1.140625 C 1.515625 -1.59375 1.34375 -2.171875 1.34375 -2.765625 C 1.34375 -3.359375 1.515625 -3.921875 1.90625 -4.375 C 2.25 -4.78125 2.75 -5.046875 3.28125 -5.046875 C 3.5625 -5.046875 3.84375 -5.015625 4.109375 -4.921875 C 4.375 -4.828125 4.625 -4.671875 4.859375 -4.5 L 4.984375 -5.21875 C 4.71875 -5.34375 4.4375 -5.453125 4.15625 -5.515625 C 3.859375 -5.578125 3.578125 -5.609375 3.28125 -5.609375 C 2.546875 -5.609375 1.84375 -5.296875 1.34375 -4.765625 C 0.8125 -4.234375 0.53125 -3.5 0.53125 -2.765625 C 0.53125 -2.015625 0.8125 -1.28125 1.34375 -0.75 C 1.84375 -0.21875 2.546875 0.078125 3.28125 0.078125 C 3.890625 0.078125 4.5 -0.046875 5.046875 -0.3125 Z M 5.046875 -0.3125 "/>
</g>
<g id="glyph-0-32">
<path d="M 5.015625 -1.859375 L 5.015625 -5.515625 L 4.328125 -5.515625 L 4.328125 -1.859375 C 4.328125 -0.78125 3.609375 -0.296875 2.921875 -0.296875 C 2.25 -0.296875 1.578125 -0.796875 1.578125 -1.84375 L 1.578125 -5.515625 L 0.765625 -5.515625 L 0.765625 -1.859375 C 0.765625 -0.6875 1.78125 0.171875 2.921875 0.171875 C 4.0625 0.171875 5.015625 -0.703125 5.015625 -1.859375 Z M 5.015625 -1.859375 "/>
</g>
<g id="glyph-1-0">
<path d="M 3.265625 -1.03125 C 3.296875 -1.171875 3.34375 -1.484375 3.078125 -1.796875 C 2.84375 -2.046875 2.5625 -2.109375 2.1875 -2.171875 C 1.75 -2.265625 1.390625 -2.34375 1.46875 -2.6875 C 1.5625 -3.140625 2.140625 -3.140625 2.265625 -3.140625 C 2.71875 -3.140625 3.046875 -3.046875 3.40625 -2.84375 L 3.625 -3.40625 C 3.140625 -3.625 2.75 -3.65625 2.453125 -3.65625 C 2.265625 -3.65625 1.0625 -3.65625 0.828125 -2.59375 C 0.75 -2.21875 0.921875 -2.015625 1 -1.921875 C 1.21875 -1.640625 1.53125 -1.578125 1.9375 -1.5 C 2.296875 -1.421875 2.71875 -1.34375 2.625 -0.96875 C 2.515625 -0.46875 1.859375 -0.46875 1.75 -0.46875 C 1.234375 -0.46875 0.796875 -0.640625 0.53125 -0.859375 L 0.296875 -0.265625 C 0.546875 -0.140625 0.984375 0.078125 1.640625 0.078125 C 2 0.078125 2.359375 0.03125 2.703125 -0.1875 C 3.03125 -0.40625 3.203125 -0.765625 3.265625 -1.03125 Z M 3.265625 -1.03125 "/>
</g>
<g id="glyph-1-1">
<path d="M 3.578125 -0.28125 L 3.640625 -0.859375 C 3.1875 -0.609375 2.734375 -0.46875 2.25 -0.46875 C 1.515625 -0.46875 1.203125 -1.0625 1.359375 -1.78125 C 1.484375 -2.390625 1.953125 -3.109375 2.828125 -3.109375 C 3.359375 -3.109375 3.59375 -2.984375 3.9375 -2.734375 L 4.171875 -3.3125 C 3.75 -3.546875 3.5625 -3.65625 2.9375 -3.65625 C 1.75 -3.65625 0.859375 -2.6875 0.65625 -1.765625 C 0.453125 -0.796875 1.03125 0.078125 2.109375 0.078125 C 2.671875 0.078125 3.1875 -0.09375 3.578125 -0.28125 Z M 3.578125 -0.28125 "/>
</g>
<g id="glyph-1-2">
<path d="M 3.40625 -3.015625 L 3.515625 -3.609375 C 2.859375 -3.609375 2.3125 -3.28125 1.890625 -2.859375 L 2.046875 -3.59375 L 1.4375 -3.59375 L 0.671875 0 L 1.34375 0 L 1.703125 -1.6875 C 1.890625 -2.546875 2.703125 -3.015625 3.40625 -3.015625 Z M 3.40625 -3.015625 "/>
</g>
<g id="glyph-1-3">
<path d="M 3.703125 0 L 4.453125 -3.53125 L 3.75 -3.53125 L 3.265625 -1.21875 C 3.140625 -0.59375 2.546875 -0.390625 2.078125 -0.390625 C 1.5 -0.390625 1.46875 -0.546875 1.546875 -0.921875 L 2.09375 -3.53125 L 1.40625 -3.53125 L 0.84375 -0.859375 C 0.6875 -0.15625 0.953125 0.078125 1.515625 0.078125 C 1.84375 0.078125 2.546875 0.015625 3.109375 -0.359375 L 3.03125 0 Z M 3.703125 0 "/>
</g>
<g id="glyph-1-4">
<path d="M 4.453125 -1.78125 C 4.65625 -2.734375 4.28125 -3.609375 3.484375 -3.609375 C 2.984375 -3.609375 2.46875 -3.453125 2.015625 -3.15625 L 2.515625 -5.515625 L 1.859375 -5.515625 L 0.671875 0 L 1.375 0 L 1.453125 -0.375 C 1.59375 -0.21875 1.90625 0.078125 2.484375 0.078125 C 3.359375 0.078125 4.234375 -0.734375 4.453125 -1.78125 Z M 3.75 -1.78125 C 3.546875 -0.796875 2.8125 -0.453125 2.265625 -0.453125 C 1.96875 -0.453125 1.71875 -0.578125 1.5625 -0.9375 L 1.90625 -2.5 C 1.921875 -2.625 1.953125 -2.734375 2.265625 -2.90625 C 2.40625 -2.984375 2.625 -3.078125 2.90625 -3.078125 C 3.4375 -3.078125 3.953125 -2.734375 3.75 -1.78125 Z M 3.75 -1.78125 "/>
</g>
<g id="glyph-1-5">
<path d="M 6.703125 -2.859375 C 6.734375 -3.03125 6.5625 -3.03125 6.453125 -3.03125 L 1.40625 -3.03125 C 1.28125 -3.03125 1.109375 -3.03125 1.078125 -2.859375 C 1.03125 -2.671875 1.203125 -2.671875 1.3125 -2.671875 L 6.375 -2.671875 C 6.484375 -2.671875 6.65625 -2.671875 6.703125 -2.859375 Z M 6.328125 -1.125 C 6.375 -1.296875 6.203125 -1.296875 6.078125 -1.296875 L 1.03125 -1.296875 C 0.921875 -1.296875 0.75 -1.296875 0.703125 -1.125 C 0.671875 -0.9375 0.84375 -0.9375 0.953125 -0.9375 L 6 -0.9375 C 6.109375 -0.9375 6.296875 -0.9375 6.328125 -1.125 Z M 6.328125 -1.125 "/>
</g>
<g id="glyph-1-6">
<path d="M 1.34375 0 L 2.078125 -3.53125 L 1.421875 -3.53125 L 0.671875 0 Z M 2.359375 -4.453125 L 2.515625 -5.25 L 1.71875 -5.25 L 1.546875 -4.453125 Z M 2.359375 -4.453125 "/>
</g>
<g id="glyph-1-7">
<path d="M 3.703125 0 L 4.203125 -2.359375 C 4.328125 -2.96875 4.28125 -3.609375 3.296875 -3.609375 C 2.84375 -3.609375 2.375 -3.421875 1.9375 -3 L 2.0625 -3.59375 L 1.421875 -3.59375 L 0.65625 0 L 1.359375 0 L 1.765625 -1.9375 C 1.875 -2.453125 2.234375 -3.078125 2.84375 -3.078125 C 3.65625 -3.078125 3.546875 -2.53125 3.484375 -2.296875 L 3 0 Z M 3.703125 0 "/>
</g>
<g id="glyph-1-8">
<path d="M 2.859375 -0.21875 L 2.828125 -0.71875 C 2.53125 -0.53125 2.25 -0.46875 2.015625 -0.46875 C 1.6875 -0.46875 1.65625 -0.796875 1.734375 -1.15625 L 2.140625 -3.03125 L 3.3125 -3.03125 L 3.421875 -3.53125 L 2.25 -3.53125 L 2.453125 -4.546875 L 1.84375 -4.546875 L 1.625 -3.53125 L 0.90625 -3.53125 L 0.796875 -3.03125 L 1.5 -3.03125 L 1.078125 -1.015625 C 0.96875 -0.484375 0.984375 0.078125 1.546875 0.078125 C 2.125 0.078125 2.59375 -0.109375 2.859375 -0.21875 Z M 2.859375 -0.21875 "/>
</g>
<g id="glyph-1-9">
<path d="M 3.46875 0 L 3.953125 -2.296875 C 4.125 -3.109375 3.625 -3.65625 2.84375 -3.65625 C 2.34375 -3.65625 1.9375 -3.546875 1.4375 -3.3125 L 1.359375 -2.734375 C 1.65625 -2.90625 2.09375 -3.140625 2.734375 -3.140625 C 3.078125 -3.140625 3.390625 -2.875 3.265625 -2.28125 L 3.203125 -1.96875 C 2 -1.921875 0.796875 -1.671875 0.640625 -0.9375 C 0.546875 -0.546875 0.6875 0.078125 1.390625 0.078125 C 1.734375 0.078125 2.375 0.015625 2.859375 -0.296875 L 2.796875 0 Z M 3.015625 -1.125 C 2.984375 -0.96875 2.9375 -0.765625 2.625 -0.59375 C 2.34375 -0.453125 2.03125 -0.453125 1.9375 -0.453125 C 1.5 -0.453125 1.203125 -0.640625 1.265625 -0.953125 C 1.390625 -1.453125 2.734375 -1.5 3.109375 -1.515625 Z M 3.015625 -1.125 "/>
</g>
<g id="glyph-1-10">
<path d="M 3.875 -1.734375 C 3.9375 -2.109375 4.03125 -2.640625 3.8125 -3.09375 C 3.609375 -3.5 3.171875 -3.65625 2.78125 -3.65625 C 1.8125 -3.65625 0.875 -2.796875 0.65625 -1.796875 C 0.453125 -0.765625 1.0625 0.078125 2.109375 0.078125 C 2.5625 0.078125 3.0625 -0.0625 3.53125 -0.296875 L 3.609375 -0.859375 C 3.09375 -0.546875 2.5625 -0.453125 2.234375 -0.453125 C 1.53125 -0.453125 1.125 -1.015625 1.265625 -1.734375 Z M 3.484375 -2.21875 L 1.421875 -2.21875 C 1.734375 -2.859375 2.265625 -3.125 2.671875 -3.125 C 3.015625 -3.125 3.484375 -2.953125 3.484375 -2.21875 Z M 3.484375 -2.21875 "/>
</g>
<g id="glyph-1-11">
<path d="M 2.671875 -1.515625 L 2.765625 -2.015625 L 0.53125 -2.015625 L 0.421875 -1.515625 Z M 2.671875 -1.515625 "/>
</g>
<g id="glyph-1-12">
<path d="M 6.046875 0 L 6.546875 -2.359375 C 6.671875 -2.96875 6.625 -3.609375 5.640625 -3.609375 C 4.984375 -3.609375 4.484375 -3.21875 4.234375 -2.96875 C 4.203125 -3.1875 4.09375 -3.609375 3.296875 -3.609375 C 2.84375 -3.609375 2.375 -3.421875 1.9375 -3 L 2.0625 -3.59375 L 1.421875 -3.59375 L 0.65625 0 L 1.359375 0 L 1.765625 -1.9375 C 1.875 -2.453125 2.234375 -3.078125 2.84375 -3.078125 C 3.65625 -3.078125 3.546875 -2.53125 3.484375 -2.296875 L 3 0 L 3.703125 0 L 4.109375 -1.9375 C 4.21875 -2.453125 4.578125 -3.078125 5.1875 -3.078125 C 6 -3.078125 5.890625 -2.53125 5.84375 -2.296875 L 5.359375 0 Z M 6.046875 0 "/>
</g>
<g id="glyph-1-13">
<path d="M 3.6875 0 L 4.859375 -5.515625 L 4.1875 -5.515625 L 3.6875 -3.1875 C 3.265625 -3.5625 2.75 -3.609375 2.515625 -3.609375 C 1.6875 -3.609375 0.875 -2.78125 0.65625 -1.765625 C 0.453125 -0.75 0.90625 0.078125 1.71875 0.078125 C 2.21875 0.078125 2.71875 -0.140625 3.078125 -0.40625 L 2.984375 0 Z M 3.203125 -0.984375 C 2.9375 -0.65625 2.578125 -0.453125 2.203125 -0.453125 C 1.640625 -0.453125 1.15625 -0.828125 1.359375 -1.75 C 1.5625 -2.75 2.3125 -3.078125 2.84375 -3.078125 C 3.171875 -3.078125 3.40625 -2.953125 3.5625 -2.6875 Z M 3.203125 -0.984375 "/>
</g>
<g id="glyph-1-14">
<path d="M 1.53125 -0.015625 L 1.671875 -0.71875 L 0.96875 -0.71875 L 0.8125 0 L 1.03125 0 L 0.59375 1.015625 L 0.953125 1.015625 Z M 1.53125 -0.015625 "/>
</g>
<g id="glyph-1-15">
<path d="M 3.984375 -4.9375 L 4.109375 -5.515625 C 3.90625 -5.5625 3.671875 -5.59375 3.453125 -5.59375 C 2.625 -5.59375 1.90625 -5.015625 1.734375 -4.21875 L 1.59375 -3.53125 L 0.984375 -3.53125 L 0.875 -3.03125 L 1.484375 -3.03125 L 0.84375 0 L 1.515625 0 L 2.15625 -3.03125 L 3.0625 -3.03125 L 3.171875 -3.53125 L 2.234375 -3.53125 L 2.4375 -4.453125 C 2.546875 -5 3.0625 -5.078125 3.328125 -5.078125 C 3.5 -5.078125 3.703125 -5.046875 3.984375 -4.9375 Z M 3.984375 -4.9375 "/>
</g>
<g id="glyph-1-16">
<path d="M 3.703125 0 L 4.203125 -2.359375 C 4.328125 -2.96875 4.28125 -3.609375 3.296875 -3.609375 C 2.609375 -3.609375 2.171875 -3.21875 1.96875 -3.046875 L 2.5 -5.515625 L 1.84375 -5.515625 L 0.65625 0 L 1.359375 0 L 1.765625 -1.9375 C 1.875 -2.453125 2.234375 -3.078125 2.84375 -3.078125 C 3.65625 -3.078125 3.546875 -2.53125 3.484375 -2.296875 L 3 0 Z M 3.703125 0 "/>
</g>
<g id="glyph-1-17">
<path d="M 4.34375 -1.734375 C 4.578125 -2.796875 3.921875 -3.65625 2.890625 -3.65625 C 1.859375 -3.65625 0.828125 -2.78125 0.609375 -1.734375 C 0.390625 -0.734375 1.0625 0.078125 2.09375 0.078125 C 3.125 0.078125 4.140625 -0.734375 4.34375 -1.734375 Z M 3.671875 -1.828125 C 3.484375 -0.921875 2.828125 -0.46875 2.21875 -0.46875 C 1.578125 -0.46875 1.125 -0.9375 1.3125 -1.828125 C 1.515625 -2.734375 2.1875 -3.125 2.78125 -3.125 C 3.375 -3.125 3.859375 -2.71875 3.671875 -1.828125 Z M 3.671875 -1.828125 "/>
</g>
<g id="glyph-1-18">
<path d="M 8.859375 -1.921875 L 8.96875 -2.4375 L 0.515625 -2.4375 L 0.40625 -1.921875 Z M 8.859375 -1.921875 "/>
</g>
<g id="glyph-1-19">
<path d="M 4.515625 -3.53125 L 3.875 -3.53125 C 2.234375 -0.859375 2.125 -0.65625 2.0625 -0.46875 C 2.0625 -0.78125 1.953125 -1.34375 1.84375 -1.953125 L 1.53125 -3.53125 L 0.859375 -3.53125 L 1.578125 0 L 2.3125 0 Z M 4.515625 -3.53125 "/>
</g>
<g id="glyph-1-20">
<path d="M 4.453125 -1.78125 C 4.65625 -2.734375 4.3125 -3.609375 3.515625 -3.609375 C 3.171875 -3.609375 2.546875 -3.5 2.015625 -3.15625 L 2.09375 -3.53125 L 1.421875 -3.53125 L 0.34375 1.546875 L 1.046875 1.546875 L 1.453125 -0.375 C 1.796875 0.015625 2.234375 0.078125 2.5 0.078125 C 3.34375 0.078125 4.21875 -0.71875 4.453125 -1.78125 Z M 3.75 -1.78125 C 3.59375 -0.984375 2.875 -0.453125 2.265625 -0.453125 C 2.140625 -0.453125 1.9375 -0.46875 1.78125 -0.625 C 1.578125 -0.8125 1.5625 -0.9375 1.59375 -1.078125 L 1.9375 -2.640625 C 2.15625 -2.859375 2.515625 -3.0625 2.890625 -3.0625 C 3.53125 -3.0625 3.90625 -2.46875 3.75 -1.78125 Z M 3.75 -1.78125 "/>
</g>
<g id="glyph-1-21">
<path d="M 1.34375 0 L 2.515625 -5.515625 L 1.84375 -5.515625 L 0.671875 0 Z M 1.34375 0 "/>
</g>
<g id="glyph-1-22">
<path d="M 4.515625 -3.53125 L 3.875 -3.53125 C 2.90625 -2.015625 2.25 -0.984375 2.109375 -0.5 C 2.140625 -0.71875 2.078125 -1.125 2.015625 -1.5 C 1.953125 -1.8125 1.90625 -2.125 1.828125 -2.4375 L 1.546875 -3.53125 L 0.859375 -3.53125 L 1.765625 0 L 1.3125 0.703125 C 1.078125 1.03125 0.9375 1.140625 0.71875 1.140625 C 0.6875 1.140625 0.390625 1.140625 0.09375 1 L 0.015625 1.5625 C 0.09375 1.578125 0.375 1.625 0.625 1.625 C 0.9375 1.625 1.25 1.5 1.734375 0.734375 Z M 4.515625 -3.53125 "/>
</g>
</g>
</defs>
<path fill-rule="nonzero" fill="rgb(87.841797%, 94.900513%, 94.509888%)" fill-opacity="1" stroke-width="0.69739" stroke-linecap="butt" stroke-linejoin="miter" stroke="rgb(0%, 53.72467%, 48.234558%)" stroke-opacity="1" stroke-miterlimit="10" d="M 19.514179 0.000094259 C 19.514179 10.776688 10.777035 19.513832 0.000440844 19.513832 C -10.776153 19.513832 -19.513297 10.776688 -19.513297 0.000094259 C -19.513297 -10.7765 -10.776153 -19.513644 0.000440844 -19.513644 C 10.777035 -19.513644 19.514179 -10.7765 19.514179 0.000094259 Z M 19.514179 0.000094259 " transform="matrix(0.997895, 0, 0, -0.997895, 45.93706, 27.777438)"/>
<g fill="rgb(0%, 0%, 0%)" fill-opacity="1">
<use xlink:href="#glyph-0-0" x="37.379135" y="24.999828"/>
<use xlink:href="#glyph-0-1" x="42.779448" y="24.999828"/>
<use xlink:href="#glyph-0-2" x="45.666508" y="24.999828"/>
</g>
<g fill="rgb(0%, 0%, 0%)" fill-opacity="1">
<use xlink:href="#glyph-0-3" x="50.128327" y="24.999828"/>
</g>
<g fill="rgb(0%, 0%, 0%)" fill-opacity="1">
<use xlink:href="#glyph-0-4" x="33.02071" y="34.444412"/>
<use xlink:href="#glyph-0-5" x="37.713176" y="34.444412"/>
<use xlink:href="#glyph-0-1" x="41.467149" y="34.444412"/>
<use xlink:href="#glyph-0-6" x="44.354209" y="34.444412"/>
<use xlink:href="#glyph-0-7" x="48.251342" y="34.444412"/>
<use xlink:href="#glyph-0-8" x="50.263535" y="34.444412"/>
<use xlink:href="#glyph-0-9" x="54.629915" y="34.444412"/>
</g>
<path fill-rule="nonzero" fill="rgb(87.841797%, 94.900513%, 94.509888%)" fill-opacity="1" stroke-width="0.69739" stroke-linecap="butt" stroke-linejoin="miter" stroke="rgb(0%, 53.72467%, 48.234558%)" stroke-opacity="1" stroke-miterlimit="10" d="M 108.087367 0.000094259 C 108.087367 8.611975 101.10783 15.591512 92.495949 15.591512 C 83.887984 15.591512 76.904532 8.611975 76.904532 0.000094259 C 76.904532 -8.611786 83.887984 -15.591324 92.495949 -15.591324 C 101.10783 -15.591324 108.087367 -8.611786 108.087367 0.000094259 Z M 108.087367 0.000094259 " transform="matrix(0.997895, 0, 0, -0.997895, 45.93706, 27.777438)"/>
<g fill="rgb(0%, 0%, 0%)" fill-opacity="1">
<use xlink:href="#glyph-0-10" x="131.999803" y="30.497509"/>
<use xlink:href="#glyph-0-3" x="134.346036" y="30.497509"/>
<use xlink:href="#glyph-0-11" x="138.712416" y="30.497509"/>
<use xlink:href="#glyph-0-5" x="140.724609" y="30.497509"/>
</g>
<path fill-rule="nonzero" fill="rgb(87.841797%, 94.900513%, 94.509888%)" fill-opacity="1" stroke-width="0.69739" stroke-linecap="butt" stroke-linejoin="miter" stroke="rgb(0%, 53.72467%, 48.234558%)" stroke-opacity="1" stroke-miterlimit="10" d="M 196.660556 0.000094259 C 196.660556 8.611975 189.681018 15.591512 181.069138 15.591512 C 172.457258 15.591512 165.47772 8.611975 165.47772 0.000094259 C 165.47772 -8.611786 172.457258 -15.591324 181.069138 -15.591324 C 189.681018 -15.591324 196.660556 -8.611786 196.660556 0.000094259 Z M 196.660556 0.000094259 " transform="matrix(0.997895, 0, 0, -0.997895, 45.93706, 27.777438)"/>
<g fill="rgb(0%, 0%, 0%)" fill-opacity="1">
<use xlink:href="#glyph-0-12" x="218.739478" y="30.497509"/>
<use xlink:href="#glyph-0-5" x="223.336504" y="30.497509"/>
<use xlink:href="#glyph-0-8" x="227.090477" y="30.497509"/>
<use xlink:href="#glyph-0-13" x="231.456857" y="30.497509"/>
</g>
<path fill-rule="nonzero" fill="rgb(87.841797%, 94.900513%, 94.509888%)" fill-opacity="1" stroke-width="0.69739" stroke-linecap="butt" stroke-linejoin="miter" stroke="rgb(0%, 53.72467%, 48.234558%)" stroke-opacity="1" stroke-miterlimit="10" d="M 202.579266 -74.645335 C 202.579266 -62.768769 192.949618 -53.139122 181.069138 -53.139122 C 169.192572 -53.139122 159.562924 -62.768769 159.562924 -74.645335 C 159.562924 -86.525816 169.192572 -96.155463 181.069138 -96.155463 C 192.949618 -96.155463 202.579266 -86.525816 202.579266 -74.645335 Z M 202.579266 -74.645335 " transform="matrix(0.997895, 0, 0, -0.997895, 45.93706, 27.777438)"/>
<g fill="rgb(0%, 0%, 0%)" fill-opacity="1">
<use xlink:href="#glyph-0-14" x="211.330828" y="99.489646"/>
<use xlink:href="#glyph-0-5" x="216.802721" y="99.489646"/>
<use xlink:href="#glyph-0-15" x="220.556694" y="99.489646"/>
<use xlink:href="#glyph-0-11" x="224.310667" y="99.489646"/>
<use xlink:href="#glyph-0-16" x="226.32286" y="99.489646"/>
<use xlink:href="#glyph-0-7" x="230.37906" y="99.489646"/>
<use xlink:href="#glyph-0-17" x="232.391253" y="99.489646"/>
<use xlink:href="#glyph-0-18" x="239.103866" y="99.489646"/>
</g>
<g fill="rgb(0%, 0%, 0%)" fill-opacity="1">
<use xlink:href="#glyph-0-7" x="221.324195" y="108.934231"/>
<use xlink:href="#glyph-0-8" x="223.336388" y="108.934231"/>
<use xlink:href="#glyph-0-9" x="227.702768" y="108.934231"/>
</g>
<path fill-rule="nonzero" fill="rgb(87.841797%, 94.900513%, 94.509888%)" fill-opacity="1" stroke-width="0.69739" stroke-linecap="butt" stroke-linejoin="miter" stroke="rgb(0%, 53.72467%, 48.234558%)" stroke-opacity="1" stroke-miterlimit="10" d="M 102.168657 -74.645335 C 102.168657 -64.479402 93.928653 -56.239398 83.76272 -56.239398 C 73.592872 -56.239398 65.352869 -64.479402 65.352869 -74.645335 C 65.352869 -84.815183 73.592872 -93.055187 83.76272 -93.055187 C 93.928653 -93.055187 102.168657 -84.815183 102.168657 -74.645335 Z M 102.168657 -74.645335 " transform="matrix(0.997895, 0, 0, -0.997895, 45.93706, 27.777438)"/>
<g fill="rgb(0%, 0%, 0%)" fill-opacity="1">
<use xlink:href="#glyph-0-4" x="118.081137" y="99.57317"/>
<use xlink:href="#glyph-0-15" x="122.773604" y="99.57317"/>
<use xlink:href="#glyph-0-1" x="126.527577" y="99.57317"/>
<use xlink:href="#glyph-0-19" x="129.414637" y="99.57317"/>
<use xlink:href="#glyph-0-20" x="133.781016" y="99.57317"/>
<use xlink:href="#glyph-0-18" x="138.147396" y="99.57317"/>
</g>
<g fill="rgb(0%, 0%, 0%)" fill-opacity="1">
<use xlink:href="#glyph-0-20" x="122.03793" y="109.017755"/>
<use xlink:href="#glyph-0-7" x="126.404309" y="109.017755"/>
<use xlink:href="#glyph-0-8" x="128.416503" y="109.017755"/>
<use xlink:href="#glyph-0-9" x="132.782882" y="109.017755"/>
</g>
<path fill-rule="nonzero" fill="rgb(96.97876%, 94.155884%, 89.99939%)" fill-opacity="1" stroke-width="0.69739" stroke-linecap="butt" stroke-linejoin="miter" stroke="rgb(69.802856%, 41.569519%, 0%)" stroke-opacity="1" stroke-miterlimit="10" d="M 112.714296 -81.859742 C 112.714296 -70.695614 103.663992 -61.641396 92.495949 -61.641396 C 81.331821 -61.641396 72.277603 -70.695614 72.277603 -81.859742 C 72.277603 -93.027785 81.331821 -102.078088 92.495949 -102.078088 C 103.663992 -102.078088 112.714296 -93.027785 112.714296 -81.859742 Z M 112.714296 -81.859742 " transform="matrix(0.997895, 0, 0, -0.997895, 45.93706, 27.777438)"/>
<g fill="rgb(0%, 0%, 0%)" fill-opacity="1">
<use xlink:href="#glyph-0-21" x="123.962859" y="107.546898"/>
<use xlink:href="#glyph-0-19" x="130.206225" y="107.546898"/>
<use xlink:href="#glyph-0-16" x="134.572605" y="107.546898"/>
</g>
<g fill="rgb(0%, 0%, 0%)" fill-opacity="1">
<use xlink:href="#glyph-0-1" x="138.398158" y="107.546898"/>
<use xlink:href="#glyph-0-16" x="141.285218" y="107.546898"/>
<use xlink:href="#glyph-0-8" x="145.341417" y="107.546898"/>
<use xlink:href="#glyph-0-18" x="149.707797" y="107.546898"/>
</g>
<g fill="rgb(0%, 0%, 0%)" fill-opacity="1">
<use xlink:href="#glyph-0-13" x="129.462586" y="116.991483"/>
<use xlink:href="#glyph-0-7" x="132.516666" y="116.991483"/>
<use xlink:href="#glyph-0-8" x="134.528859" y="116.991483"/>
<use xlink:href="#glyph-0-5" x="138.895239" y="116.991483"/>
<use xlink:href="#glyph-0-3" x="142.649212" y="116.991483"/>
</g>
<path fill="none" stroke-width="0.59776" stroke-linecap="butt" stroke-linejoin="miter" stroke="rgb(37.255859%, 38.822937%, 40.783691%)" stroke-opacity="1" stroke-miterlimit="10" d="M 19.862568 0.000094259 L 72.970468 0.000094259 " transform="matrix(0.997895, 0, 0, -0.997895, 45.93706, 27.777438)"/>
<path fill-rule="nonzero" fill="rgb(37.255859%, 38.822937%, 40.783691%)" fill-opacity="1" stroke-width="0.59776" stroke-linecap="butt" stroke-linejoin="miter" stroke="rgb(37.255859%, 38.822937%, 40.783691%)" stroke-opacity="1" stroke-miterlimit="10" d="M 4.827987 0.000094259 L 0.964385 1.456285 L 2.240509 0.000094259 L 0.964385 -1.460011 Z M 4.827987 0.000094259 " transform="matrix(0.997895, 0, 0, -0.997895, 116.666552, 27.777438)"/>
<g fill="rgb(37.298584%, 38.798523%, 40.79895%)" fill-opacity="1">
<use xlink:href="#glyph-0-2" x="79.789731" y="23.947867"/>
<use xlink:href="#glyph-0-22" x="84.012951" y="23.947867"/>
<use xlink:href="#glyph-0-18" x="88.944017" y="23.947867"/>
<use xlink:href="#glyph-0-23" x="91.759497" y="23.947867"/>
</g>
<g fill="rgb(37.298584%, 38.798523%, 40.79895%)" fill-opacity="1">
<use xlink:href="#glyph-0-5" x="96.364477" y="23.947867"/>
<use xlink:href="#glyph-0-16" x="100.11845" y="23.947867"/>
<use xlink:href="#glyph-0-24" x="104.174649" y="23.947867"/>
</g>
<path fill="none" stroke-width="0.59776" stroke-linecap="butt" stroke-linejoin="miter" stroke="rgb(37.255859%, 38.822937%, 40.783691%)" stroke-opacity="1" stroke-miterlimit="10" d="M 108.435757 0.000094259 L 161.543657 0.000094259 " transform="matrix(0.997895, 0, 0, -0.997895, 45.93706, 27.777438)"/>
<path fill-rule="nonzero" fill="rgb(37.255859%, 38.822937%, 40.783691%)" fill-opacity="1" stroke-width="0.59776" stroke-linecap="butt" stroke-linejoin="miter" stroke="rgb(37.255859%, 38.822937%, 40.783691%)" stroke-opacity="1" stroke-miterlimit="10" d="M 4.828686 0.000094259 L 0.965083 1.456285 L 2.241207 0.000094259 L 0.965083 -1.460011 Z M 4.828686 0.000094259 " transform="matrix(0.997895, 0, 0, -0.997895, 205.052573, 27.777438)"/>
<g fill="rgb(37.298584%, 38.798523%, 40.79895%)" fill-opacity="1">
<use xlink:href="#glyph-0-25" x="157.792538" y="23.947887"/>
<use xlink:href="#glyph-0-7" x="163.566658" y="23.947887"/>
<use xlink:href="#glyph-0-8" x="165.578851" y="23.947887"/>
<use xlink:href="#glyph-0-3" x="169.945231" y="23.947887"/>
<use xlink:href="#glyph-0-2" x="174.31161" y="23.947887"/>
</g>
<g fill="rgb(37.298584%, 38.798523%, 40.79895%)" fill-opacity="1">
<use xlink:href="#glyph-0-25" x="178.304183" y="23.947887"/>
</g>
<g fill="rgb(37.298584%, 38.798523%, 40.79895%)" fill-opacity="1">
<use xlink:href="#glyph-0-2" x="186.88583" y="23.947887"/>
<use xlink:href="#glyph-0-23" x="191.109049" y="23.947887"/>
</g>
<g fill="rgb(37.298584%, 38.798523%, 40.79895%)" fill-opacity="1">
<use xlink:href="#glyph-0-5" x="195.714029" y="23.947887"/>
<use xlink:href="#glyph-0-8" x="199.468002" y="23.947887"/>
<use xlink:href="#glyph-0-26" x="203.834382" y="23.947887"/>
</g>
<path fill="none" stroke-width="0.59776" stroke-linecap="butt" stroke-linejoin="miter" stroke="rgb(37.255859%, 38.822937%, 40.783691%)" stroke-opacity="1" stroke-miterlimit="10" d="M 181.069138 -15.939713 L 181.069138 -49.205058 " transform="matrix(0.997895, 0, 0, -0.997895, 45.93706, 27.777438)"/>
<path fill-rule="nonzero" fill="rgb(37.255859%, 38.822937%, 40.783691%)" fill-opacity="1" stroke-width="0.59776" stroke-linecap="butt" stroke-linejoin="miter" stroke="rgb(37.255859%, 38.822937%, 40.783691%)" stroke-opacity="1" stroke-miterlimit="10" d="M 4.825903 -0.000291899 L 0.966215 1.459813 L 2.242339 -0.000291899 L 0.966215 -1.456483 Z M 4.825903 -0.000291899 " transform="matrix(0, 0.997895, 0.997895, 0, 226.625291, 74.789726)"/>
<g fill="rgb(37.298584%, 38.798523%, 40.79895%)" fill-opacity="1">
<use xlink:href="#glyph-0-23" x="228.911907" y="64.058296"/>
</g>
<g fill="rgb(37.298584%, 38.798523%, 40.79895%)" fill-opacity="1">
<use xlink:href="#glyph-0-1" x="233.039687" y="64.058296"/>
<use xlink:href="#glyph-0-5" x="235.926747" y="64.058296"/>
<use xlink:href="#glyph-0-18" x="239.68072" y="64.058296"/>
<use xlink:href="#glyph-0-1" x="242.4962" y="64.058296"/>
<use xlink:href="#glyph-0-16" x="245.383259" y="64.058296"/>
<use xlink:href="#glyph-0-17" x="249.439459" y="64.058296"/>
<use xlink:href="#glyph-0-23" x="256.152072" y="64.058296"/>
</g>
<g fill="rgb(37.298584%, 38.798523%, 40.79895%)" fill-opacity="1">
<use xlink:href="#glyph-0-25" x="263.333932" y="64.058296"/>
</g>
<g fill="rgb(37.298584%, 38.798523%, 40.79895%)" fill-opacity="1">
<use xlink:href="#glyph-0-16" x="268.877405" y="64.058296"/>
<use xlink:href="#glyph-0-6" x="272.933604" y="64.058296"/>
<use xlink:href="#glyph-0-5" x="276.830737" y="64.058296"/>
<use xlink:href="#glyph-0-27" x="280.584711" y="64.058296"/>
</g>
<g fill="rgb(37.298584%, 38.798523%, 40.79895%)" fill-opacity="1">
<use xlink:href="#glyph-0-7" x="287.615457" y="64.058296"/>
<use xlink:href="#glyph-0-8" x="289.62765" y="64.058296"/>
<use xlink:href="#glyph-0-28" x="293.99403" y="64.058296"/>
<use xlink:href="#glyph-0-5" x="296.578863" y="64.058296"/>
<use xlink:href="#glyph-0-1" x="300.332836" y="64.058296"/>
<use xlink:href="#glyph-0-5" x="303.219896" y="64.058296"/>
<use xlink:href="#glyph-0-8" x="306.973869" y="64.058296"/>
<use xlink:href="#glyph-0-15" x="311.340249" y="64.058296"/>
<use xlink:href="#glyph-0-5" x="315.094222" y="64.058296"/>
</g>
<g fill="rgb(37.298584%, 38.798523%, 40.79895%)" fill-opacity="1">
<use xlink:href="#glyph-0-23" x="321.663675" y="64.058296"/>
</g>
<g fill="rgb(37.298584%, 38.798523%, 40.79895%)" fill-opacity="1">
<use xlink:href="#glyph-0-1" x="325.799408" y="64.058296"/>
<use xlink:href="#glyph-0-5" x="328.686467" y="64.058296"/>
<use xlink:href="#glyph-0-26" x="332.44044" y="64.058296"/>
<use xlink:href="#glyph-0-26" x="335.677447" y="64.058296"/>
<use xlink:href="#glyph-0-19" x="338.914453" y="64.058296"/>
<use xlink:href="#glyph-0-1" x="343.280833" y="64.058296"/>
<use xlink:href="#glyph-0-5" x="346.167893" y="64.058296"/>
</g>
<path fill="none" stroke-width="0.59776" stroke-linecap="butt" stroke-linejoin="miter" stroke="rgb(37.255859%, 38.822937%, 40.783691%)" stroke-opacity="1" stroke-miterlimit="10" d="M 159.214535 -74.645335 L 106.106635 -74.645335 " transform="matrix(0.997895, 0, 0, -0.997895, 45.93706, 27.777438)"/>
<path fill-rule="nonzero" fill="rgb(37.255859%, 38.822937%, 40.783691%)" fill-opacity="1" stroke-width="0.59776" stroke-linecap="butt" stroke-linejoin="miter" stroke="rgb(37.255859%, 38.822937%, 40.783691%)" stroke-opacity="1" stroke-miterlimit="10" d="M 4.827514 -0.00163474 L 0.963912 1.45847 L 2.240036 -0.00163474 L 0.963912 -1.457825 Z M 4.827514 -0.00163474 " transform="matrix(-0.997895, 0, 0, 0.997895, 153.907195, 102.267256)"/>
<g fill="rgb(37.298584%, 38.798523%, 40.79895%)" fill-opacity="1">
<use xlink:href="#glyph-0-3" x="163.623047" y="99.901108"/>
<use xlink:href="#glyph-0-1" x="167.989427" y="99.901108"/>
<use xlink:href="#glyph-0-16" x="170.876487" y="99.901108"/>
<use xlink:href="#glyph-0-7" x="174.932687" y="99.901108"/>
<use xlink:href="#glyph-0-8" x="176.94488" y="99.901108"/>
<use xlink:href="#glyph-0-5" x="181.31126" y="99.901108"/>
<use xlink:href="#glyph-0-3" x="185.065233" y="99.901108"/>
</g>
<path fill="none" stroke-width="0.59776" stroke-linecap="butt" stroke-linejoin="miter" stroke="rgb(37.255859%, 38.822937%, 40.783691%)" stroke-opacity="1" stroke-miterlimit="10" d="M 66.335406 -67.708857 C 38.675612 -56.857888 23.628309 -43.579934 11.129339 -20.641017 " transform="matrix(0.997895, 0, 0, -0.997895, 45.93706, 27.777438)"/>
<path fill-rule="nonzero" fill="rgb(37.255859%, 38.822937%, 40.783691%)" fill-opacity="1" stroke-width="0.59776" stroke-linecap="butt" stroke-linejoin="miter" stroke="rgb(37.255859%, 38.822937%, 40.783691%)" stroke-opacity="1" stroke-miterlimit="10" d="M 4.827703 -0.000313775 L 0.963714 1.458037 L 2.242068 -0.000562291 L 0.966341 -1.458767 Z M 4.827703 -0.000313775 " transform="matrix(-0.477313, -0.876281, -0.876281, 0.477313, 58.042332, 50.207138)"/>
<g fill="rgb(37.298584%, 38.798523%, 40.79895%)" fill-opacity="1">
<use xlink:href="#glyph-0-1" x="10.066207" y="77.975036"/>
<use xlink:href="#glyph-0-5" x="12.953267" y="77.975036"/>
<use xlink:href="#glyph-0-7" x="16.70724" y="77.975036"/>
<use xlink:href="#glyph-0-17" x="18.719433" y="77.975036"/>
<use xlink:href="#glyph-0-16" x="25.432046" y="77.975036"/>
<use xlink:href="#glyph-0-9" x="29.488246" y="77.975036"/>
<use xlink:href="#glyph-0-5" x="33.711465" y="77.975036"/>
<use xlink:href="#glyph-0-3" x="37.465439" y="77.975036"/>
<use xlink:href="#glyph-0-29" x="41.831818" y="77.975036"/>
</g>
<g fill="rgb(37.298584%, 38.798523%, 40.79895%)" fill-opacity="1">
<use xlink:href="#glyph-0-6" x="51.216751" y="77.975036"/>
<use xlink:href="#glyph-0-5" x="55.113884" y="77.975036"/>
<use xlink:href="#glyph-0-1" x="58.867857" y="77.975036"/>
<use xlink:href="#glyph-0-7" x="61.754917" y="77.975036"/>
<use xlink:href="#glyph-0-30" x="63.76711" y="77.975036"/>
<use xlink:href="#glyph-0-5" x="68.292557" y="77.975036"/>
<use xlink:href="#glyph-0-3" x="72.04653" y="77.975036"/>
</g>
<path fill="none" stroke-width="0.59776" stroke-linecap="butt" stroke-linejoin="miter" stroke="rgb(37.255859%, 38.822937%, 40.783691%)" stroke-opacity="1" stroke-miterlimit="10" d="M 179.05709 -15.810535 C 175.643654 -51.80428 149.076003 -77.988311 116.613129 -80.587533 " transform="matrix(0.997895, 0, 0, -0.997895, 45.93706, 27.777438)"/>
<path fill-rule="nonzero" fill="rgb(37.255859%, 38.822937%, 40.783691%)" fill-opacity="1" stroke-width="0.59776" stroke-linecap="butt" stroke-linejoin="miter" stroke="rgb(37.255859%, 38.822937%, 40.783691%)" stroke-opacity="1" stroke-miterlimit="10" d="M 4.825849 -0.00114842 L 0.964556 1.458983 L 2.241945 0.00170962 L 0.966334 -1.45911 Z M 4.825849 -0.00114842 " transform="matrix(-0.994652, 0.0797118, 0.0797118, 0.994652, 164.386068, 108.030527)"/>
<g fill="rgb(37.298584%, 38.798523%, 40.79895%)" fill-opacity="1">
<use xlink:href="#glyph-0-3" x="206.17266" y="90.395313"/>
<use xlink:href="#glyph-0-1" x="210.53904" y="90.395313"/>
<use xlink:href="#glyph-0-7" x="213.4261" y="90.395313"/>
<use xlink:href="#glyph-0-6" x="215.438293" y="90.395313"/>
<use xlink:href="#glyph-0-5" x="219.335426" y="90.395313"/>
<use xlink:href="#glyph-0-1" x="223.089399" y="90.395313"/>
</g>
<g fill="rgb(37.298584%, 38.798523%, 40.79895%)" fill-opacity="1">
<use xlink:href="#glyph-0-25" x="228.791939" y="90.395313"/>
</g>
<g fill="rgb(37.298584%, 38.798523%, 40.79895%)" fill-opacity="1">
<use xlink:href="#glyph-0-5" x="234.335412" y="90.395313"/>
<use xlink:href="#glyph-0-3" x="238.089385" y="90.395313"/>
<use xlink:href="#glyph-0-9" x="242.455765" y="90.395313"/>
<use xlink:href="#glyph-0-5" x="246.678984" y="90.395313"/>
<use xlink:href="#glyph-0-27" x="250.432957" y="90.395313"/>
</g>
<g fill="rgb(37.298584%, 38.798523%, 40.79895%)" fill-opacity="1">
<use xlink:href="#glyph-0-31" x="257.463704" y="90.395313"/>
<use xlink:href="#glyph-0-0" x="263.094663" y="90.395313"/>
<use xlink:href="#glyph-0-32" x="268.494976" y="90.395313"/>
</g>
<g fill="rgb(37.298584%, 38.798523%, 40.79895%)" fill-opacity="1">
<use xlink:href="#glyph-0-28" x="277.108436" y="90.395313"/>
<use xlink:href="#glyph-0-16" x="279.693269" y="90.395313"/>
<use xlink:href="#glyph-0-19" x="283.749469" y="90.395313"/>
<use xlink:href="#glyph-0-11" x="288.115848" y="90.395313"/>
<use xlink:href="#glyph-0-13" x="290.128042" y="90.395313"/>
</g>
<path fill="none" stroke-width="0.59776" stroke-linecap="butt" stroke-linejoin="miter" stroke="rgb(37.255859%, 38.822937%, 40.783691%)" stroke-opacity="1" stroke-miterlimit="10" d="M 108.353553 -94.953715 L 100.990395 -88.87451 " transform="matrix(0.997895, 0, 0, -0.997895, 45.93706, 27.777438)"/>
<path fill-rule="nonzero" fill="rgb(37.255859%, 38.822937%, 40.783691%)" fill-opacity="1" stroke-width="0.59776" stroke-linecap="butt" stroke-linejoin="miter" stroke="rgb(37.255859%, 38.822937%, 40.783691%)" stroke-opacity="1" stroke-miterlimit="10" d="M 4.82739 0.000578493 L 0.964943 1.456568 L 2.238516 0.000244 L 0.964811 -1.457605 Z M 4.82739 0.000578493 " transform="matrix(-0.769437, -0.63533, -0.63533, 0.769437, 148.324114, 117.793101)"/>
<g fill="rgb(37.298584%, 38.798523%, 40.79895%)" fill-opacity="1">
<use xlink:href="#glyph-0-1" x="134.490089" y="126.164969"/>
<use xlink:href="#glyph-0-19" x="137.377149" y="126.164969"/>
<use xlink:href="#glyph-0-8" x="141.743529" y="126.164969"/>
<use xlink:href="#glyph-0-20" x="146.109909" y="126.164969"/>
</g>
<g fill="rgb(37.298584%, 38.798523%, 40.79895%)" fill-opacity="1">
<use xlink:href="#glyph-0-2" x="150.714888" y="126.164969"/>
</g>
<g fill="rgb(37.298584%, 38.798523%, 40.79895%)" fill-opacity="1">
<use xlink:href="#glyph-0-2" x="155.176708" y="126.164969"/>
<use xlink:href="#glyph-0-24" x="159.399928" y="126.164969"/>
</g>
<g fill="rgb(37.298584%, 38.798523%, 40.79895%)" fill-opacity="1">
<use xlink:href="#glyph-1-0" x="92.264253" y="138.503658"/>
<use xlink:href="#glyph-1-1" x="95.50126" y="138.503658"/>
<use xlink:href="#glyph-1-2" x="99.255233" y="138.503658"/>
<use xlink:href="#glyph-1-3" x="102.142293" y="138.503658"/>
<use xlink:href="#glyph-1-4" x="106.508672" y="138.503658"/>
</g>
<g fill="rgb(37.298584%, 38.798523%, 40.79895%)" fill-opacity="1">
<use xlink:href="#glyph-1-5" x="113.523512" y="138.503658"/>
</g>
<g fill="rgb(37.298584%, 38.798523%, 40.79895%)" fill-opacity="1">
<use xlink:href="#glyph-1-6" x="122.741425" y="138.503658"/>
<use xlink:href="#glyph-1-7" x="124.753618" y="138.503658"/>
<use xlink:href="#glyph-1-0" x="129.119998" y="138.503658"/>
<use xlink:href="#glyph-1-8" x="132.357004" y="138.503658"/>
<use xlink:href="#glyph-1-9" x="135.411084" y="138.503658"/>
<use xlink:href="#glyph-1-7" x="139.467284" y="138.503658"/>
<use xlink:href="#glyph-1-1" x="143.833663" y="138.503658"/>
<use xlink:href="#glyph-1-10" x="147.587636" y="138.503658"/>
</g>
<g fill="rgb(37.298584%, 38.798523%, 40.79895%)" fill-opacity="1">
<use xlink:href="#glyph-1-8" x="154.260483" y="138.503658"/>
<use xlink:href="#glyph-1-10" x="157.314562" y="138.503658"/>
<use xlink:href="#glyph-1-2" x="161.068536" y="138.503658"/>
<use xlink:href="#glyph-1-11" x="163.955595" y="138.503658"/>
</g>
<g fill="rgb(37.298584%, 38.798523%, 40.79895%)" fill-opacity="1">
<use xlink:href="#glyph-1-12" x="89.397092" y="147.948243"/>
<use xlink:href="#glyph-1-6" x="96.109705" y="147.948243"/>
<use xlink:href="#glyph-1-7" x="98.121898" y="147.948243"/>
<use xlink:href="#glyph-1-9" x="102.488278" y="147.948243"/>
<use xlink:href="#glyph-1-8" x="106.544478" y="147.948243"/>
<use xlink:href="#glyph-1-10" x="109.598558" y="147.948243"/>
<use xlink:href="#glyph-1-13" x="113.352531" y="147.948243"/>
<use xlink:href="#glyph-1-14" x="117.71891" y="147.948243"/>
</g>
<g fill="rgb(37.298584%, 38.798523%, 40.79895%)" fill-opacity="1">
<use xlink:href="#glyph-1-15" x="122.713603" y="147.948243"/>
<use xlink:href="#glyph-1-2" x="125.298437" y="147.948243"/>
<use xlink:href="#glyph-1-10" x="128.185496" y="147.948243"/>
<use xlink:href="#glyph-1-0" x="131.939469" y="147.948243"/>
<use xlink:href="#glyph-1-16" x="135.176476" y="147.948243"/>
</g>
<g fill="rgb(37.298584%, 38.798523%, 40.79895%)" fill-opacity="1">
<use xlink:href="#glyph-1-4" x="142.191315" y="147.948243"/>
</g>
<g fill="rgb(37.298584%, 38.798523%, 40.79895%)" fill-opacity="1">
<use xlink:href="#glyph-1-17" x="146.796295" y="147.948243"/>
</g>
<g fill="rgb(37.298584%, 38.798523%, 40.79895%)" fill-opacity="1">
<use xlink:href="#glyph-1-17" x="151.258115" y="147.948243"/>
<use xlink:href="#glyph-1-8" x="155.481335" y="147.948243"/>
</g>
<g fill="rgb(37.298584%, 38.798523%, 40.79895%)" fill-opacity="1">
<use xlink:href="#glyph-1-18" x="161.183874" y="147.948243"/>
</g>
<g fill="rgb(37.298584%, 38.798523%, 40.79895%)" fill-opacity="1">
<use xlink:href="#glyph-1-7" x="71.650413" y="157.392828"/>
<use xlink:href="#glyph-1-10" x="76.016792" y="157.392828"/>
<use xlink:href="#glyph-1-19" x="79.770765" y="157.392828"/>
<use xlink:href="#glyph-1-10" x="83.667898" y="157.392828"/>
<use xlink:href="#glyph-1-2" x="87.421871" y="157.392828"/>
</g>
<g fill="rgb(37.298584%, 38.798523%, 40.79895%)" fill-opacity="1">
<use xlink:href="#glyph-1-20" x="92.957391" y="157.392828"/>
</g>
<g fill="rgb(37.298584%, 38.798523%, 40.79895%)" fill-opacity="1">
<use xlink:href="#glyph-1-2" x="97.093124" y="157.392828"/>
<use xlink:href="#glyph-1-17" x="99.980184" y="157.392828"/>
</g>
<g fill="rgb(37.298584%, 38.798523%, 40.79895%)" fill-opacity="1">
<use xlink:href="#glyph-1-13" x="104.43405" y="157.392828"/>
<use xlink:href="#glyph-1-11" x="108.80043" y="157.392828"/>
<use xlink:href="#glyph-1-0" x="111.61591" y="157.392828"/>
<use xlink:href="#glyph-1-1" x="114.852916" y="157.392828"/>
<use xlink:href="#glyph-1-16" x="118.606889" y="157.392828"/>
<use xlink:href="#glyph-1-10" x="122.973269" y="157.392828"/>
<use xlink:href="#glyph-1-13" x="126.727242" y="157.392828"/>
<use xlink:href="#glyph-1-3" x="131.093622" y="157.392828"/>
<use xlink:href="#glyph-1-21" x="135.460002" y="157.392828"/>
<use xlink:href="#glyph-1-9" x="137.472195" y="157.392828"/>
<use xlink:href="#glyph-1-4" x="141.528395" y="157.392828"/>
<use xlink:href="#glyph-1-21" x="145.894774" y="157.392828"/>
<use xlink:href="#glyph-1-10" x="147.906968" y="157.392828"/>
</g>
<g fill="rgb(37.298584%, 38.798523%, 40.79895%)" fill-opacity="1">
<use xlink:href="#glyph-1-12" x="154.3094" y="157.392828"/>
<use xlink:href="#glyph-1-6" x="161.022013" y="157.392828"/>
<use xlink:href="#glyph-1-13" x="163.034207" y="157.392828"/>
<use xlink:href="#glyph-1-11" x="167.400586" y="157.392828"/>
<use xlink:href="#glyph-1-1" x="170.216066" y="157.392828"/>
<use xlink:href="#glyph-1-22" x="173.970039" y="157.392828"/>
<use xlink:href="#glyph-1-1" x="177.867172" y="157.392828"/>
<use xlink:href="#glyph-1-21" x="181.621145" y="157.392828"/>
<use xlink:href="#glyph-1-10" x="183.633339" y="157.392828"/>
</g>
</svg>
